SplineFontDB: 3.2
FontName: F35Mono-Regular
FullName: F35 Mono Regular
FamilyName: F35 Mono
Weight: Regular
Copyright: Copyright 2012 The B612 Project Authors (https://github.com/polarsys/b612)
Version: 2024.3
ItalicAngle: 0
UnderlinePosition: -307
UnderlineWidth: 102
Ascent: 1638
Descent: 410
InvalidEm: 0
sfntRevision: 0x07e84ccd
LayerCount: 2
Layer: 0 1 "Back" 1
Layer: 1 1 "Fore" 0
XUID: [1021 443 1183686117 6770412]
StyleMap: 0x0040
FSType: 0
OS2Version: 3
OS2_WeightWidthSlopeOnly: 0
OS2_UseTypoMetrics: 0
CreationTime: 1511794680
ModificationTime: 1711164596
PfmFamily: 17
TTFWeight: 400
TTFWidth: 5
LineGap: 0
VLineGap: 0
Panose: 2 11 6 9 5 0 0 2 0 4
OS2TypoAscent: 1976
OS2TypoAOffset: 0
OS2TypoDescent: -512
OS2TypoDOffset: 0
OS2TypoLinegap: 0
OS2WinAscent: 2013
OS2WinAOffset: 0
OS2WinDescent: 729
OS2WinDOffset: 0
HheadAscent: 1976
HheadAOffset: 0
HheadDescent: -512
HheadDOffset: 0
OS2SubXSize: 1331
OS2SubYSize: 1433
OS2SubXOff: 0
OS2SubYOff: 286
OS2SupXSize: 1331
OS2SupYSize: 1433
OS2SupXOff: 0
OS2SupYOff: 983
OS2StrikeYSize: 102
OS2StrikeYPos: 512
OS2CapHeight: 1536
OS2XHeight: 1126
OS2FamilyClass: 2053
OS2Vendor: '    '
OS2CodePages: 20000011.81d40000
OS2UnicodeRanges: 800000af.5000e0fb.00000000.00000000
MarkAttachClasses: 1
DEI: 91125
TtTable: prep
PUSHW_1
 511
SCANCTRL
PUSHB_1
 4
SCANTYPE
EndTTInstrs
TtTable: fpgm
PUSHW_1
 0
FDEF
MPPEM
PUSHW_1
 9
LT
IF
PUSHB_2
 1
 1
INSTCTRL
EIF
PUSHW_1
 511
SCANCTRL
PUSHW_1
 68
SCVTCI
PUSHW_2
 9
 3
SDS
SDB
ENDF
PUSHW_1
 1
FDEF
DUP
DUP
RCVT
ROUND[Black]
WCVTP
PUSHB_1
 1
ADD
ENDF
PUSHW_1
 2
FDEF
PUSHW_1
 1
LOOPCALL
POP
ENDF
PUSHW_1
 3
FDEF
DUP
GC[cur]
PUSHB_1
 3
CINDEX
GC[cur]
GT
IF
SWAP
EIF
DUP
ROLL
DUP
ROLL
MD[grid]
ABS
ROLL
DUP
GC[cur]
DUP
ROUND[Grey]
SUB
ABS
PUSHB_1
 4
CINDEX
GC[cur]
DUP
ROUND[Grey]
SUB
ABS
GT
IF
SWAP
NEG
ROLL
EIF
MDAP[rnd]
DUP
PUSHB_1
 0
GTEQ
IF
ROUND[Black]
DUP
PUSHB_1
 0
EQ
IF
POP
PUSHB_1
 64
EIF
ELSE
ROUND[Black]
DUP
PUSHB_1
 0
EQ
IF
POP
PUSHB_1
 64
NEG
EIF
EIF
MSIRP[no-rp0]
ENDF
PUSHW_1
 4
FDEF
DUP

StartChar: .notdef
Encoding: 65536 -1 0
Width: 1331
GlyphClass: 1
Flags: W
LayerCount: 2
Fore
SplineSet
102 1536 m 1,0,-1
 1229 1536 l 1,1,-1
 1229 0 l 1,2,-1
 102 0 l 1,3,-1
 102 1536 l 1,0,-1
205 102 m 1,4,-1
 1126 102 l 1,5,-1
 1126 1434 l 1,6,-1
 205 1434 l 1,7,-1
 205 102 l 1,4,-1
EndSplineSet
EndChar

StartChar: exclam
Encoding: 33 33 5
Width: 1331
GlyphClass: 1
Flags: W
LayerCount: 2
Fore
SplineSet
774.5 1536 m 1,0,-1
 774.5 461 l 1,1,-1
 558.5 439 l 1,2,-1
 558.5 1536 l 1,3,-1
 774.5 1536 l 1,0,-1
541.5 109 m 256,4,5
 541.5 135 541.5 135 551.5 157 c 128,-1,6
 561.5 179 561.5 179 578 196 c 128,-1,7
 594.5 213 594.5 213 617 222.5 c 128,-1,8
 639.5 232 639.5 232 665.5 232 c 256,9,10
 691.5 232 691.5 232 714 222.5 c 128,-1,11
 736.5 213 736.5 213 753 196 c 128,-1,12
 769.5 179 769.5 179 779.5 156.5 c 128,-1,13
 789.5 134 789.5 134 789.5 109 c 256,14,15
 789.5 83 789.5 83 779.5 60 c 128,-1,16
 769.5 37 769.5 37 753.5 20 c 128,-1,17
 737.5 3 737.5 3 715 -7 c 128,-1,18
 692.5 -17 692.5 -17 666.5 -17 c 0,19,20
 639.5 -17 639.5 -17 617 -7 c 128,-1,21
 594.5 3 594.5 3 578 20 c 128,-1,22
 561.5 37 561.5 37 551.5 60 c 128,-1,23
 541.5 83 541.5 83 541.5 109 c 256,4,5
EndSplineSet
EndChar

StartChar: quotedbl
Encoding: 34 34 6
Width: 1331
GlyphClass: 1
Flags: W
LayerCount: 2
Fore
SplineSet
601.5 1536 m 1,0,-1
 601.5 1434 l 2,1,2
 601.5 1415 601.5 1415 599.5 1390 c 128,-1,3
 597.5 1365 597.5 1365 593.5 1337.5 c 128,-1,4
 589.5 1310 589.5 1310 585.5 1281 c 128,-1,5
 581.5 1252 581.5 1252 577.5 1225 c 2,6,-1
 556.5 1093 l 1,7,-1
 466.5 1093 l 1,8,-1
 444.5 1225 l 2,9,10
 439.5 1253 439.5 1253 435.5 1281.5 c 128,-1,11
 431.5 1310 431.5 1310 428 1337.5 c 128,-1,12
 424.5 1365 424.5 1365 423 1389.5 c 128,-1,13
 421.5 1414 421.5 1414 421.5 1434 c 2,14,-1
 421.5 1536 l 1,15,-1
 601.5 1536 l 1,0,-1
909.5 1536 m 1,16,-1
 909.5 1434 l 2,17,18
 909.5 1415 909.5 1415 907.5 1390 c 128,-1,19
 905.5 1365 905.5 1365 902 1337.5 c 128,-1,20
 898.5 1310 898.5 1310 894 1281 c 128,-1,21
 889.5 1252 889.5 1252 885.5 1225 c 2,22,-1
 864.5 1093 l 1,23,-1
 775.5 1093 l 1,24,-1
 752.5 1225 l 2,25,26
 747.5 1253 747.5 1253 743.5 1281.5 c 128,-1,27
 739.5 1310 739.5 1310 736.5 1337.5 c 128,-1,28
 733.5 1365 733.5 1365 732 1389.5 c 128,-1,29
 730.5 1414 730.5 1414 730.5 1434 c 2,30,-1
 730.5 1536 l 1,31,-1
 909.5 1536 l 1,16,-1
EndSplineSet
EndChar

StartChar: numbersign
Encoding: 35 35 7
Width: 1331
GlyphClass: 1
Flags: W
LayerCount: 2
Fore
SplineSet
1027.5 973 m 1,0,-1
 975.5 563 l 1,1,-1
 1254.5 563 l 1,2,-1
 1234.5 410 l 1,3,-1
 958.5 410 l 1,4,-1
 907.5 0 l 1,5,-1
 701.5 -20 l 1,6,-1
 756.5 410 l 1,7,-1
 477.5 410 l 1,8,-1
 428.5 0 l 1,9,-1
 223.5 -20 l 1,10,-1
 275.5 410 l 1,11,-1
 76.5 410 l 1,12,-1
 76.5 563 l 1,13,-1
 292.5 563 l 1,14,-1
 345.5 973 l 1,15,-1
 76.5 973 l 1,16,-1
 97.5 1126 l 1,17,-1
 362.5 1126 l 1,18,-1
 387.5 1316 l 1,19,-1
 387.5 1536 l 1,20,-1
 618.5 1556 l 1,21,-1
 564.5 1126 l 1,22,-1
 843.5 1126 l 1,23,-1
 893.5 1536 l 1,24,-1
 1098.5 1556 l 1,25,-1
 1046.5 1126 l 1,26,-1
 1254.5 1126 l 1,27,-1
 1254.5 973 l 1,28,-1
 1027.5 973 l 1,0,-1
824.5 973 m 1,29,-1
 546.5 973 l 1,30,-1
 496.5 563 l 1,31,-1
 774.5 563 l 1,32,-1
 824.5 973 l 1,29,-1
EndSplineSet
EndChar

StartChar: dollar
Encoding: 36 36 8
Width: 1331
GlyphClass: 1
Flags: W
LayerCount: 2
Fore
SplineSet
1001.5 1331 m 1,0,1
 984.5 1345 984.5 1345 957.5 1360 c 128,-1,2
 930.5 1375 930.5 1375 898 1387.5 c 128,-1,3
 865.5 1400 865.5 1400 827.5 1409 c 128,-1,4
 789.5 1418 789.5 1418 749.5 1421 c 1,5,-1
 749.5 884 l 1,6,7
 820.5 851 820.5 851 889.5 813 c 128,-1,8
 958.5 775 958.5 775 1013 724 c 128,-1,9
 1067.5 673 1067.5 673 1101.5 604.5 c 128,-1,10
 1135.5 536 1135.5 536 1135.5 442 c 0,11,12
 1135.5 347 1135.5 347 1107 271 c 128,-1,13
 1078.5 195 1078.5 195 1027 138.5 c 128,-1,14
 975.5 82 975.5 82 904.5 46 c 128,-1,15
 833.5 10 833.5 10 749.5 -5 c 1,16,-1
 749.5 -205 l 1,17,-1
 599.5 -205 l 1,18,-1
 599.5 -17 l 1,19,20
 540.5 -16 540.5 -16 482 -5.5 c 128,-1,21
 423.5 5 423.5 5 371 21.5 c 128,-1,22
 318.5 38 318.5 38 273.5 59 c 128,-1,23
 228.5 80 228.5 80 195.5 102 c 1,24,-1
 316.5 247 l 1,25,26
 336.5 234 336.5 234 363 217.5 c 128,-1,27
 389.5 201 389.5 201 424.5 186 c 128,-1,28
 459.5 171 459.5 171 502.5 161.5 c 128,-1,29
 545.5 152 545.5 152 599.5 152 c 1,30,-1
 599.5 738 l 1,31,32
 528.5 773 528.5 773 459 811 c 128,-1,33
 389.5 849 389.5 849 335.5 896 c 128,-1,34
 281.5 943 281.5 943 247.5 1003 c 128,-1,35
 213.5 1063 213.5 1063 213.5 1143 c 0,36,37
 213.5 1251 213.5 1251 246 1325.5 c 128,-1,38
 278.5 1400 278.5 1400 331.5 1448 c 128,-1,39
 384.5 1496 384.5 1496 454.5 1520.5 c 128,-1,40
 524.5 1545 524.5 1545 599.5 1553 c 1,41,-1
 599.5 1741 l 1,42,-1
 749.5 1761 l 1,43,-1
 749.5 1553 l 1,44,45
 858.5 1547 858.5 1547 942.5 1516.5 c 128,-1,46
 1026.5 1486 1026.5 1486 1097.5 1434 c 1,47,-1
 1001.5 1331 l 1,0,1
940.5 410 m 0,48,49
 940.5 456 940.5 456 923.5 494 c 128,-1,50
 906.5 532 906.5 532 876.5 564.5 c 128,-1,51
 846.5 597 846.5 597 805.5 624.5 c 128,-1,52
 764.5 652 764.5 652 718.5 678 c 1,53,-1
 718.5 162 l 1,54,55
 768.5 171 768.5 171 809.5 190.5 c 128,-1,56
 850.5 210 850.5 210 880 240 c 128,-1,57
 909.5 270 909.5 270 925 312.5 c 128,-1,58
 940.5 355 940.5 355 940.5 410 c 0,48,49
408.5 1175 m 0,59,60
 408.5 1133 408.5 1133 426 1099 c 128,-1,61
 443.5 1065 443.5 1065 473 1037 c 128,-1,62
 502.5 1009 502.5 1009 543.5 985 c 128,-1,63
 584.5 961 584.5 961 630.5 938 c 1,64,-1
 630.5 1416 l 1,65,66
 588.5 1409 588.5 1409 549 1393 c 128,-1,67
 509.5 1377 509.5 1377 478 1348.5 c 128,-1,68
 446.5 1320 446.5 1320 427.5 1277 c 128,-1,69
 408.5 1234 408.5 1234 408.5 1175 c 0,59,60
EndSplineSet
EndChar

StartChar: percent
Encoding: 37 37 9
Width: 1331
GlyphClass: 1
Flags: W
LayerCount: 2
Fore
SplineSet
404 0 m 1,0,-1
 234 0 l 1,1,-1
 927 1536 l 1,2,-1
 1097 1536 l 1,3,-1
 404 0 l 1,0,-1
368 819 m 0,4,5
 296 819 296 819 245.5 847.5 c 128,-1,6
 195 876 195 876 163 925.5 c 128,-1,7
 131 975 131 975 116.5 1043 c 128,-1,8
 102 1111 102 1111 102 1190 c 0,9,10
 102 1268 102 1268 115.5 1335 c 128,-1,11
 129 1402 129 1402 160 1450 c 128,-1,12
 191 1498 191 1498 242 1525.5 c 128,-1,13
 293 1553 293 1553 368 1553 c 0,14,15
 440 1553 440 1553 490 1525.5 c 128,-1,16
 540 1498 540 1498 571.5 1450 c 128,-1,17
 603 1402 603 1402 617.5 1335 c 128,-1,18
 632 1268 632 1268 632 1190 c 0,19,20
 632 1111 632 1111 618 1043 c 128,-1,21
 604 975 604 975 573.5 925.5 c 128,-1,22
 543 876 543 876 492.5 847.5 c 128,-1,23
 442 819 442 819 368 819 c 0,4,5
479 1239 m 2,24,25
 479 1275 479 1275 476 1307.5 c 128,-1,26
 473 1340 473 1340 462 1365 c 128,-1,27
 451 1390 451 1390 428.5 1404.5 c 128,-1,28
 406 1419 406 1419 367 1419 c 0,29,30
 329 1419 329 1419 307.5 1406 c 128,-1,31
 286 1393 286 1393 275 1370.5 c 128,-1,32
 264 1348 264 1348 261 1317.5 c 128,-1,33
 258 1287 258 1287 258 1253 c 2,34,-1
 258 1150 l 2,35,36
 258 1113 258 1113 261 1080 c 128,-1,37
 264 1047 264 1047 275.5 1021.5 c 128,-1,38
 287 996 287 996 310 981.5 c 128,-1,39
 333 967 333 967 372 967 c 0,40,41
 409 967 409 967 430.5 980 c 128,-1,42
 452 993 452 993 462.5 1015.5 c 128,-1,43
 473 1038 473 1038 476 1068.5 c 128,-1,44
 479 1099 479 1099 479 1132 c 2,45,-1
 479 1239 l 2,24,25
965 -17 m 0,46,47
 893 -17 893 -17 842.5 11 c 128,-1,48
 792 39 792 39 760 88.5 c 128,-1,49
 728 138 728 138 713.5 206 c 128,-1,50
 699 274 699 274 699 353 c 0,51,52
 699 431 699 431 712.5 498 c 128,-1,53
 726 565 726 565 757 613.5 c 128,-1,54
 788 662 788 662 839 689.5 c 128,-1,55
 890 717 890 717 965 717 c 0,56,57
 1037 717 1037 717 1087 689.5 c 128,-1,58
 1137 662 1137 662 1168.5 613.5 c 128,-1,59
 1200 565 1200 565 1214.5 498 c 128,-1,60
 1229 431 1229 431 1229 353 c 0,61,62
 1229 274 1229 274 1215 206 c 128,-1,63
 1201 138 1201 138 1170.5 88.5 c 128,-1,64
 1140 39 1140 39 1089.5 11 c 128,-1,65
 1039 -17 1039 -17 965 -17 c 0,46,47
1076 402 m 2,66,67
 1076 438 1076 438 1073 471 c 128,-1,68
 1070 504 1070 504 1059 528.5 c 128,-1,69
 1048 553 1048 553 1025 568 c 128,-1,70
 1002 583 1002 583 964 583 c 0,71,72
 926 583 926 583 904.5 569.5 c 128,-1,73
 883 556 883 556 872 533.5 c 128,-1,74
 861 511 861 511 858 481 c 128,-1,75
 855 451 855 451 855 417 c 2,76,-1
 855 313 l 2,77,78
 855 276 855 276 858 243 c 128,-1,79
 861 210 861 210 872.5 185 c 128,-1,80
 884 160 884 160 907 145 c 128,-1,81
 930 130 930 130 969 130 c 0,82,83
 1006 130 1006 130 1027.5 143.5 c 128,-1,84
 1049 157 1049 157 1059.5 179.5 c 128,-1,85
 1070 202 1070 202 1073 232 c 128,-1,86
 1076 262 1076 262 1076 295 c 2,87,-1
 1076 402 l 2,66,67
EndSplineSet
EndChar

StartChar: ampersand
Encoding: 38 38 10
Width: 1331
GlyphClass: 1
Flags: W
LayerCount: 2
Fore
SplineSet
1206.5 738 m 1,0,1
 1206.5 657 1206.5 657 1199 576 c 128,-1,2
 1191.5 495 1191.5 495 1169.5 418 c 128,-1,3
 1147.5 341 1147.5 341 1109 271.5 c 128,-1,4
 1070.5 202 1070.5 202 1009.5 144 c 1,5,-1
 1103.5 144 l 1,6,-1
 1226.5 -20 l 1,7,-1
 998.5 -20 l 1,8,-1
 921.5 79 l 1,9,10
 844.5 28 844.5 28 753.5 5.5 c 128,-1,11
 662.5 -17 662.5 -17 564.5 -17 c 0,12,13
 459.5 -17 459.5 -17 374.5 21 c 128,-1,14
 289.5 59 289.5 59 229.5 124.5 c 128,-1,15
 169.5 190 169.5 190 137 276 c 128,-1,16
 104.5 362 104.5 362 104.5 458 c 0,17,18
 104.5 555 104.5 555 131 630.5 c 128,-1,19
 157.5 706 157.5 706 198.5 760.5 c 128,-1,20
 239.5 815 239.5 815 287.5 850 c 128,-1,21
 335.5 885 335.5 885 380.5 902 c 1,22,23
 361.5 931 361.5 931 341 968.5 c 128,-1,24
 320.5 1006 320.5 1006 305 1045.5 c 128,-1,25
 289.5 1085 289.5 1085 279 1126 c 128,-1,26
 268.5 1167 268.5 1167 268.5 1204 c 0,27,28
 268.5 1278 268.5 1278 288.5 1341.5 c 128,-1,29
 308.5 1405 308.5 1405 352.5 1452 c 128,-1,30
 396.5 1499 396.5 1499 466.5 1526 c 128,-1,31
 536.5 1553 536.5 1553 634.5 1553 c 0,32,33
 702.5 1553 702.5 1553 756 1535.5 c 128,-1,34
 809.5 1518 809.5 1518 852 1490.5 c 128,-1,35
 894.5 1463 894.5 1463 926.5 1431 c 128,-1,36
 958.5 1399 958.5 1399 982.5 1370 c 1,37,-1
 900.5 1229 l 1,38,39
 885.5 1256 885.5 1256 862 1284.5 c 128,-1,40
 838.5 1313 838.5 1313 805 1337 c 128,-1,41
 771.5 1361 771.5 1361 727 1376.5 c 128,-1,42
 682.5 1392 682.5 1392 626.5 1392 c 0,43,44
 577.5 1392 577.5 1392 544 1372.5 c 128,-1,45
 510.5 1353 510.5 1353 490 1324 c 128,-1,46
 469.5 1295 469.5 1295 461 1262.5 c 128,-1,47
 452.5 1230 452.5 1230 452.5 1203 c 0,48,49
 452.5 1173 452.5 1173 462.5 1139 c 0,50,51
 466.5 1124 466.5 1124 478 1100 c 128,-1,52
 489.5 1076 489.5 1076 511.5 1037.5 c 128,-1,53
 533.5 999 533.5 999 568.5 942.5 c 128,-1,54
 603.5 886 603.5 886 654 804.5 c 128,-1,55
 704.5 723 704.5 723 773 613.5 c 128,-1,56
 841.5 504 841.5 504 930.5 360 c 1,57,58
 955.5 395 955.5 395 970 433 c 128,-1,59
 984.5 471 984.5 471 993 514 c 128,-1,60
 1001.5 557 1001.5 557 1005 606.5 c 128,-1,61
 1008.5 656 1008.5 656 1008.5 717 c 1,62,-1
 1206.5 738 l 1,0,1
437.5 717 m 1,63,64
 372.5 687 372.5 687 335.5 626.5 c 128,-1,65
 298.5 566 298.5 566 298.5 468 c 0,66,67
 298.5 394 298.5 394 325 339 c 128,-1,68
 351.5 284 351.5 284 393 247 c 128,-1,69
 434.5 210 434.5 210 486.5 192 c 128,-1,70
 538.5 174 538.5 174 589.5 174 c 0,71,72
 633.5 174 633.5 174 667 179 c 128,-1,73
 700.5 184 700.5 184 726.5 193 c 128,-1,74
 752.5 202 752.5 202 772.5 213.5 c 128,-1,75
 792.5 225 792.5 225 808.5 240 c 1,76,-1
 437.5 819 l 1,77,-1
 437.5 717 l 1,63,64
EndSplineSet
EndChar

StartChar: quotesingle
Encoding: 39 39 11
Width: 1331
GlyphClass: 1
Flags: W
LayerCount: 2
Fore
SplineSet
588 1536 m 1,0,-1
 768 1536 l 1,1,-1
 768 1434 l 2,2,3
 768 1357 768 1357 731.5 1270 c 128,-1,4
 695 1183 695 1183 623 1093 c 1,5,-1
 563 1093 l 1,6,7
 572 1144 572 1144 577.5 1189 c 128,-1,8
 583 1234 583 1234 585 1275.5 c 128,-1,9
 587 1317 587 1317 587.5 1356 c 128,-1,10
 588 1395 588 1395 588 1434 c 2,11,-1
 588 1536 l 1,0,-1
EndSplineSet
EndChar

StartChar: parenleft
Encoding: 40 40 12
Width: 1331
GlyphClass: 1
Flags: W
LayerCount: 2
Fore
SplineSet
440.5 1208 m 2,0,1
 440.5 1299 440.5 1299 449.5 1378 c 128,-1,2
 458.5 1457 458.5 1457 490 1515 c 128,-1,3
 521.5 1573 521.5 1573 582.5 1605.5 c 128,-1,4
 643.5 1638 643.5 1638 747.5 1638 c 0,5,6
 766.5 1638 766.5 1638 788.5 1636.5 c 128,-1,7
 810.5 1635 810.5 1635 829.5 1631.5 c 128,-1,8
 848.5 1628 848.5 1628 864.5 1623.5 c 128,-1,9
 880.5 1619 880.5 1619 890.5 1613 c 1,10,-1
 819.5 1484 l 1,11,-1
 805.5 1486 l 2,12,13
 798.5 1487 798.5 1487 789 1488 c 128,-1,14
 779.5 1489 779.5 1489 768.5 1489 c 0,15,16
 723.5 1489 723.5 1489 698 1467.5 c 128,-1,17
 672.5 1446 672.5 1446 661 1409 c 128,-1,18
 649.5 1372 649.5 1372 647.5 1324 c 128,-1,19
 645.5 1276 645.5 1276 645.5 1223 c 2,20,-1
 645.5 -14 l 2,21,22
 645.5 -67 645.5 -67 647.5 -115.5 c 128,-1,23
 649.5 -164 649.5 -164 661 -201 c 128,-1,24
 672.5 -238 672.5 -238 698 -259.5 c 128,-1,25
 723.5 -281 723.5 -281 768.5 -281 c 0,26,27
 779.5 -281 779.5 -281 788.5 -280.5 c 128,-1,28
 797.5 -280 797.5 -280 805.5 -279 c 2,29,-1
 819.5 -275 l 1,30,-1
 890.5 -404 l 1,31,32
 881.5 -410 881.5 -410 865 -415 c 128,-1,33
 848.5 -420 848.5 -420 829.5 -423.5 c 128,-1,34
 810.5 -427 810.5 -427 789 -428.5 c 128,-1,35
 767.5 -430 767.5 -430 747.5 -430 c 0,36,37
 643.5 -430 643.5 -430 582.5 -397.5 c 128,-1,38
 521.5 -365 521.5 -365 490 -307 c 128,-1,39
 458.5 -249 458.5 -249 449.5 -170 c 128,-1,40
 440.5 -91 440.5 -91 440.5 0 c 2,41,-1
 440.5 1208 l 2,0,1
EndSplineSet
EndChar

StartChar: parenright
Encoding: 41 41 13
Width: 1331
GlyphClass: 1
Flags: W
LayerCount: 2
Fore
SplineSet
890.5 0 m 2,0,1
 890.5 -91 890.5 -91 881 -170 c 128,-1,2
 871.5 -249 871.5 -249 840.5 -307 c 128,-1,3
 809.5 -365 809.5 -365 748.5 -397.5 c 128,-1,4
 687.5 -430 687.5 -430 582.5 -430 c 0,5,6
 562.5 -430 562.5 -430 541.5 -428.5 c 128,-1,7
 520.5 -427 520.5 -427 501.5 -423.5 c 128,-1,8
 482.5 -420 482.5 -420 466 -415.5 c 128,-1,9
 449.5 -411 449.5 -411 440.5 -404 c 1,10,-1
 511.5 -275 l 1,11,-1
 525.5 -279 l 2,12,13
 532.5 -280 532.5 -280 542 -280.5 c 128,-1,14
 551.5 -281 551.5 -281 562.5 -281 c 0,15,16
 607.5 -281 607.5 -281 632.5 -259.5 c 128,-1,17
 657.5 -238 657.5 -238 669.5 -201 c 128,-1,18
 681.5 -164 681.5 -164 683.5 -116 c 128,-1,19
 685.5 -68 685.5 -68 685.5 -14 c 2,20,-1
 685.5 1223 l 2,21,22
 685.5 1276 685.5 1276 683.5 1324 c 128,-1,23
 681.5 1372 681.5 1372 669.5 1409 c 128,-1,24
 657.5 1446 657.5 1446 632.5 1467.5 c 128,-1,25
 607.5 1489 607.5 1489 562.5 1489 c 0,26,27
 551.5 1489 551.5 1489 542 1488 c 128,-1,28
 532.5 1487 532.5 1487 525.5 1486 c 2,29,-1
 511.5 1484 l 1,30,-1
 440.5 1613 l 1,31,32
 449.5 1619 449.5 1619 466 1623.5 c 128,-1,33
 482.5 1628 482.5 1628 501.5 1631.5 c 128,-1,34
 520.5 1635 520.5 1635 541.5 1636.5 c 128,-1,35
 562.5 1638 562.5 1638 582.5 1638 c 0,36,37
 686.5 1638 686.5 1638 748 1605.5 c 128,-1,38
 809.5 1573 809.5 1573 840.5 1515 c 128,-1,39
 871.5 1457 871.5 1457 881 1378 c 128,-1,40
 890.5 1299 890.5 1299 890.5 1208 c 2,41,-1
 890.5 0 l 2,0,1
EndSplineSet
EndChar

StartChar: asterisk
Encoding: 42 42 14
Width: 1331
GlyphClass: 1
Flags: W
LayerCount: 2
Fore
SplineSet
791 1018 m 1,0,-1
 934 821 l 1,1,-1
 833 729 l 1,2,-1
 680 940 l 1,3,-1
 656 1014 l 1,4,-1
 631 940 l 1,5,-1
 488 743 l 1,6,-1
 369 812 l 1,7,-1
 521 1020 l 1,8,-1
 587 1066 l 1,9,-1
 504 1070 l 1,10,-1
 276 1145 l 1,11,-1
 304 1279 l 1,12,-1
 547 1200 l 1,13,-1
 615 1147 l 1,14,-1
 592 1231 l 1,15,-1
 592 1470 l 1,16,-1
 728 1485 l 1,17,-1
 728 1227 l 1,18,-1
 702 1145 l 1,19,-1
 769 1196 l 1,20,-1
 1000 1270 l 1,21,-1
 1055 1145 l 1,22,-1
 807 1065 l 1,23,-1
 726 1062 l 1,24,-1
 791 1018 l 1,0,-1
EndSplineSet
EndChar

StartChar: plus
Encoding: 43 43 15
Width: 1331
GlyphClass: 1
Flags: W
LayerCount: 2
Fore
SplineSet
205 717 m 1,0,-1
 587 717 l 1,1,-1
 587 1148 l 1,2,-1
 745 1148 l 1,3,-1
 745 717 l 1,4,-1
 1126 717 l 1,5,-1
 1126 558 l 1,6,-1
 745 558 l 1,7,-1
 745 125 l 1,8,-1
 587 125 l 1,9,-1
 587 558 l 1,10,-1
 205 558 l 1,11,-1
 205 717 l 1,0,-1
EndSplineSet
EndChar

StartChar: comma
Encoding: 44 44 16
Width: 1331
GlyphClass: 1
Flags: W
LayerCount: 2
Fore
SplineSet
514 130 m 0,0,1
 514 160 514 160 525.5 187 c 128,-1,2
 537 214 537 214 558 233.5 c 128,-1,3
 579 253 579 253 606.5 265.5 c 128,-1,4
 634 278 634 278 665 278 c 0,5,6
 695 278 695 278 722 267 c 128,-1,7
 749 256 749 256 770 235.5 c 128,-1,8
 791 215 791 215 804 184 c 128,-1,9
 817 153 817 153 817 113 c 0,10,11
 817 59 817 59 810 8 c 128,-1,12
 803 -43 803 -43 782 -95 c 128,-1,13
 761 -147 761 -147 722.5 -201.5 c 128,-1,14
 684 -256 684 -256 620 -314 c 1,15,-1
 567 -291 l 1,16,17
 591 -246 591 -246 609 -198 c 0,18,19
 624 -158 624 -158 637 -110 c 128,-1,20
 650 -62 650 -62 650 -17 c 1,21,22
 624 -16 624 -16 599.5 -6 c 128,-1,23
 575 4 575 4 555.5 22 c 128,-1,24
 536 40 536 40 525 67.5 c 128,-1,25
 514 95 514 95 514 130 c 0,0,1
EndSplineSet
EndChar

StartChar: hyphen
Encoding: 45 45 17
Width: 1331
GlyphClass: 1
Flags: W
LayerCount: 2
Fore
SplineSet
409.5 614 m 1,0,-1
 921.5 614 l 1,1,-1
 921.5 456 l 1,2,-1
 409.5 456 l 1,3,-1
 409.5 614 l 1,0,-1
EndSplineSet
EndChar

StartChar: period
Encoding: 46 46 18
Width: 1331
GlyphClass: 1
Flags: W
LayerCount: 2
Fore
SplineSet
497 154 m 256,0,1
 497 189 497 189 510.5 219.5 c 128,-1,2
 524 250 524 250 547 273 c 128,-1,3
 570 296 570 296 600 309.5 c 128,-1,4
 630 323 630 323 665 323 c 256,5,6
 700 323 700 323 730.5 309.5 c 128,-1,7
 761 296 761 296 784.5 273 c 128,-1,8
 808 250 808 250 821 219 c 128,-1,9
 834 188 834 188 834 154 c 256,10,11
 834 119 834 119 821 87.5 c 128,-1,12
 808 56 808 56 785 33 c 128,-1,13
 762 10 762 10 732 -3.5 c 128,-1,14
 702 -17 702 -17 667 -17 c 256,15,16
 632 -17 632 -17 601 -3.5 c 128,-1,17
 570 10 570 10 547 33 c 128,-1,18
 524 56 524 56 510.5 87.5 c 128,-1,19
 497 119 497 119 497 154 c 256,0,1
EndSplineSet
EndChar

StartChar: slash
Encoding: 47 47 19
Width: 1331
GlyphClass: 1
Flags: W
LayerCount: 2
Fore
SplineSet
414.5 -102 m 1,0,-1
 199.5 -102 l 1,1,-1
 926.5 1638 l 1,2,-1
 1131.5 1638 l 1,3,-1
 414.5 -102 l 1,0,-1
EndSplineSet
EndChar

StartChar: zero
Encoding: 48 48 20
Width: 1331
GlyphClass: 1
Flags: W
LayerCount: 2
Fore
SplineSet
665 -17 m 0,0,1
 578 -17 578 -17 505.5 16 c 128,-1,2
 433 49 433 49 375 106.5 c 128,-1,3
 317 164 317 164 273.5 240.5 c 128,-1,4
 230 317 230 317 201 405 c 128,-1,5
 172 493 172 493 157.5 586 c 128,-1,6
 143 679 143 679 143 768 c 0,7,8
 143 860 143 860 155.5 954.5 c 128,-1,9
 168 1049 168 1049 194.5 1136 c 128,-1,10
 221 1223 221 1223 262.5 1299 c 128,-1,11
 304 1375 304 1375 362 1431.5 c 128,-1,12
 420 1488 420 1488 495 1520.5 c 128,-1,13
 570 1553 570 1553 665 1553 c 0,14,15
 752 1553 752 1553 825 1520 c 128,-1,16
 898 1487 898 1487 956 1429.5 c 128,-1,17
 1014 1372 1014 1372 1057.5 1295.5 c 128,-1,18
 1101 1219 1101 1219 1130 1131 c 128,-1,19
 1159 1043 1159 1043 1173.5 950 c 128,-1,20
 1188 857 1188 857 1188 768 c 0,21,22
 1188 676 1188 676 1175.5 581.5 c 128,-1,23
 1163 487 1163 487 1136.5 400 c 128,-1,24
 1110 313 1110 313 1068.5 237 c 128,-1,25
 1027 161 1027 161 969 104.5 c 128,-1,26
 911 48 911 48 835 15.5 c 128,-1,27
 759 -17 759 -17 665 -17 c 0,0,1
674 161 m 0,28,29
 737 161 737 161 784 185 c 128,-1,30
 831 209 831 209 865 250 c 128,-1,31
 899 291 899 291 921 346 c 128,-1,32
 943 401 943 401 956 463.5 c 128,-1,33
 969 526 969 526 974 592.5 c 128,-1,34
 979 659 979 659 979 724 c 0,35,36
 979 759 979 759 978 790 c 128,-1,37
 977 821 977 821 975 853 c 128,-1,38
 973 885 973 885 969 917.5 c 128,-1,39
 965 950 965 950 960 988 c 1,40,-1
 991 1210 l 1,41,-1
 458 284 l 1,42,43
 494 226 494 226 546 193.5 c 128,-1,44
 598 161 598 161 674 161 c 0,28,29
657 1373 m 0,45,46
 594 1373 594 1373 547 1349.5 c 128,-1,47
 500 1326 500 1326 466 1285 c 128,-1,48
 432 1244 432 1244 410 1189.5 c 128,-1,49
 388 1135 388 1135 375 1072.5 c 128,-1,50
 362 1010 362 1010 357 943.5 c 128,-1,51
 352 877 352 877 352 812 c 0,52,53
 352 742 352 742 356 681.5 c 128,-1,54
 360 621 360 621 372 545 c 1,55,-1
 341 328 l 1,56,-1
 872 1250 l 1,57,58
 836 1308 836 1308 783.5 1340.5 c 128,-1,59
 731 1373 731 1373 657 1373 c 0,45,46
EndSplineSet
EndChar

StartChar: one
Encoding: 49 49 21
Width: 1331
GlyphClass: 1
Flags: W
LayerCount: 2
Fore
SplineSet
232.5 0 m 1,0,-1
 232.5 164 l 1,1,-1
 585.5 164 l 1,2,-1
 585.5 1153 l 1,3,-1
 644.5 1385 l 1,4,-1
 505.5 1195 l 1,5,-1
 288.5 1002 l 1,6,-1
 177.5 1126 l 1,7,-1
 646.5 1556 l 1,8,-1
 800.5 1536 l 1,9,-1
 800.5 164 l 1,10,-1
 1153.5 164 l 1,11,-1
 1153.5 0 l 1,12,-1
 232.5 0 l 1,0,-1
EndSplineSet
EndChar

StartChar: two
Encoding: 50 50 22
Width: 1331
GlyphClass: 1
Flags: W
LayerCount: 2
Fore
SplineSet
187 0 m 1,0,-1
 187 172 l 1,1,2
 234 247 234 247 289.5 319.5 c 128,-1,3
 345 392 345 392 402 460 c 128,-1,4
 459 528 459 528 513 590 c 128,-1,5
 567 652 567 652 613 705 c 0,6,7
 666 766 666 766 716 817.5 c 128,-1,8
 766 869 766 869 804 919.5 c 128,-1,9
 842 970 842 970 864.5 1023.5 c 128,-1,10
 887 1077 887 1077 887 1142 c 0,11,12
 887 1191 887 1191 868.5 1234.5 c 128,-1,13
 850 1278 850 1278 816.5 1310 c 128,-1,14
 783 1342 783 1342 737 1361 c 128,-1,15
 691 1380 691 1380 636 1380 c 0,16,17
 574 1380 574 1380 528 1363.5 c 128,-1,18
 482 1347 482 1347 448 1319 c 128,-1,19
 414 1291 414 1291 389 1257 c 128,-1,20
 364 1223 364 1223 342 1188 c 1,21,-1
 198 1249 l 1,22,23
 225 1316 225 1316 266 1371.5 c 128,-1,24
 307 1427 307 1427 363.5 1467.5 c 128,-1,25
 420 1508 420 1508 491.5 1530.5 c 128,-1,26
 563 1553 563 1553 651 1553 c 0,27,28
 754 1553 754 1553 835 1516.5 c 128,-1,29
 916 1480 916 1480 972 1420 c 128,-1,30
 1028 1360 1028 1360 1057 1284 c 128,-1,31
 1086 1208 1086 1208 1086 1130 c 0,32,33
 1086 1051 1086 1051 1057 980 c 128,-1,34
 1028 909 1028 909 984.5 845 c 128,-1,35
 941 781 941 781 891 725 c 128,-1,36
 841 669 841 669 799 620 c 0,37,38
 746 558 746 558 692.5 497 c 128,-1,39
 639 436 639 436 590.5 378.5 c 128,-1,40
 542 321 542 321 500 267 c 128,-1,41
 458 213 458 213 427 164 c 1,42,-1
 1144 164 l 1,43,-1
 1144 0 l 1,44,-1
 187 0 l 1,0,-1
EndSplineSet
EndChar

StartChar: three
Encoding: 51 51 23
Width: 1331
GlyphClass: 1
Flags: W
LayerCount: 2
Fore
SplineSet
208 1372 m 1,0,-1
 224 1536 l 1,1,-1
 1023 1536 l 1,2,-1
 1023 1393 l 1,3,4
 1011 1352 1011 1352 981.5 1307.5 c 128,-1,5
 952 1263 952 1263 912.5 1217 c 128,-1,6
 873 1171 873 1171 826.5 1127 c 128,-1,7
 780 1083 780 1083 733 1043 c 1,8,-1
 598 968 l 1,9,10
 608 970 608 970 624 970.5 c 128,-1,11
 640 971 640 971 654 971 c 0,12,13
 753 971 753 971 838.5 946.5 c 128,-1,14
 924 922 924 922 987 872 c 128,-1,15
 1050 822 1050 822 1086.5 746 c 128,-1,16
 1123 670 1123 670 1123 566 c 0,17,18
 1123 467 1123 467 1086 386 c 128,-1,19
 1049 305 1049 305 985 242 c 128,-1,20
 921 179 921 179 835 133.5 c 128,-1,21
 749 88 749 88 651.5 58.5 c 128,-1,22
 554 29 554 29 449.5 14.5 c 128,-1,23
 345 0 345 0 244 0 c 1,24,-1
 244 164 l 1,25,26
 329 167 329 167 411 179 c 128,-1,27
 493 191 493 191 567 213.5 c 128,-1,28
 641 236 641 236 703.5 267.5 c 128,-1,29
 766 299 766 299 811.5 341.5 c 128,-1,30
 857 384 857 384 882.5 438 c 128,-1,31
 908 492 908 492 908 556 c 0,32,33
 908 630 908 630 876.5 679 c 128,-1,34
 845 728 845 728 791 756.5 c 128,-1,35
 737 785 737 785 663.5 797 c 128,-1,36
 590 809 590 809 506 809 c 0,37,38
 473 809 473 809 435 807.5 c 128,-1,39
 397 806 397 806 366 804 c 1,40,-1
 366 963 l 1,41,42
 408 994 408 994 457 1032.5 c 128,-1,43
 506 1071 506 1071 556.5 1113.5 c 128,-1,44
 607 1156 607 1156 654.5 1199.5 c 128,-1,45
 702 1243 702 1243 741 1282.5 c 128,-1,46
 780 1322 780 1322 806.5 1356.5 c 128,-1,47
 833 1391 833 1391 841 1413 c 1,48,-1
 686 1372 l 1,49,-1
 208 1372 l 1,0,-1
EndSplineSet
EndChar

StartChar: four
Encoding: 52 52 24
Width: 1331
GlyphClass: 1
Flags: W
LayerCount: 2
Fore
SplineSet
1161.5 307 m 1,0,-1
 977.5 307 l 1,1,-1
 977.5 0 l 1,2,-1
 762.5 0 l 1,3,-1
 762.5 307 l 1,4,-1
 153.5 307 l 1,5,-1
 153.5 482 l 1,6,-1
 648.5 1556 l 1,7,-1
 842.5 1536 l 1,8,-1
 417.5 614 l 1,9,-1
 322.5 471 l 1,10,-1
 762.5 471 l 1,11,-1
 762.5 888 l 1,12,-1
 977.5 870 l 1,13,-1
 977.5 471 l 1,14,-1
 1177.5 471 l 1,15,-1
 1161.5 307 l 1,0,-1
EndSplineSet
EndChar

StartChar: five
Encoding: 53 53 25
Width: 1331
GlyphClass: 1
Flags: W
LayerCount: 2
Fore
SplineSet
444 1006 m 1,0,1
 451 1010 451 1010 469 1019 c 128,-1,2
 487 1028 487 1028 513.5 1037.5 c 128,-1,3
 540 1047 540 1047 574.5 1053.5 c 128,-1,4
 609 1060 609 1060 651 1060 c 0,5,6
 757 1060 757 1060 840.5 1026.5 c 128,-1,7
 924 993 924 993 982 935.5 c 128,-1,8
 1040 878 1040 878 1070 800 c 128,-1,9
 1100 722 1100 722 1100 634 c 0,10,11
 1100 531 1100 531 1063.5 443 c 128,-1,12
 1027 355 1027 355 963 285 c 128,-1,13
 899 215 899 215 813.5 162 c 128,-1,14
 728 109 728 109 631 72.5 c 128,-1,15
 534 36 534 36 431.5 18 c 128,-1,16
 329 0 329 0 231 0 c 1,17,-1
 231 164 l 1,18,19
 308 166 308 166 386.5 182.5 c 128,-1,20
 465 199 465 199 538.5 227.5 c 128,-1,21
 612 256 612 256 676 296 c 128,-1,22
 740 336 740 336 787.5 385 c 128,-1,23
 835 434 835 434 862.5 491.5 c 128,-1,24
 890 549 890 549 890 612 c 0,25,26
 890 664 890 664 873.5 713.5 c 128,-1,27
 857 763 857 763 823.5 801.5 c 128,-1,28
 790 840 790 840 740 863.5 c 128,-1,29
 690 887 690 887 623 887 c 0,30,31
 571 887 571 887 529 880 c 128,-1,32
 487 873 487 873 454 863 c 128,-1,33
 421 853 421 853 397 841 c 128,-1,34
 373 829 373 829 358 819 c 1,35,-1
 231 819 l 1,36,-1
 231 1536 l 1,37,-1
 1002 1536 l 1,38,-1
 1002 1372 l 1,39,-1
 444 1372 l 1,40,-1
 444 1006 l 1,0,1
EndSplineSet
EndChar

StartChar: six
Encoding: 54 54 26
Width: 1331
GlyphClass: 1
Flags: W
LayerCount: 2
Fore
SplineSet
976.5 1376 m 1,0,1
 969.5 1378 969.5 1378 955.5 1378.5 c 128,-1,2
 941.5 1379 941.5 1379 930.5 1379 c 0,3,4
 856.5 1379 856.5 1379 787 1356 c 128,-1,5
 717.5 1333 717.5 1333 656 1291 c 128,-1,6
 594.5 1249 594.5 1249 543 1191 c 128,-1,7
 491.5 1133 491.5 1133 452 1062.5 c 128,-1,8
 412.5 992 412.5 992 387 912.5 c 128,-1,9
 361.5 833 361.5 833 352.5 748 c 1,10,-1
 437.5 867 l 1,11,12
 463.5 883 463.5 883 498 898 c 128,-1,13
 532.5 913 532.5 913 570 924.5 c 128,-1,14
 607.5 936 607.5 936 646.5 942.5 c 128,-1,15
 685.5 949 685.5 949 720.5 949 c 0,16,17
 809.5 949 809.5 949 892 924.5 c 128,-1,18
 974.5 900 974.5 900 1038.5 849 c 128,-1,19
 1102.5 798 1102.5 798 1141 717.5 c 128,-1,20
 1179.5 637 1179.5 637 1179.5 525 c 0,21,22
 1179.5 414 1179.5 414 1142 315.5 c 128,-1,23
 1104.5 217 1104.5 217 1037 143 c 128,-1,24
 969.5 69 969.5 69 875 26 c 128,-1,25
 780.5 -17 780.5 -17 666.5 -17 c 0,26,27
 566.5 -17 566.5 -17 489 15 c 128,-1,28
 411.5 47 411.5 47 354 100.5 c 128,-1,29
 296.5 154 296.5 154 258 222.5 c 128,-1,30
 219.5 291 219.5 291 195.5 363 c 128,-1,31
 171.5 435 171.5 435 161.5 506 c 128,-1,32
 151.5 577 151.5 577 151.5 635 c 0,33,34
 151.5 757 151.5 757 176.5 872.5 c 128,-1,35
 201.5 988 201.5 988 249 1090 c 128,-1,36
 296.5 1192 296.5 1192 365 1277.5 c 128,-1,37
 433.5 1363 433.5 1363 521 1424 c 128,-1,38
 608.5 1485 608.5 1485 713.5 1519 c 128,-1,39
 818.5 1553 818.5 1553 939.5 1553 c 0,40,41
 954.5 1553 954.5 1553 973 1552.5 c 128,-1,42
 991.5 1552 991.5 1552 1002.5 1550 c 1,43,-1
 976.5 1376 l 1,0,1
362.5 611 m 1,44,45
 362.5 582 362.5 582 363 559 c 128,-1,46
 363.5 536 363.5 536 365.5 513 c 128,-1,47
 367.5 490 367.5 490 371.5 467 c 128,-1,48
 375.5 444 375.5 444 382.5 417 c 0,49,50
 396.5 359 396.5 359 422 311 c 128,-1,51
 447.5 263 447.5 263 482.5 229 c 128,-1,52
 517.5 195 517.5 195 564 176 c 128,-1,53
 610.5 157 610.5 157 669.5 157 c 0,54,55
 750.5 157 750.5 157 807 187.5 c 128,-1,56
 863.5 218 863.5 218 899.5 268.5 c 128,-1,57
 935.5 319 935.5 319 952.5 384 c 128,-1,58
 969.5 449 969.5 449 969.5 515 c 0,59,60
 969.5 580 969.5 580 950.5 629 c 128,-1,61
 931.5 678 931.5 678 896.5 710 c 128,-1,62
 861.5 742 861.5 742 813 758.5 c 128,-1,63
 764.5 775 764.5 775 705.5 775 c 0,64,65
 650.5 775 650.5 775 598 762 c 128,-1,66
 545.5 749 545.5 749 500 726 c 128,-1,67
 454.5 703 454.5 703 419.5 673.5 c 128,-1,68
 384.5 644 384.5 644 362.5 611 c 1,44,45
EndSplineSet
EndChar

StartChar: seven
Encoding: 55 55 27
Width: 1331
GlyphClass: 1
Flags: W
LayerCount: 2
Fore
SplineSet
182.5 1536 m 1,0,-1
 1148.5 1536 l 1,1,-1
 1148.5 1403 l 2,2,3
 1148.5 1359 1148.5 1359 1115 1290 c 128,-1,4
 1081.5 1221 1081.5 1221 1030.5 1135 c 128,-1,5
 979.5 1049 979.5 1049 918.5 950 c 128,-1,6
 857.5 851 857.5 851 802.5 747 c 128,-1,7
 747.5 643 747.5 643 707 538.5 c 128,-1,8
 666.5 434 666.5 434 654.5 337 c 0,9,10
 649.5 295 649.5 295 647 250.5 c 128,-1,11
 644.5 206 644.5 206 643 162 c 128,-1,12
 641.5 118 641.5 118 641.5 76 c 2,13,-1
 641.5 0 l 1,14,-1
 431.5 0 l 1,15,16
 431.5 31 431.5 31 432 82.5 c 128,-1,17
 432.5 134 432.5 134 434.5 191.5 c 128,-1,18
 436.5 249 436.5 249 441.5 305 c 128,-1,19
 446.5 361 446.5 361 455.5 401 c 0,20,21
 479.5 511 479.5 511 522.5 617 c 128,-1,22
 565.5 723 565.5 723 617.5 821 c 128,-1,23
 669.5 919 669.5 919 723.5 1006 c 128,-1,24
 777.5 1093 777.5 1093 821.5 1164 c 128,-1,25
 865.5 1235 865.5 1235 894 1288 c 128,-1,26
 922.5 1341 922.5 1341 922.5 1372 c 1,27,-1
 182.5 1372 l 1,28,-1
 182.5 1536 l 1,0,-1
EndSplineSet
EndChar

StartChar: eight
Encoding: 56 56 28
Width: 1331
GlyphClass: 1
Flags: W
LayerCount: 2
Fore
SplineSet
645 1553 m 0,0,1
 738 1553 738 1553 818 1527.5 c 128,-1,2
 898 1502 898 1502 956 1454 c 128,-1,3
 1014 1406 1014 1406 1046.5 1337.5 c 128,-1,4
 1079 1269 1079 1269 1079 1183 c 0,5,6
 1079 1123 1079 1123 1061 1075.5 c 128,-1,7
 1043 1028 1043 1028 1012.5 990.5 c 128,-1,8
 982 953 982 953 941.5 923 c 128,-1,9
 901 893 901 893 856 866 c 1,10,11
 932 832 932 832 992 788.5 c 128,-1,12
 1052 745 1052 745 1093.5 690.5 c 128,-1,13
 1135 636 1135 636 1157 568.5 c 128,-1,14
 1179 501 1179 501 1179 420 c 0,15,16
 1179 306 1179 306 1134 223.5 c 128,-1,17
 1089 141 1089 141 1014.5 87.5 c 128,-1,18
 940 34 940 34 845.5 8.5 c 128,-1,19
 751 -17 751 -17 651 -17 c 0,20,21
 554 -17 554 -17 464 12 c 128,-1,22
 374 41 374 41 305 98 c 128,-1,23
 236 155 236 155 194 239.5 c 128,-1,24
 152 324 152 324 152 434 c 0,25,26
 152 516 152 516 175.5 582.5 c 128,-1,27
 199 649 199 649 240 702.5 c 128,-1,28
 281 756 281 756 337 797.5 c 128,-1,29
 393 839 393 839 459 870 c 1,30,31
 411 900 411 900 369.5 932 c 128,-1,32
 328 964 328 964 296.5 1000 c 128,-1,33
 265 1036 265 1036 247 1078 c 128,-1,34
 229 1120 229 1120 229 1171 c 0,35,36
 229 1270 229 1270 268.5 1342.5 c 128,-1,37
 308 1415 308 1415 369.5 1461.5 c 128,-1,38
 431 1508 431 1508 504 1530.5 c 128,-1,39
 577 1553 577 1553 645 1553 c 0,0,1
634 778 m 1,40,41
 569 750 569 750 517.5 717 c 128,-1,42
 466 684 466 684 429.5 641.5 c 128,-1,43
 393 599 393 599 373 545.5 c 128,-1,44
 353 492 353 492 353 424 c 0,45,46
 353 363 353 363 378 312.5 c 128,-1,47
 403 262 403 262 444.5 225.5 c 128,-1,48
 486 189 486 189 540.5 170 c 128,-1,49
 595 151 595 151 652 151 c 0,50,51
 718 151 718 151 777 168.5 c 128,-1,52
 836 186 836 186 880.5 221 c 128,-1,53
 925 256 925 256 950.5 307 c 128,-1,54
 976 358 976 358 976 425 c 0,55,56
 976 494 976 494 945.5 547.5 c 128,-1,57
 915 601 915 601 866.5 643.5 c 128,-1,58
 818 686 818 686 757 718.5 c 128,-1,59
 696 751 696 751 634 778 c 1,40,41
676 945 m 1,60,61
 770 987 770 987 826 1046.5 c 128,-1,62
 882 1106 882 1106 882 1191 c 0,63,64
 882 1242 882 1242 861 1279 c 128,-1,65
 840 1316 840 1316 808 1339.5 c 128,-1,66
 776 1363 776 1363 737.5 1373.5 c 128,-1,67
 699 1384 699 1384 665 1384 c 0,68,69
 619 1384 619 1384 576 1370.5 c 128,-1,70
 533 1357 533 1357 500 1331.5 c 128,-1,71
 467 1306 467 1306 447 1271 c 128,-1,72
 427 1236 427 1236 427 1195 c 0,73,74
 427 1148 427 1148 447 1111.5 c 128,-1,75
 467 1075 467 1075 501.5 1046 c 128,-1,76
 536 1017 536 1017 581 992.5 c 128,-1,77
 626 968 626 968 676 945 c 1,60,61
EndSplineSet
EndChar

StartChar: nine
Encoding: 57 57 29
Width: 1331
GlyphClass: 1
Flags: W
LayerCount: 2
Fore
SplineSet
893.5 679 m 1,0,1
 833.5 632 833.5 632 772.5 609.5 c 128,-1,2
 711.5 587 711.5 587 634.5 587 c 0,3,4
 534.5 587 534.5 587 447 620 c 128,-1,5
 359.5 653 359.5 653 295 714.5 c 128,-1,6
 230.5 776 230.5 776 194 862.5 c 128,-1,7
 157.5 949 157.5 949 157.5 1056 c 0,8,9
 157.5 1167 157.5 1167 192.5 1258 c 128,-1,10
 227.5 1349 227.5 1349 292.5 1415 c 128,-1,11
 357.5 1481 357.5 1481 450.5 1517 c 128,-1,12
 543.5 1553 543.5 1553 657.5 1553 c 0,13,14
 759.5 1553 759.5 1553 838 1521.5 c 128,-1,15
 916.5 1490 916.5 1490 974 1437.5 c 128,-1,16
 1031.5 1385 1031.5 1385 1070 1317.5 c 128,-1,17
 1108.5 1250 1108.5 1250 1131.5 1177.5 c 128,-1,18
 1154.5 1105 1154.5 1105 1164 1033.5 c 128,-1,19
 1173.5 962 1173.5 962 1173.5 901 c 0,20,21
 1173.5 782 1173.5 782 1149.5 669 c 128,-1,22
 1125.5 556 1125.5 556 1079 455.5 c 128,-1,23
 1032.5 355 1032.5 355 965 270.5 c 128,-1,24
 897.5 186 897.5 186 811 123.5 c 128,-1,25
 724.5 61 724.5 61 620 24.5 c 128,-1,26
 515.5 -12 515.5 -12 394.5 -17 c 1,27,-1
 362.5 154 l 1,28,29
 485.5 160 485.5 160 593.5 212 c 128,-1,30
 701.5 264 701.5 264 784 350.5 c 128,-1,31
 866.5 437 866.5 437 917.5 552.5 c 128,-1,32
 968.5 668 968.5 668 975.5 799 c 1,33,-1
 893.5 679 l 1,0,1
962.5 976 m 1,34,35
 959.5 1053 959.5 1053 941 1125 c 128,-1,36
 922.5 1197 922.5 1197 885.5 1254 c 128,-1,37
 848.5 1311 848.5 1311 794 1345 c 128,-1,38
 739.5 1379 739.5 1379 666.5 1379 c 0,39,40
 596.5 1379 596.5 1379 541 1356.5 c 128,-1,41
 485.5 1334 485.5 1334 446.5 1294 c 128,-1,42
 407.5 1254 407.5 1254 386.5 1198 c 128,-1,43
 365.5 1142 365.5 1142 365.5 1074 c 0,44,45
 365.5 1007 365.5 1007 382.5 950 c 128,-1,46
 399.5 893 399.5 893 434 851 c 128,-1,47
 468.5 809 468.5 809 521 785 c 128,-1,48
 573.5 761 573.5 761 644.5 761 c 0,49,50
 698.5 761 698.5 761 748.5 778.5 c 128,-1,51
 798.5 796 798.5 796 840 825 c 128,-1,52
 881.5 854 881.5 854 913 893 c 128,-1,53
 944.5 932 944.5 932 962.5 976 c 1,34,35
EndSplineSet
EndChar

StartChar: colon
Encoding: 58 58 30
Width: 1331
GlyphClass: 1
Flags: W
LayerCount: 2
Fore
SplineSet
514 136 m 256,0,1
 514 168 514 168 526 195.5 c 128,-1,2
 538 223 538 223 558.5 243.5 c 128,-1,3
 579 264 579 264 606 276 c 128,-1,4
 633 288 633 288 665 288 c 256,5,6
 697 288 697 288 724.5 276 c 128,-1,7
 752 264 752 264 772.5 243.5 c 128,-1,8
 793 223 793 223 805 195.5 c 128,-1,9
 817 168 817 168 817 136 c 256,10,11
 817 104 817 104 805 76 c 128,-1,12
 793 48 793 48 772.5 27.5 c 128,-1,13
 752 7 752 7 725 -5 c 128,-1,14
 698 -17 698 -17 667 -17 c 0,15,16
 635 -17 635 -17 607 -5 c 128,-1,17
 579 7 579 7 558.5 27.5 c 128,-1,18
 538 48 538 48 526 76 c 128,-1,19
 514 104 514 104 514 136 c 256,0,1
514 663 m 256,20,21
 514 695 514 695 526 722.5 c 128,-1,22
 538 750 538 750 558.5 770.5 c 128,-1,23
 579 791 579 791 606 802.5 c 128,-1,24
 633 814 633 814 665 814 c 256,25,26
 697 814 697 814 724.5 802.5 c 128,-1,27
 752 791 752 791 772.5 770.5 c 128,-1,28
 793 750 793 750 805 722 c 128,-1,29
 817 694 817 694 817 663 c 256,30,31
 817 631 817 631 805 602.5 c 128,-1,32
 793 574 793 574 772.5 554 c 128,-1,33
 752 534 752 534 725 521.5 c 128,-1,34
 698 509 698 509 667 509 c 0,35,36
 635 509 635 509 607 521.5 c 128,-1,37
 579 534 579 534 558.5 554 c 128,-1,38
 538 574 538 574 526 602.5 c 128,-1,39
 514 631 514 631 514 663 c 256,20,21
EndSplineSet
EndChar

StartChar: semicolon
Encoding: 59 59 31
Width: 1331
GlyphClass: 1
Flags: W
LayerCount: 2
Fore
SplineSet
514 656 m 256,0,1
 514 688 514 688 526 715.5 c 128,-1,2
 538 743 538 743 558.5 763.5 c 128,-1,3
 579 784 579 784 606 796 c 128,-1,4
 633 808 633 808 665 808 c 256,5,6
 697 808 697 808 724.5 796 c 128,-1,7
 752 784 752 784 772.5 763.5 c 128,-1,8
 793 743 793 743 805 715.5 c 128,-1,9
 817 688 817 688 817 656 c 256,10,11
 817 624 817 624 805 596 c 128,-1,12
 793 568 793 568 772.5 547.5 c 128,-1,13
 752 527 752 527 725 515 c 128,-1,14
 698 503 698 503 667 503 c 0,15,16
 635 503 635 503 607 515 c 128,-1,17
 579 527 579 527 558.5 547.5 c 128,-1,18
 538 568 538 568 526 596 c 128,-1,19
 514 624 514 624 514 656 c 256,0,1
514 130 m 0,20,21
 514 160 514 160 525.5 187 c 128,-1,22
 537 214 537 214 558 233.5 c 128,-1,23
 579 253 579 253 606.5 265.5 c 128,-1,24
 634 278 634 278 665 278 c 0,25,26
 695 278 695 278 722 267 c 128,-1,27
 749 256 749 256 770 235.5 c 128,-1,28
 791 215 791 215 804 184 c 128,-1,29
 817 153 817 153 817 113 c 0,30,31
 817 59 817 59 810 8 c 128,-1,32
 803 -43 803 -43 782 -95 c 128,-1,33
 761 -147 761 -147 722.5 -201.5 c 128,-1,34
 684 -256 684 -256 620 -314 c 1,35,-1
 567 -291 l 1,36,37
 591 -246 591 -246 609 -198 c 0,38,39
 624 -158 624 -158 637 -110 c 128,-1,40
 650 -62 650 -62 650 -17 c 1,41,42
 624 -16 624 -16 599.5 -6 c 128,-1,43
 575 4 575 4 555.5 22 c 128,-1,44
 536 40 536 40 525 67.5 c 128,-1,45
 514 95 514 95 514 130 c 0,20,21
EndSplineSet
EndChar

StartChar: less
Encoding: 60 60 32
Width: 1331
GlyphClass: 1
Flags: W
LayerCount: 2
Fore
SplineSet
1126 1240 m 1,0,-1
 1126 1061 l 1,1,-1
 423 686 l 1,2,-1
 343 666 l 1,3,-1
 422 645 l 1,4,-1
 1126 272 l 1,5,-1
 1126 93 l 1,6,-1
 205 561 l 1,7,-1
 205 775 l 1,8,-1
 1126 1240 l 1,0,-1
EndSplineSet
EndChar

StartChar: equal
Encoding: 61 61 33
Width: 1331
GlyphClass: 1
Flags: W
LayerCount: 2
Fore
SplineSet
256 816 m 5,0,-1
 1075 816 l 5,1,-1
 1075 672 l 5,2,-1
 256 672 l 5,3,-1
 256 816 l 5,0,-1
256 443 m 5,4,-1
 1075 443 l 5,5,-1
 1075 299 l 5,6,-1
 256 299 l 5,7,-1
 256 443 l 5,4,-1
EndSplineSet
EndChar

StartChar: greater
Encoding: 62 62 34
Width: 1331
GlyphClass: 1
Flags: W
LayerCount: 2
Fore
SplineSet
1126 775 m 1,0,-1
 1126 561 l 1,1,-1
 205 93 l 1,2,-1
 205 272 l 1,3,-1
 909 645 l 1,4,-1
 988 666 l 1,5,-1
 908 686 l 1,6,-1
 205 1061 l 1,7,-1
 205 1240 l 1,8,-1
 1126 775 l 1,0,-1
EndSplineSet
EndChar

StartChar: question
Encoding: 63 63 35
Width: 1331
GlyphClass: 1
Flags: W
LayerCount: 2
Fore
SplineSet
1122.5 1171 m 0,0,1
 1122.5 1106 1122.5 1106 1105 1055.5 c 128,-1,2
 1087.5 1005 1087.5 1005 1059.5 963 c 128,-1,3
 1031.5 921 1031.5 921 995 885 c 128,-1,4
 958.5 849 958.5 849 920 814.5 c 128,-1,5
 881.5 780 881.5 780 845.5 744.5 c 128,-1,6
 809.5 709 809.5 709 781 667.5 c 128,-1,7
 752.5 626 752.5 626 735.5 575 c 128,-1,8
 718.5 524 718.5 524 718.5 461 c 1,9,-1
 502.5 439 l 1,10,11
 502.5 530 502.5 530 520 600 c 128,-1,12
 537.5 670 537.5 670 566 723.5 c 128,-1,13
 594.5 777 594.5 777 630.5 818.5 c 128,-1,14
 666.5 860 666.5 860 705 894.5 c 128,-1,15
 743.5 929 743.5 929 780 959.5 c 128,-1,16
 816.5 990 816.5 990 844.5 1023 c 128,-1,17
 872.5 1056 872.5 1056 890 1094 c 128,-1,18
 907.5 1132 907.5 1132 907.5 1180 c 0,19,20
 907.5 1233 907.5 1233 887 1272 c 128,-1,21
 866.5 1311 866.5 1311 831 1335.5 c 128,-1,22
 795.5 1360 795.5 1360 748 1371.5 c 128,-1,23
 700.5 1383 700.5 1383 646.5 1383 c 0,24,25
 607.5 1383 607.5 1383 566 1372 c 128,-1,26
 524.5 1361 524.5 1361 485 1339.5 c 128,-1,27
 445.5 1318 445.5 1318 409 1287 c 128,-1,28
 372.5 1256 372.5 1256 344.5 1219 c 1,29,-1
 208.5 1331 l 1,30,31
 258.5 1399 258.5 1399 317.5 1442.5 c 128,-1,32
 376.5 1486 376.5 1486 437 1510.5 c 128,-1,33
 497.5 1535 497.5 1535 557.5 1544 c 128,-1,34
 617.5 1553 617.5 1553 671.5 1553 c 0,35,36
 758.5 1553 758.5 1553 839.5 1530 c 128,-1,37
 920.5 1507 920.5 1507 983.5 1460.5 c 128,-1,38
 1046.5 1414 1046.5 1414 1084.5 1341.5 c 128,-1,39
 1122.5 1269 1122.5 1269 1122.5 1171 c 0,0,1
485.5 109 m 256,40,41
 485.5 135 485.5 135 495.5 157 c 128,-1,42
 505.5 179 505.5 179 522 196 c 128,-1,43
 538.5 213 538.5 213 561 222.5 c 128,-1,44
 583.5 232 583.5 232 609.5 232 c 256,45,46
 635.5 232 635.5 232 658 222.5 c 128,-1,47
 680.5 213 680.5 213 697 196 c 128,-1,48
 713.5 179 713.5 179 723.5 156.5 c 128,-1,49
 733.5 134 733.5 134 733.5 109 c 256,50,51
 733.5 83 733.5 83 723.5 60 c 128,-1,52
 713.5 37 713.5 37 697.5 20 c 128,-1,53
 681.5 3 681.5 3 659 -7 c 128,-1,54
 636.5 -17 636.5 -17 610.5 -17 c 0,55,56
 583.5 -17 583.5 -17 561 -7 c 128,-1,57
 538.5 3 538.5 3 522 20 c 128,-1,58
 505.5 37 505.5 37 495.5 60 c 128,-1,59
 485.5 83 485.5 83 485.5 109 c 256,40,41
EndSplineSet
EndChar

StartChar: at
Encoding: 64 64 36
Width: 1331
GlyphClass: 1
Flags: W
LayerCount: 2
Fore
SplineSet
667 1522 m 0,0,1
 763 1522 763 1522 841 1488 c 128,-1,2
 919 1454 919 1454 979 1393 c 128,-1,3
 1039 1332 1039 1332 1082.5 1246.5 c 128,-1,4
 1126 1161 1126 1161 1154 1058 c 128,-1,5
 1182 955 1182 955 1195 837 c 128,-1,6
 1208 719 1208 719 1208 592 c 0,7,8
 1208 469 1208 469 1200 356 c 128,-1,9
 1192 243 1192 243 1166.5 156 c 128,-1,10
 1141 69 1141 69 1091.5 17 c 128,-1,11
 1042 -35 1042 -35 962 -35 c 0,12,13
 928 -35 928 -35 895 -24.5 c 128,-1,14
 862 -14 862 -14 835 5 c 128,-1,15
 808 24 808 24 788.5 50.5 c 128,-1,16
 769 77 769 77 761 111 c 1,17,-1
 722 8 l 1,18,19
 694 -18 694 -18 647 -17 c 256,20,21
 600 -17 600 -17 556.5 6.5 c 128,-1,22
 513 30 513 30 479 75.5 c 128,-1,23
 445 121 445 121 425.5 188.5 c 128,-1,24
 406 256 406 256 406 345 c 0,25,26
 406 437 406 437 425.5 506 c 128,-1,27
 445 575 445 575 479.5 621 c 128,-1,28
 514 667 514 667 559 689.5 c 128,-1,29
 604 712 604 712 655 712 c 0,30,31
 689 712 689 712 709.5 705.5 c 128,-1,32
 730 699 730 699 741 691 c 0,33,34
 753 682 753 682 760 671 c 1,35,-1
 760 707 l 2,36,37
 760 763 760 763 758.5 803.5 c 128,-1,38
 757 844 757 844 748.5 870 c 128,-1,39
 740 896 740 896 723 909 c 128,-1,40
 706 922 706 922 673 922 c 256,41,42
 640 922 640 922 609.5 914.5 c 128,-1,43
 579 907 579 907 555 898 c 128,-1,44
 531 889 531 889 517 882 c 2,45,-1
 504 874 l 1,46,-1
 504 1005 l 1,47,48
 521 1020 521 1020 547 1032 c 0,49,50
 569 1043 569 1043 601 1052 c 128,-1,51
 633 1061 633 1061 679 1061 c 0,52,53
 766 1061 766 1061 813 1038 c 128,-1,54
 860 1015 860 1015 882 969 c 128,-1,55
 904 923 904 923 907.5 853.5 c 128,-1,56
 911 784 911 784 911 692 c 2,57,-1
 911 178 l 2,58,59
 911 146 911 146 923 124 c 128,-1,60
 935 102 935 102 969 102 c 0,61,62
 989 102 989 102 1003.5 127.5 c 128,-1,63
 1018 153 1018 153 1027.5 191.5 c 128,-1,64
 1037 230 1037 230 1043 278.5 c 128,-1,65
 1049 327 1049 327 1051.5 372.5 c 128,-1,66
 1054 418 1054 418 1054.5 456 c 128,-1,67
 1055 494 1055 494 1055 513 c 0,68,69
 1055 688 1055 688 1037 842.5 c 128,-1,70
 1019 997 1019 997 974.5 1112.5 c 128,-1,71
 930 1228 930 1228 854 1295 c 128,-1,72
 778 1362 778 1362 663 1362 c 0,73,74
 610 1362 610 1362 561 1333 c 128,-1,75
 512 1304 512 1304 469.5 1251.5 c 128,-1,76
 427 1199 427 1199 392.5 1127.5 c 128,-1,77
 358 1056 358 1056 333.5 971 c 128,-1,78
 309 886 309 886 296 791 c 128,-1,79
 283 696 283 696 283 598 c 0,80,81
 283 493 283 493 291.5 388 c 128,-1,82
 300 283 300 283 319 187.5 c 128,-1,83
 338 92 338 92 367.5 10 c 128,-1,84
 397 -72 397 -72 440.5 -131.5 c 128,-1,85
 484 -191 484 -191 541 -225.5 c 128,-1,86
 598 -260 598 -260 671 -260 c 0,87,88
 702 -260 702 -260 731 -252.5 c 128,-1,89
 760 -245 760 -245 784.5 -232.5 c 128,-1,90
 809 -220 809 -220 828.5 -205.5 c 128,-1,91
 848 -191 848 -191 860 -177 c 1,92,-1
 910 -330 l 1,93,94
 855 -376 855 -376 795.5 -398 c 128,-1,95
 736 -420 736 -420 667 -420 c 0,96,97
 567 -420 567 -420 488 -384 c 128,-1,98
 409 -348 409 -348 348.5 -283.5 c 128,-1,99
 288 -219 288 -219 245 -129.5 c 128,-1,100
 202 -40 202 -40 174.5 68 c 128,-1,101
 147 176 147 176 135 299 c 128,-1,102
 123 422 123 422 123 553 c 0,103,104
 123 687 123 687 138 811 c 128,-1,105
 153 935 153 935 183 1043 c 128,-1,106
 213 1151 213 1151 258.5 1239 c 128,-1,107
 304 1327 304 1327 364.5 1390 c 128,-1,108
 425 1453 425 1453 500.5 1487.5 c 128,-1,109
 576 1522 576 1522 667 1522 c 0,0,1
760 535 m 2,110,111
 759 538 759 538 753 542 c 0,112,113
 748 545 748 545 735.5 547.5 c 128,-1,114
 723 550 723 550 699 550 c 0,115,116
 668 550 668 550 643 538.5 c 128,-1,117
 618 527 618 527 600 502.5 c 128,-1,118
 582 478 582 478 571.5 439 c 128,-1,119
 561 400 561 400 561 345 c 0,120,121
 561 300 561 300 567 262.5 c 128,-1,122
 573 225 573 225 586 198.5 c 128,-1,123
 599 172 599 172 618 157 c 128,-1,124
 637 142 637 142 663 142 c 0,125,126
 687 142 687 142 705 162.5 c 128,-1,127
 723 183 723 183 735 208 c 0,128,129
 749 237 749 237 760 273 c 1,130,-1
 760 535 l 2,110,111
EndSplineSet
EndChar

StartChar: A
Encoding: 65 65 37
Width: 1331
GlyphClass: 1
Flags: W
LayerCount: 2
Fore
SplineSet
34.5 0 m 1,0,-1
 517.5 1331 l 1,1,-1
 553.5 1536 l 1,2,-1
 735.5 1556 l 1,3,-1
 1296.5 0 l 1,4,-1
 1092.5 0 l 1,5,-1
 940.5 461 l 1,6,-1
 392.5 461 l 1,7,-1
 222.5 0 l 1,8,-1
 34.5 0 l 1,0,-1
661.5 1434 m 1,9,-1
 615.5 1106 l 1,10,-1
 442.5 614 l 1,11,-1
 890.5 614 l 1,12,-1
 708.5 1106 l 1,13,-1
 661.5 1434 l 1,9,-1
EndSplineSet
EndChar

StartChar: B
Encoding: 66 66 38
Width: 1331
GlyphClass: 1
Flags: W
LayerCount: 2
Fore
SplineSet
216.5 0 m 1,0,-1
 216.5 1321 l 1,1,-1
 185.5 1526 l 1,2,3
 246.5 1534 246.5 1534 312 1540 c 128,-1,4
 377.5 1546 377.5 1546 443.5 1546 c 0,5,6
 562.5 1546 562.5 1546 670 1531.5 c 128,-1,7
 777.5 1517 777.5 1517 859 1478 c 128,-1,8
 940.5 1439 940.5 1439 988.5 1371 c 128,-1,9
 1036.5 1303 1036.5 1303 1036.5 1197 c 0,10,11
 1036.5 1085 1036.5 1085 988.5 1004.5 c 128,-1,12
 940.5 924 940.5 924 851.5 881 c 1,13,-1
 693.5 836 l 1,14,-1
 844.5 821 l 1,15,16
 906.5 803 906.5 803 962 773.5 c 128,-1,17
 1017.5 744 1017.5 744 1058 702 c 128,-1,18
 1098.5 660 1098.5 660 1122 603 c 128,-1,19
 1145.5 546 1145.5 546 1145.5 471 c 0,20,21
 1145.5 384 1145.5 384 1122.5 315.5 c 128,-1,22
 1099.5 247 1099.5 247 1059.5 194.5 c 128,-1,23
 1019.5 142 1019.5 142 966 105 c 128,-1,24
 912.5 68 912.5 68 852 45 c 128,-1,25
 791.5 22 791.5 22 725.5 11 c 128,-1,26
 659.5 0 659.5 0 595.5 0 c 2,27,-1
 216.5 0 l 1,0,-1
405.5 164 m 1,28,-1
 518.5 164 l 2,29,30
 619.5 164 619.5 164 699 179 c 128,-1,31
 778.5 194 778.5 194 833.5 228 c 128,-1,32
 888.5 262 888.5 262 917 319 c 128,-1,33
 945.5 376 945.5 376 945.5 461 c 0,34,35
 945.5 538 945.5 538 919 592 c 128,-1,36
 892.5 646 892.5 646 844 681 c 128,-1,37
 795.5 716 795.5 716 726.5 732 c 128,-1,38
 657.5 748 657.5 748 574.5 748 c 2,39,-1
 405.5 748 l 1,40,-1
 405.5 164 l 1,28,-1
405.5 1175 m 1,41,-1
 405.5 906 l 1,42,-1
 513.5 906 l 2,43,44
 575.5 909 575.5 909 636.5 925.5 c 128,-1,45
 697.5 942 697.5 942 745.5 974.5 c 128,-1,46
 793.5 1007 793.5 1007 822.5 1056.5 c 128,-1,47
 851.5 1106 851.5 1106 851.5 1176 c 0,48,49
 851.5 1244 851.5 1244 820 1288 c 128,-1,50
 788.5 1332 788.5 1332 739.5 1357.5 c 128,-1,51
 690.5 1383 690.5 1383 629.5 1393.5 c 128,-1,52
 568.5 1404 568.5 1404 510.5 1404 c 0,53,54
 475.5 1404 475.5 1404 438 1401.5 c 128,-1,55
 400.5 1399 400.5 1399 369.5 1393 c 1,56,-1
 405.5 1175 l 1,41,-1
EndSplineSet
EndChar

StartChar: C
Encoding: 67 67 39
Width: 1331
GlyphClass: 1
Flags: W
LayerCount: 2
Fore
SplineSet
1202 106 m 1,0,1
 1160 72 1160 72 1117 49 c 128,-1,2
 1074 26 1074 26 1026.5 11 c 128,-1,3
 979 -4 979 -4 927 -10.5 c 128,-1,4
 875 -17 875 -17 814 -17 c 0,5,6
 716 -17 716 -17 627 12 c 128,-1,7
 538 41 538 41 461.5 93.5 c 128,-1,8
 385 146 385 146 324 220 c 128,-1,9
 263 294 263 294 220 383.5 c 128,-1,10
 177 473 177 473 153 575.5 c 128,-1,11
 129 678 129 678 129 788 c 0,12,13
 129 943 129 943 173 1082 c 128,-1,14
 217 1221 217 1221 304.5 1326 c 128,-1,15
 392 1431 392 1431 520.5 1492 c 128,-1,16
 649 1553 649 1553 818 1553 c 0,17,18
 936 1553 936 1553 1030.5 1516 c 128,-1,19
 1125 1479 1125 1479 1198 1408 c 1,20,-1
 1106 1298 l 1,21,22
 1081 1314 1081 1314 1053.5 1329.5 c 128,-1,23
 1026 1345 1026 1345 993 1356 c 128,-1,24
 960 1367 960 1367 920.5 1373.5 c 128,-1,25
 881 1380 881 1380 834 1380 c 0,26,27
 709 1380 709 1380 616.5 1333 c 128,-1,28
 524 1286 524 1286 462.5 1205.5 c 128,-1,29
 401 1125 401 1125 370.5 1018 c 128,-1,30
 340 911 340 911 340 792 c 0,31,32
 340 717 340 717 355.5 641 c 128,-1,33
 371 565 371 565 400 494.5 c 128,-1,34
 429 424 429 424 472 362.5 c 128,-1,35
 515 301 515 301 571 255 c 128,-1,36
 627 209 627 209 694.5 183 c 128,-1,37
 762 157 762 157 841 157 c 0,38,39
 887 157 887 157 922 161 c 128,-1,40
 957 165 957 165 988 174 c 128,-1,41
 1019 183 1019 183 1051 198 c 128,-1,42
 1083 213 1083 213 1123 236 c 1,43,-1
 1202 106 l 1,0,1
EndSplineSet
EndChar

StartChar: D
Encoding: 68 68 40
Width: 1331
GlyphClass: 1
Flags: W
LayerCount: 2
Fore
SplineSet
128 1536 m 1,0,1
 160 1539 160 1539 201 1541 c 128,-1,2
 242 1543 242 1543 285 1544.5 c 128,-1,3
 328 1546 328 1546 370 1546.5 c 128,-1,4
 412 1547 412 1547 446 1547 c 0,5,6
 609 1547 609 1547 747.5 1507 c 128,-1,7
 886 1467 886 1467 987.5 1380 c 128,-1,8
 1089 1293 1089 1293 1146 1157 c 128,-1,9
 1203 1021 1203 1021 1203 829 c 0,10,11
 1203 679 1203 679 1174.5 560 c 128,-1,12
 1146 441 1146 441 1095.5 349 c 128,-1,13
 1045 257 1045 257 973.5 191 c 128,-1,14
 902 125 902 125 816.5 82.5 c 128,-1,15
 731 40 731 40 635 20 c 128,-1,16
 539 0 539 0 436 0 c 2,17,-1
 159 0 l 1,18,-1
 159 1321 l 1,19,-1
 128 1536 l 1,0,1
353 1178 m 1,20,-1
 353 164 l 1,21,-1
 374 164 l 2,22,23
 506 164 506 164 603.5 194.5 c 128,-1,24
 701 225 701 225 769 276 c 128,-1,25
 837 327 837 327 880 393 c 128,-1,26
 923 459 923 459 947 529.5 c 128,-1,27
 971 600 971 600 979.5 669.5 c 128,-1,28
 988 739 988 739 988 799 c 0,29,30
 988 886 988 886 980 963.5 c 128,-1,31
 972 1041 972 1041 949.5 1106.5 c 128,-1,32
 927 1172 927 1172 888 1224.5 c 128,-1,33
 849 1277 849 1277 787.5 1314 c 128,-1,34
 726 1351 726 1351 639.5 1371 c 128,-1,35
 553 1391 553 1391 436 1391 c 0,36,37
 420 1391 420 1391 401.5 1390 c 128,-1,38
 383 1389 383 1389 367 1386 c 2,39,-1
 328 1382 l 1,40,-1
 353 1178 l 1,20,-1
EndSplineSet
EndChar

StartChar: E
Encoding: 69 69 41
Width: 1331
GlyphClass: 1
Flags: W
LayerCount: 2
Fore
SplineSet
1154.5 164 m 1,0,-1
 1134.5 0 l 1,1,-1
 192.5 0 l 1,2,-1
 207.5 205 l 1,3,-1
 207.5 1321 l 1,4,-1
 176.5 1536 l 1,5,-1
 1118.5 1536 l 1,6,-1
 1118.5 1372 l 1,7,-1
 376.5 1372 l 1,8,-1
 396.5 1178 l 1,9,-1
 396.5 906 l 1,10,-1
 1047.5 906 l 1,11,-1
 1047.5 758 l 1,12,-1
 396.5 758 l 1,13,-1
 396.5 348 l 1,14,-1
 386.5 164 l 1,15,-1
 1154.5 164 l 1,0,-1
EndSplineSet
EndChar

StartChar: F
Encoding: 70 70 42
Width: 1331
GlyphClass: 1
Flags: W
LayerCount: 2
Fore
SplineSet
406.5 0 m 1,0,-1
 212.5 0 l 1,1,-1
 212.5 1321 l 1,2,-1
 181.5 1536 l 1,3,-1
 1149.5 1536 l 1,4,-1
 1128.5 1372 l 1,5,-1
 386.5 1372 l 1,6,-1
 406.5 1178 l 1,7,-1
 406.5 906 l 1,8,-1
 1041.5 906 l 1,9,-1
 1041.5 758 l 1,10,-1
 406.5 758 l 1,11,-1
 406.5 0 l 1,0,-1
EndSplineSet
EndChar

StartChar: G
Encoding: 71 71 43
Width: 1331
GlyphClass: 1
Flags: W
LayerCount: 2
Fore
SplineSet
1209.5 202 m 1,0,1
 1167.5 156 1167.5 156 1115 115.5 c 128,-1,2
 1062.5 75 1062.5 75 1000 45.5 c 128,-1,3
 937.5 16 937.5 16 864 -0.5 c 128,-1,4
 790.5 -17 790.5 -17 705.5 -17 c 0,5,6
 558.5 -17 558.5 -17 448 47 c 128,-1,7
 337.5 111 337.5 111 265.5 220.5 c 128,-1,8
 193.5 330 193.5 330 157.5 476.5 c 128,-1,9
 121.5 623 121.5 623 121.5 788 c 0,10,11
 121.5 891 121.5 891 135.5 988 c 128,-1,12
 149.5 1085 149.5 1085 179 1170 c 128,-1,13
 208.5 1255 208.5 1255 256 1325.5 c 128,-1,14
 303.5 1396 303.5 1396 371.5 1446.5 c 128,-1,15
 439.5 1497 439.5 1497 528 1525 c 128,-1,16
 616.5 1553 616.5 1553 728.5 1553 c 0,17,18
 846.5 1553 846.5 1553 951.5 1516 c 128,-1,19
 1056.5 1479 1056.5 1479 1130.5 1408 c 1,20,-1
 1038.5 1298 l 1,21,22
 989.5 1331 989.5 1331 915.5 1355.5 c 128,-1,23
 841.5 1380 841.5 1380 745.5 1380 c 0,24,25
 662.5 1380 662.5 1380 600 1358.5 c 128,-1,26
 537.5 1337 537.5 1337 492 1298.5 c 128,-1,27
 446.5 1260 446.5 1260 416.5 1206 c 128,-1,28
 386.5 1152 386.5 1152 368.5 1086.5 c 128,-1,29
 350.5 1021 350.5 1021 343.5 946 c 128,-1,30
 336.5 871 336.5 871 336.5 792 c 0,31,32
 336.5 721 336.5 721 344 646.5 c 128,-1,33
 351.5 572 351.5 572 369 501.5 c 128,-1,34
 386.5 431 386.5 431 416.5 368.5 c 128,-1,35
 446.5 306 446.5 306 490 259 c 128,-1,36
 533.5 212 533.5 212 593.5 184.5 c 128,-1,37
 653.5 157 653.5 157 731.5 157 c 0,38,39
 777.5 157 777.5 157 823 167 c 128,-1,40
 868.5 177 868.5 177 908 193.5 c 128,-1,41
 947.5 210 947.5 210 979 230 c 128,-1,42
 1010.5 250 1010.5 250 1028.5 269 c 1,43,-1
 1028.5 627 l 1,44,-1
 707.5 647 l 1,45,-1
 707.5 780 l 1,46,-1
 1209.5 780 l 1,47,-1
 1209.5 202 l 1,0,1
EndSplineSet
EndChar

StartChar: H
Encoding: 72 72 44
Width: 1331
GlyphClass: 1
Flags: W
LayerCount: 2
Fore
SplineSet
971.5 0 m 1,0,-1
 971.5 742 l 1,1,-1
 389.5 742 l 1,2,-1
 389.5 0 l 1,3,-1
 195.5 0 l 1,4,-1
 195.5 1321 l 1,5,-1
 165.5 1536 l 1,6,-1
 389.5 1556 l 1,7,-1
 389.5 906 l 1,8,-1
 971.5 906 l 1,9,-1
 971.5 1536 l 1,10,-1
 1165.5 1556 l 1,11,-1
 1165.5 0 l 1,12,-1
 971.5 0 l 1,0,-1
EndSplineSet
EndChar

StartChar: I
Encoding: 73 73 45
Width: 1331
GlyphClass: 1
Flags: W
LayerCount: 2
Fore
SplineSet
205 1536 m 1,0,-1
 1126 1536 l 1,1,-1
 1126 1372 l 1,2,-1
 760 1372 l 1,3,-1
 760 164 l 1,4,-1
 1147 164 l 1,5,-1
 1126 0 l 1,6,-1
 205 0 l 1,7,-1
 205 164 l 1,8,-1
 569 164 l 1,9,-1
 569 1372 l 1,10,-1
 184 1372 l 1,11,-1
 205 1536 l 1,0,-1
EndSplineSet
EndChar

StartChar: J
Encoding: 74 74 46
Width: 1331
GlyphClass: 1
Flags: W
LayerCount: 2
Fore
SplineSet
383.5 1536 m 1,0,-1
 1100.5 1536 l 1,1,-1
 1100.5 440 l 2,2,3
 1100.5 341 1100.5 341 1076 260 c 128,-1,4
 1051.5 179 1051.5 179 998.5 115 c 256,5,6
 945.5 50 945.5 50 859 16.5 c 128,-1,7
 772.5 -17 772.5 -17 648.5 -17 c 0,8,9
 568.5 -17 568.5 -17 505.5 1.5 c 128,-1,10
 442.5 20 442.5 20 392 50.5 c 128,-1,11
 341.5 81 341.5 81 302.5 117 c 128,-1,12
 263.5 153 263.5 153 230.5 186 c 1,13,-1
 334.5 307 l 1,14,15
 344.5 297 344.5 297 372.5 274 c 128,-1,16
 400.5 251 400.5 251 440.5 228 c 128,-1,17
 480.5 205 480.5 205 530.5 187.5 c 128,-1,18
 580.5 170 580.5 170 637.5 170 c 0,19,20
 769.5 170 769.5 170 843 244.5 c 128,-1,21
 916.5 319 916.5 319 916.5 481 c 2,22,-1
 916.5 1176 l 1,23,-1
 936.5 1372 l 1,24,-1
 404.5 1372 l 1,25,-1
 383.5 1536 l 1,0,-1
EndSplineSet
EndChar

StartChar: K
Encoding: 75 75 47
Width: 1331
GlyphClass: 1
Flags: W
LayerCount: 2
Fore
SplineSet
176 0 m 1,0,-1
 176 1321 l 1,1,-1
 145 1536 l 1,2,-1
 372 1556 l 1,3,-1
 372 877 l 1,4,-1
 931 1536 l 1,5,-1
 1158 1536 l 1,6,-1
 614 886 l 1,7,-1
 441 821 l 1,8,-1
 619 762 l 1,9,-1
 1186 0 l 1,10,-1
 943 0 l 1,11,-1
 372 764 l 1,12,-1
 372 0 l 1,13,-1
 176 0 l 1,0,-1
EndSplineSet
EndChar

StartChar: L
Encoding: 76 76 48
Width: 1331
GlyphClass: 1
Flags: W
LayerCount: 2
Fore
SplineSet
396.5 164 m 1,0,-1
 1144.5 164 l 1,1,-1
 1123.5 0 l 1,2,-1
 197.5 0 l 1,3,-1
 217.5 205 l 1,4,-1
 217.5 1321 l 1,5,-1
 186.5 1536 l 1,6,-1
 406.5 1556 l 1,7,-1
 406.5 348 l 1,8,-1
 396.5 164 l 1,0,-1
EndSplineSet
EndChar

StartChar: M
Encoding: 77 77 49
Width: 1331
GlyphClass: 1
Flags: W
LayerCount: 2
Fore
SplineSet
1009.5 0 m 1,0,-1
 1009.5 923 l 1,1,-1
 1070.5 1433 l 1,2,-1
 1065.5 1434 l 1,3,-1
 907.5 943 l 1,4,-1
 730.5 512 l 1,5,-1
 627.5 512 l 1,6,-1
 447.5 942 l 1,7,-1
 279.5 1434 l 1,8,-1
 273.5 1433 l 1,9,-1
 349.5 923 l 1,10,-1
 349.5 0 l 1,11,-1
 165.5 0 l 1,12,-1
 165.5 1321 l 1,13,-1
 136.5 1536 l 1,14,-1
 355.5 1556 l 1,15,-1
 607.5 973 l 1,16,-1
 680.5 717 l 1,17,-1
 750.5 973 l 1,18,-1
 982.5 1536 l 1,19,-1
 1194.5 1556 l 1,20,-1
 1194.5 0 l 1,21,-1
 1009.5 0 l 1,0,-1
EndSplineSet
EndChar

StartChar: N
Encoding: 78 78 50
Width: 1331
GlyphClass: 1
Flags: W
LayerCount: 2
Fore
SplineSet
993.5 0 m 1,0,-1
 486.5 971 l 1,1,-1
 323.5 1394 l 1,2,-1
 317.5 1393 l 1,3,-1
 383.5 942 l 1,4,-1
 383.5 0 l 1,5,-1
 199.5 0 l 1,6,-1
 199.5 1321 l 1,7,-1
 168.5 1536 l 1,8,-1
 374.5 1556 l 1,9,-1
 882.5 570 l 1,10,-1
 1052.5 143 l 1,11,-1
 1058.5 144 l 1,12,-1
 977.5 594 l 1,13,-1
 977.5 1536 l 1,14,-1
 1162.5 1556 l 1,15,-1
 1162.5 0 l 1,16,-1
 993.5 0 l 1,0,-1
EndSplineSet
EndChar

StartChar: O
Encoding: 79 79 51
Width: 1331
GlyphClass: 1
Flags: W
LayerCount: 2
Fore
SplineSet
666 -17 m 0,0,1
 574 -17 574 -17 496.5 11 c 128,-1,2
 419 39 419 39 356 90.5 c 128,-1,3
 293 142 293 142 246 214 c 128,-1,4
 199 286 199 286 166.5 373.5 c 128,-1,5
 134 461 134 461 118 560.5 c 128,-1,6
 102 660 102 660 102 768 c 256,7,8
 102 876 102 876 117.5 975.5 c 128,-1,9
 133 1075 133 1075 164.5 1162.5 c 128,-1,10
 196 1250 196 1250 242.5 1322 c 128,-1,11
 289 1394 289 1394 351.5 1445.5 c 128,-1,12
 414 1497 414 1497 492.5 1525 c 128,-1,13
 571 1553 571 1553 666 1553 c 0,14,15
 758 1553 758 1553 835 1525 c 128,-1,16
 912 1497 912 1497 975 1445.5 c 128,-1,17
 1038 1394 1038 1394 1085.5 1322 c 128,-1,18
 1133 1250 1133 1250 1165 1162.5 c 128,-1,19
 1197 1075 1197 1075 1213 975.5 c 128,-1,20
 1229 876 1229 876 1229 768 c 256,21,22
 1229 660 1229 660 1213.5 560.5 c 128,-1,23
 1198 461 1198 461 1167 373.5 c 128,-1,24
 1136 286 1136 286 1089 214 c 128,-1,25
 1042 142 1042 142 980 90.5 c 128,-1,26
 918 39 918 39 839 11 c 128,-1,27
 760 -17 760 -17 666 -17 c 0,0,1
1016 736 m 0,28,29
 1016 808 1016 808 1011.5 882.5 c 128,-1,30
 1007 957 1007 957 993 1028.5 c 128,-1,31
 979 1100 979 1100 954.5 1163 c 128,-1,32
 930 1226 930 1226 890.5 1272.5 c 128,-1,33
 851 1319 851 1319 794 1346.5 c 128,-1,34
 737 1374 737 1374 659 1374 c 0,35,36
 585 1374 585 1374 531 1349.5 c 128,-1,37
 477 1325 477 1325 439 1282.5 c 128,-1,38
 401 1240 401 1240 376.5 1183 c 128,-1,39
 352 1126 352 1126 339 1062.5 c 128,-1,40
 326 999 326 999 320.5 932.5 c 128,-1,41
 315 866 315 866 315 804 c 0,42,43
 315 731 315 731 320 655.5 c 128,-1,44
 325 580 325 580 338.5 508.5 c 128,-1,45
 352 437 352 437 376.5 374 c 128,-1,46
 401 311 401 311 441 264 c 128,-1,47
 481 217 481 217 537.5 189.5 c 128,-1,48
 594 162 594 162 672 162 c 0,49,50
 745 162 745 162 798.5 187 c 128,-1,51
 852 212 852 212 890.5 255.5 c 128,-1,52
 929 299 929 299 953.5 356 c 128,-1,53
 978 413 978 413 992 477 c 128,-1,54
 1006 541 1006 541 1011 607.5 c 128,-1,55
 1016 674 1016 674 1016 736 c 0,28,29
EndSplineSet
EndChar

StartChar: P
Encoding: 80 80 52
Width: 1331
GlyphClass: 1
Flags: W
LayerCount: 2
Fore
SplineSet
391.5 0 m 1,0,-1
 196.5 0 l 1,1,-1
 196.5 1321 l 1,2,-1
 160.5 1526 l 1,3,4
 191.5 1531 191.5 1531 233 1535 c 128,-1,5
 274.5 1539 274.5 1539 320.5 1542 c 128,-1,6
 366.5 1545 366.5 1545 413.5 1546.5 c 128,-1,7
 460.5 1548 460.5 1548 500.5 1548 c 0,8,9
 674.5 1548 674.5 1548 801 1517 c 128,-1,10
 927.5 1486 927.5 1486 1009.5 1430 c 128,-1,11
 1091.5 1374 1091.5 1374 1131 1296.5 c 128,-1,12
 1170.5 1219 1170.5 1219 1170.5 1125 c 0,13,14
 1170.5 987 1170.5 987 1121.5 894 c 128,-1,15
 1072.5 801 1072.5 801 975 744 c 128,-1,16
 877.5 687 877.5 687 731 663 c 128,-1,17
 584.5 639 584.5 639 391.5 639 c 1,18,-1
 391.5 0 l 1,0,-1
391.5 1175 m 1,19,-1
 391.5 783 l 1,20,21
 547.5 783 547.5 783 657.5 800.5 c 128,-1,22
 767.5 818 767.5 818 838.5 857.5 c 128,-1,23
 909.5 897 909.5 897 942 961.5 c 128,-1,24
 974.5 1026 974.5 1026 974.5 1121 c 0,25,26
 974.5 1190 974.5 1190 935 1242.5 c 128,-1,27
 895.5 1295 895.5 1295 833.5 1330.5 c 128,-1,28
 771.5 1366 771.5 1366 695.5 1384.5 c 128,-1,29
 619.5 1403 619.5 1403 546.5 1403 c 0,30,31
 529.5 1403 529.5 1403 505.5 1402.5 c 128,-1,32
 481.5 1402 481.5 1402 457 1400.5 c 128,-1,33
 432.5 1399 432.5 1399 409.5 1397 c 128,-1,34
 386.5 1395 386.5 1395 370.5 1392 c 1,35,-1
 391.5 1175 l 1,19,-1
EndSplineSet
EndChar

StartChar: Q
Encoding: 81 81 53
Width: 1331
GlyphClass: 1
Flags: W
LayerCount: 2
Fore
SplineSet
938 322 m 1,0,1
 957 355 957 355 973.5 395 c 128,-1,2
 990 435 990 435 1001 488.5 c 128,-1,3
 1012 542 1012 542 1018 611 c 128,-1,4
 1024 680 1024 680 1024 769 c 0,5,6
 1024 841 1024 841 1017.5 913.5 c 128,-1,7
 1011 986 1011 986 994.5 1054 c 128,-1,8
 978 1122 978 1122 951.5 1181.5 c 128,-1,9
 925 1241 925 1241 884 1284.5 c 128,-1,10
 843 1328 843 1328 787.5 1353.5 c 128,-1,11
 732 1379 732 1379 659 1379 c 0,12,13
 589 1379 589 1379 536.5 1354 c 128,-1,14
 484 1329 484 1329 445.5 1286 c 128,-1,15
 407 1243 407 1243 380 1185.5 c 128,-1,16
 353 1128 353 1128 337 1064 c 128,-1,17
 321 1000 321 1000 314 933 c 128,-1,18
 307 866 307 866 307 804 c 0,19,20
 307 722 307 722 312 643 c 128,-1,21
 317 564 317 564 332 493.5 c 128,-1,22
 347 423 347 423 374 363.5 c 128,-1,23
 401 304 401 304 445.5 260.5 c 128,-1,24
 490 217 490 217 555 192.5 c 128,-1,25
 620 168 620 168 710 167 c 0,26,27
 720 167 720 167 728 169 c 128,-1,28
 736 171 736 171 754 176 c 1,29,30
 727 222 727 222 707 257.5 c 128,-1,31
 687 293 687 293 666.5 317 c 128,-1,32
 646 341 646 341 621.5 353 c 128,-1,33
 597 365 597 365 562 365 c 1,34,-1
 614 512 l 1,35,36
 664 512 664 512 704.5 491 c 128,-1,37
 745 470 745 470 782 428 c 128,-1,38
 819 386 819 386 856 324 c 128,-1,39
 893 262 893 262 938 181 c 1,40,-1
 938 322 l 1,0,1
774 0 m 1,41,42
 740 -8 740 -8 702 -11 c 128,-1,43
 664 -14 664 -14 614 -14 c 0,44,45
 487 -14 487 -14 391.5 50.5 c 128,-1,46
 296 115 296 115 231.5 223.5 c 128,-1,47
 167 332 167 332 134.5 473 c 128,-1,48
 102 614 102 614 102 768 c 0,49,50
 102 876 102 876 117.5 975.5 c 128,-1,51
 133 1075 133 1075 164.5 1162.5 c 128,-1,52
 196 1250 196 1250 242.5 1322 c 128,-1,53
 289 1394 289 1394 351.5 1445.5 c 128,-1,54
 414 1497 414 1497 492.5 1525 c 128,-1,55
 571 1553 571 1553 666 1553 c 0,56,57
 804 1553 804 1553 909.5 1496 c 128,-1,58
 1015 1439 1015 1439 1085.5 1338.5 c 128,-1,59
 1156 1238 1156 1238 1192.5 1100 c 128,-1,60
 1229 962 1229 962 1229 801 c 0,61,62
 1229 703 1229 703 1217.5 605 c 128,-1,63
 1206 507 1206 507 1182 419 c 128,-1,64
 1158 331 1158 331 1119.5 255.5 c 128,-1,65
 1081 180 1081 180 1026 127 c 0,66,67
 1018 119 1018 119 1008.5 110 c 128,-1,68
 999 101 999 101 991 94 c 1,69,70
 1010 61 1010 61 1025.5 43 c 128,-1,71
 1041 25 1041 25 1060.5 15 c 128,-1,72
 1080 5 1080 5 1108 2.5 c 128,-1,73
 1136 0 1136 0 1179 0 c 1,74,-1
 1126 -148 l 1,75,76
 1075 -148 1075 -148 1032.5 -140 c 128,-1,77
 990 -132 990 -132 950.5 -105.5 c 128,-1,78
 911 -79 911 -79 873.5 -28.5 c 128,-1,79
 836 22 836 22 793 104 c 2,80,-1
 774 140 l 1,81,-1
 774 0 l 1,41,42
EndSplineSet
EndChar

StartChar: R
Encoding: 82 82 54
Width: 1331
GlyphClass: 1
Flags: W
LayerCount: 2
Fore
SplineSet
386 629 m 1,0,-1
 386 0 l 1,1,-1
 199 0 l 1,2,-1
 199 1321 l 1,3,-1
 163 1526 l 1,4,5
 232 1534 232 1534 314.5 1541 c 128,-1,6
 397 1548 397 1548 486 1548 c 0,7,8
 615 1548 615 1548 724.5 1521 c 128,-1,9
 834 1494 834 1494 914 1441 c 128,-1,10
 994 1388 994 1388 1039 1308.5 c 128,-1,11
 1084 1229 1084 1229 1084 1125 c 0,12,13
 1084 1017 1084 1017 1047 935.5 c 128,-1,14
 1010 854 1010 854 946.5 796 c 128,-1,15
 883 738 883 738 796 702 c 128,-1,16
 709 666 709 666 610 648 c 1,17,-1
 755 607 l 1,18,-1
 1168 0 l 1,19,-1
 939 0 l 1,20,-1
 527 609 l 2,21,22
 516 623 516 623 501.5 626 c 128,-1,23
 487 629 487 629 479 629 c 2,24,-1
 386 629 l 1,0,-1
386 1175 m 1,25,-1
 386 783 l 1,26,-1
 507 783 l 2,27,28
 600 783 600 783 672 809.5 c 128,-1,29
 744 836 744 836 793 880.5 c 128,-1,30
 842 925 842 925 867.5 983.5 c 128,-1,31
 893 1042 893 1042 893 1109 c 0,32,33
 893 1167 893 1167 877 1212 c 128,-1,34
 861 1257 861 1257 832 1290 c 128,-1,35
 803 1323 803 1323 765 1346 c 128,-1,36
 727 1369 727 1369 684.5 1382.5 c 128,-1,37
 642 1396 642 1396 597.5 1402 c 128,-1,38
 553 1408 553 1408 511 1408 c 0,39,40
 468 1408 468 1408 434 1405.5 c 128,-1,41
 400 1403 400 1403 366 1397 c 1,42,-1
 386 1175 l 1,25,-1
EndSplineSet
EndChar

StartChar: S
Encoding: 83 83 55
Width: 1331
GlyphClass: 1
Flags: W
LayerCount: 2
Fore
SplineSet
185.5 96 m 1,0,-1
 278.5 250 l 1,1,2
 298.5 237 298.5 237 332 220 c 128,-1,3
 365.5 203 365.5 203 406.5 187.5 c 128,-1,4
 447.5 172 447.5 172 493.5 162 c 128,-1,5
 539.5 152 539.5 152 586.5 152 c 0,6,7
 649.5 152 649.5 152 714 167.5 c 128,-1,8
 778.5 183 778.5 183 830 216.5 c 128,-1,9
 881.5 250 881.5 250 913.5 301 c 128,-1,10
 945.5 352 945.5 352 945.5 423 c 0,11,12
 945.5 490 945.5 490 915 540 c 128,-1,13
 884.5 590 884.5 590 834.5 630 c 128,-1,14
 784.5 670 784.5 670 720 702.5 c 128,-1,15
 655.5 735 655.5 735 588.5 768 c 128,-1,16
 521.5 801 521.5 801 456.5 836 c 128,-1,17
 391.5 871 391.5 871 341.5 916.5 c 128,-1,18
 291.5 962 291.5 962 261 1019 c 128,-1,19
 230.5 1076 230.5 1076 230.5 1153 c 0,20,21
 230.5 1252 230.5 1252 272.5 1327 c 128,-1,22
 314.5 1402 314.5 1402 382 1452 c 128,-1,23
 449.5 1502 449.5 1502 535.5 1527.5 c 128,-1,24
 621.5 1553 621.5 1553 709.5 1553 c 0,25,26
 927.5 1553 927.5 1553 1111.5 1431 c 1,27,-1
 1012.5 1305 l 1,28,29
 942.5 1346 942.5 1346 878.5 1365 c 128,-1,30
 814.5 1384 814.5 1384 736.5 1384 c 0,31,32
 681.5 1384 681.5 1384 625.5 1373 c 128,-1,33
 569.5 1362 569.5 1362 525 1337 c 128,-1,34
 480.5 1312 480.5 1312 452 1271.5 c 128,-1,35
 423.5 1231 423.5 1231 423.5 1172 c 0,36,37
 423.5 1115 423.5 1115 455 1073 c 128,-1,38
 486.5 1031 486.5 1031 537 998 c 128,-1,39
 587.5 965 587.5 965 652 935.5 c 128,-1,40
 716.5 906 716.5 906 784.5 875 c 128,-1,41
 852.5 844 852.5 844 917 806.5 c 128,-1,42
 981.5 769 981.5 769 1032.5 718.5 c 128,-1,43
 1083.5 668 1083.5 668 1114.5 599.5 c 128,-1,44
 1145.5 531 1145.5 531 1145.5 439 c 0,45,46
 1145.5 324 1145.5 324 1099 239 c 128,-1,47
 1052.5 154 1052.5 154 976 97 c 128,-1,48
 899.5 40 899.5 40 801.5 11.5 c 128,-1,49
 703.5 -17 703.5 -17 600.5 -17 c 0,50,51
 534.5 -17 534.5 -17 478.5 -9.5 c 128,-1,52
 422.5 -2 422.5 -2 372 12.5 c 128,-1,53
 321.5 27 321.5 27 275.5 47.5 c 128,-1,54
 229.5 68 229.5 68 185.5 96 c 1,0,-1
EndSplineSet
EndChar

StartChar: T
Encoding: 84 84 56
Width: 1331
GlyphClass: 1
Flags: W
LayerCount: 2
Fore
SplineSet
570.5 0 m 1,0,-1
 570.5 1372 l 1,1,-1
 135.5 1372 l 1,2,-1
 135.5 1536 l 1,3,-1
 1195.5 1536 l 1,4,-1
 1195.5 1372 l 1,5,-1
 765.5 1372 l 1,6,-1
 765.5 0 l 1,7,-1
 570.5 0 l 1,0,-1
EndSplineSet
EndChar

StartChar: U
Encoding: 85 85 57
Width: 1331
GlyphClass: 1
Flags: W
LayerCount: 2
Fore
SplineSet
1157 1536 m 1,0,-1
 1157 536 l 2,1,2
 1157 397 1157 397 1123.5 292.5 c 128,-1,3
 1090 188 1090 188 1027 119.5 c 128,-1,4
 964 51 964 51 873 17 c 128,-1,5
 782 -17 782 -17 665 -17 c 0,6,7
 540 -17 540 -17 452.5 26.5 c 128,-1,8
 365 70 365 70 310 149 c 128,-1,9
 255 228 255 228 229.5 340 c 128,-1,10
 204 452 204 452 204 587 c 2,11,-1
 204 1321 l 1,12,-1
 174 1536 l 1,13,-1
 399 1556 l 1,14,-1
 399 567 l 2,15,16
 399 470 399 470 418 393.5 c 128,-1,17
 437 317 437 317 473 264.5 c 128,-1,18
 509 212 509 212 560 184.5 c 128,-1,19
 611 157 611 157 675 157 c 0,20,21
 826 157 826 157 894 246.5 c 128,-1,22
 962 336 962 336 962 516 c 2,23,-1
 962 1536 l 1,24,-1
 1157 1536 l 1,0,-1
EndSplineSet
EndChar

StartChar: V
Encoding: 86 86 58
Width: 1331
GlyphClass: 1
Flags: W
LayerCount: 2
Fore
SplineSet
616 512 m 1,0,-1
 675 143 l 1,1,-1
 714 465 l 1,2,-1
 1031 1536 l 1,3,-1
 1220 1536 l 1,4,-1
 823 184 l 1,5,-1
 797 -20 l 1,6,-1
 563 0 l 1,7,-1
 111 1536 l 1,8,-1
 305 1556 l 1,9,-1
 616 512 l 1,0,-1
EndSplineSet
EndChar

StartChar: W
Encoding: 87 87 59
Width: 1331
GlyphClass: 1
Flags: W
LayerCount: 2
Fore
SplineSet
497 717 m 1,0,-1
 595 1126 l 1,1,-1
 738 1126 l 1,2,-1
 844 717 l 1,3,-1
 916 205 l 1,4,-1
 921 205 l 1,5,-1
 953 676 l 1,6,-1
 1110 1536 l 1,7,-1
 1291 1536 l 1,8,-1
 1013 0 l 1,9,-1
 827 0 l 1,10,-1
 729 461 l 1,11,-1
 669 973 l 1,12,-1
 665 973 l 1,13,-1
 605 461 l 1,14,-1
 505 0 l 1,15,-1
 323 0 l 1,16,-1
 40 1536 l 1,17,-1
 218 1556 l 1,18,-1
 390 676 l 1,19,-1
 422 205 l 1,20,-1
 426 205 l 1,21,-1
 497 717 l 1,0,-1
EndSplineSet
EndChar

StartChar: X
Encoding: 88 88 60
Width: 1331
GlyphClass: 1
Flags: W
LayerCount: 2
Fore
SplineSet
1018 0 m 1,0,-1
 735 531 l 1,1,-1
 656 717 l 1,2,-1
 607 553 l 1,3,-1
 291 0 l 1,4,-1
 88 0 l 1,5,-1
 563 818 l 1,6,-1
 147 1536 l 1,7,-1
 364 1556 l 1,8,-1
 631 1081 l 1,9,-1
 713 881 l 1,10,-1
 749 1044 l 1,11,-1
 1007 1536 l 1,12,-1
 1212 1536 l 1,13,-1
 803 795 l 1,14,-1
 1243 0 l 1,15,-1
 1018 0 l 1,0,-1
EndSplineSet
EndChar

StartChar: Y
Encoding: 89 89 61
Width: 1331
GlyphClass: 1
Flags: W
LayerCount: 2
Fore
SplineSet
728 957 m 1,0,-1
 1022 1536 l 1,1,-1
 1219 1536 l 1,2,-1
 774 662 l 1,3,-1
 774 0 l 1,4,-1
 559 0 l 1,5,-1
 559 660 l 1,6,-1
 112 1536 l 1,7,-1
 321 1556 l 1,8,-1
 616 977 l 1,9,-1
 697 722 l 1,10,-1
 728 957 l 1,0,-1
EndSplineSet
EndChar

StartChar: Z
Encoding: 90 90 62
Width: 1331
GlyphClass: 1
Flags: W
LayerCount: 2
Fore
SplineSet
1136 164 m 1,0,-1
 1157 0 l 1,1,-1
 194 0 l 1,2,-1
 174 51 l 1,3,-1
 752 1229 l 1,4,-1
 941 1413 l 1,5,-1
 669 1372 l 1,6,-1
 265 1372 l 1,7,-1
 245 1536 l 1,8,-1
 1090 1536 l 1,9,-1
 1106 1513 l 1,10,-1
 521 307 l 1,11,-1
 339 123 l 1,12,-1
 610 164 l 1,13,-1
 1136 164 l 1,0,-1
EndSplineSet
EndChar

StartChar: bracketleft
Encoding: 91 91 63
Width: 1331
GlyphClass: 1
Flags: W
LayerCount: 2
Fore
SplineSet
395 1352 m 1,0,-1
 373 1556 l 1,1,-1
 1090 1556 l 1,2,-1
 1090 1403 l 1,3,-1
 577 1403 l 1,4,-1
 598 1198 l 1,5,-1
 598 -72 l 1,6,-1
 577 -276 l 1,7,-1
 1090 -276 l 1,8,-1
 1090 -430 l 1,9,-1
 373 -430 l 1,10,-1
 395 -225 l 1,11,-1
 395 1352 l 1,0,-1
EndSplineSet
EndChar

StartChar: backslash
Encoding: 92 92 64
Width: 1331
GlyphClass: 1
Flags: W
LayerCount: 2
Fore
SplineSet
199.5 1638 m 1,0,-1
 404.5 1638 l 1,1,-1
 1131.5 -102 l 1,2,-1
 916.5 -102 l 1,3,-1
 199.5 1638 l 1,0,-1
EndSplineSet
EndChar

StartChar: bracketright
Encoding: 93 93 65
Width: 1331
GlyphClass: 1
Flags: W
LayerCount: 2
Fore
SplineSet
935.5 -225 m 1,0,-1
 958.5 -430 l 1,1,-1
 240.5 -430 l 1,2,-1
 240.5 -276 l 1,3,-1
 753.5 -276 l 1,4,-1
 733.5 -72 l 1,5,-1
 733.5 1198 l 1,6,-1
 753.5 1403 l 1,7,-1
 240.5 1403 l 1,8,-1
 240.5 1556 l 1,9,-1
 958.5 1556 l 1,10,-1
 935.5 1352 l 1,11,-1
 935.5 -225 l 1,0,-1
EndSplineSet
EndChar

StartChar: asciicircum
Encoding: 94 94 66
Width: 1331
GlyphClass: 1
Flags: W
LayerCount: 2
Fore
SplineSet
1206.5 934 m 1,0,-1
 1000.5 934 l 1,1,-1
 713.5 1269 l 1,2,-1
 667.5 1382 l 1,3,-1
 622.5 1271 l 1,4,-1
 345.5 936 l 1,5,-1
 124.5 936 l 1,6,-1
 593.5 1536 l 1,7,-1
 725.5 1553 l 1,8,-1
 1206.5 934 l 1,0,-1
EndSplineSet
EndChar

StartChar: underscore
Encoding: 95 95 67
Width: 1331
GlyphClass: 1
Flags: W
LayerCount: 2
Fore
SplineSet
102 -307 m 1,0,-1
 1229 -307 l 1,1,-1
 1229 -466 l 1,2,-1
 102 -466 l 1,3,-1
 102 -307 l 1,0,-1
EndSplineSet
EndChar

StartChar: grave
Encoding: 96 96 68
Width: 1331
GlyphClass: 1
Flags: W
LayerCount: 2
Fore
SplineSet
923.5 1163 m 5,0,-1
 769.5 1163 l 5,1,-1
 473.5 1536 l 1,2,-1
 682.5 1556 l 1,3,-1
 923.5 1163 l 5,0,-1
EndSplineSet
EndChar

StartChar: a
Encoding: 97 97 69
Width: 1331
GlyphClass: 1
Flags: W
LayerCount: 2
Fore
SplineSet
1147 0 m 1,0,-1
 942 0 l 1,1,-1
 942 166 l 1,2,-1
 846 51 l 1,3,4
 829 38 829 38 801.5 25.5 c 128,-1,5
 774 13 774 13 743 3.5 c 128,-1,6
 712 -6 712 -6 680.5 -11.5 c 128,-1,7
 649 -17 649 -17 620 -17 c 0,8,9
 543 -17 543 -17 465.5 7 c 128,-1,10
 388 31 388 31 325.5 77.5 c 128,-1,11
 263 124 263 124 223.5 193 c 128,-1,12
 184 262 184 262 184 352 c 0,13,14
 184 447 184 447 224.5 516.5 c 128,-1,15
 265 586 265 586 330.5 631 c 128,-1,16
 396 676 396 676 480 697.5 c 128,-1,17
 564 719 564 719 650 719 c 0,18,19
 747 719 747 719 819 708 c 128,-1,20
 891 697 891 697 942 678 c 1,21,-1
 942 722 l 2,22,23
 942 782 942 782 927 830.5 c 128,-1,24
 912 879 912 879 880.5 912 c 128,-1,25
 849 945 849 945 799 962.5 c 128,-1,26
 749 980 749 980 681 980 c 0,27,28
 616 980 616 980 569.5 972.5 c 128,-1,29
 523 965 523 965 483 955 c 0,30,31
 459 950 459 950 438 944 c 128,-1,32
 417 938 417 938 396 932 c 1,33,-1
 322 1069 l 1,34,35
 365 1088 365 1088 425 1106 c 0,36,37
 474 1120 474 1120 537 1132 c 128,-1,38
 600 1144 600 1144 691 1144 c 0,39,40
 809 1144 809 1144 892 1112 c 128,-1,41
 975 1080 975 1080 1027 1023 c 128,-1,42
 1079 966 1079 966 1102.5 885.5 c 128,-1,43
 1126 805 1126 805 1126 707 c 2,44,-1
 1126 184 l 1,45,-1
 1147 0 l 1,0,-1
942 538 m 1,46,-1
 880 546 l 2,47,48
 866 547 866 547 842.5 549 c 128,-1,49
 819 551 819 551 791 552 c 2,50,-1
 737 554 l 2,51,52
 710 555 710 555 691 555 c 0,53,54
 634 555 634 555 578.5 545 c 128,-1,55
 523 535 523 535 479.5 511 c 128,-1,56
 436 487 436 487 409 449 c 128,-1,57
 382 411 382 411 382 353 c 0,58,59
 382 307 382 307 402.5 269 c 128,-1,60
 423 231 423 231 457 203.5 c 128,-1,61
 491 176 491 176 535.5 161 c 128,-1,62
 580 146 580 146 628 146 c 0,63,64
 723 146 723 146 799 182.5 c 128,-1,65
 875 219 875 219 942 281 c 1,66,-1
 942 538 l 1,46,-1
EndSplineSet
EndChar

StartChar: b
Encoding: 98 98 70
Width: 1331
GlyphClass: 1
Flags: W
LayerCount: 2
Fore
SplineSet
378 175 m 1,0,1
 397 169 397 169 423 164 c 128,-1,2
 449 159 449 159 478 155 c 128,-1,3
 507 151 507 151 537.5 148.5 c 128,-1,4
 568 146 568 146 597 146 c 0,5,6
 659 146 659 146 710 166.5 c 128,-1,7
 761 187 761 187 801 221.5 c 128,-1,8
 841 256 841 256 871 302.5 c 128,-1,9
 901 349 901 349 919.5 401 c 128,-1,10
 938 453 938 453 947.5 508 c 128,-1,11
 957 563 957 563 957 615 c 0,12,13
 957 717 957 717 930.5 787 c 128,-1,14
 904 857 904 857 862 900 c 128,-1,15
 820 943 820 943 769 961.5 c 128,-1,16
 718 980 718 980 670 980 c 0,17,18
 589 980 589 980 516 949 c 128,-1,19
 443 918 443 918 378 865 c 1,20,-1
 378 175 l 1,0,1
194 1454 m 1,21,-1
 174 1638 l 1,22,-1
 378 1659 l 1,23,-1
 378 997 l 1,24,-1
 465 1091 l 1,25,26
 517 1116 517 1116 574 1130 c 128,-1,27
 631 1144 631 1144 690 1144 c 0,28,29
 774 1144 774 1144 858 1109 c 128,-1,30
 942 1074 942 1074 1008 1006 c 128,-1,31
 1074 938 1074 938 1115.5 838.5 c 128,-1,32
 1157 739 1157 739 1157 610 c 0,33,34
 1157 469 1157 469 1110 353.5 c 128,-1,35
 1063 238 1063 238 985 155.5 c 128,-1,36
 907 73 907 73 804 28 c 128,-1,37
 701 -17 701 -17 588 -17 c 0,38,39
 523 -17 523 -17 462.5 -12.5 c 128,-1,40
 402 -8 402 -8 349.5 -0.5 c 128,-1,41
 297 7 297 7 257 17 c 128,-1,42
 217 27 217 27 194 36 c 1,43,-1
 194 1454 l 1,21,-1
EndSplineSet
EndChar

StartChar: c
Encoding: 99 99 71
Width: 1331
GlyphClass: 1
Flags: W
LayerCount: 2
Fore
SplineSet
1043 899 m 1,0,1
 1003 935 1003 935 932.5 957.5 c 128,-1,2
 862 980 862 980 753 980 c 0,3,4
 667 980 667 980 599 947.5 c 128,-1,5
 531 915 531 915 483.5 860 c 128,-1,6
 436 805 436 805 411 731.5 c 128,-1,7
 386 658 386 658 386 578 c 0,8,9
 386 494 386 494 410 417.5 c 128,-1,10
 434 341 434 341 481.5 282.5 c 128,-1,11
 529 224 529 224 599.5 190 c 128,-1,12
 670 156 670 156 765 156 c 0,13,14
 818 156 818 156 867 168 c 128,-1,15
 916 180 916 180 956 197 c 128,-1,16
 996 214 996 214 1024 231 c 128,-1,17
 1052 248 1052 248 1065 258 c 1,18,-1
 1138 114 l 1,19,20
 1123 101 1123 101 1092.5 78.5 c 128,-1,21
 1062 56 1062 56 1014 34.5 c 128,-1,22
 966 13 966 13 901 -2 c 128,-1,23
 836 -17 836 -17 750 -17 c 0,24,25
 622 -17 622 -17 518 33.5 c 128,-1,26
 414 84 414 84 340.5 168.5 c 128,-1,27
 267 253 267 253 226.5 362.5 c 128,-1,28
 186 472 186 472 186 591 c 0,29,30
 186 697 186 697 225.5 797 c 128,-1,31
 265 897 265 897 338.5 974 c 128,-1,32
 412 1051 412 1051 517.5 1097.5 c 128,-1,33
 623 1144 623 1144 755 1144 c 0,34,35
 880 1144 880 1144 980 1114.5 c 128,-1,36
 1080 1085 1080 1085 1145 1015 c 1,37,-1
 1043 899 l 1,0,1
EndSplineSet
EndChar

StartChar: d
Encoding: 100 100 72
Width: 1331
GlyphClass: 1
Flags: W
LayerCount: 2
Fore
SplineSet
783 963 m 2,0,1
 689 963 689 963 612 927.5 c 128,-1,2
 535 892 535 892 480.5 831.5 c 128,-1,3
 426 771 426 771 396 689 c 128,-1,4
 366 607 366 607 366 514 c 0,5,6
 366 423 366 423 392 354.5 c 128,-1,7
 418 286 418 286 460.5 240 c 128,-1,8
 503 194 503 194 556.5 170.5 c 128,-1,9
 610 147 610 147 664 147 c 0,10,11
 712 147 712 147 755 163.5 c 128,-1,12
 798 180 798 180 835 204.5 c 128,-1,13
 872 229 872 229 901.5 258.5 c 128,-1,14
 931 288 931 288 952 313 c 1,15,-1
 952 963 l 1,16,-1
 783 963 l 2,0,1
952 0 m 1,17,-1
 952 166 l 1,18,-1
 864 50 l 1,19,20
 827 25 827 25 765.5 4 c 128,-1,21
 704 -17 704 -17 624 -17 c 0,22,23
 532 -17 532 -17 450 16 c 128,-1,24
 368 49 368 49 306.5 117 c 128,-1,25
 245 185 245 185 209.5 290 c 128,-1,26
 174 395 174 395 174 539 c 0,27,28
 174 662 174 662 221.5 769 c 128,-1,29
 269 876 269 876 351 955.5 c 128,-1,30
 433 1035 433 1035 544 1080.5 c 128,-1,31
 655 1126 655 1126 782 1126 c 2,32,-1
 952 1126 l 1,33,-1
 952 1659 l 1,34,-1
 1136 1638 l 1,35,-1
 1136 184 l 1,36,-1
 1157 0 l 1,37,-1
 952 0 l 1,17,-1
EndSplineSet
EndChar

StartChar: e
Encoding: 101 101 73
Width: 1331
GlyphClass: 1
Flags: W
LayerCount: 2
Fore
SplineSet
1080 132 m 1,0,1
 1048 99 1048 99 1010 71.5 c 128,-1,2
 972 44 972 44 926 24 c 128,-1,3
 880 4 880 4 824.5 -6.5 c 128,-1,4
 769 -17 769 -17 700 -17 c 0,5,6
 564 -17 564 -17 464.5 31 c 128,-1,7
 365 79 365 79 300.5 160 c 128,-1,8
 236 241 236 241 205.5 345.5 c 128,-1,9
 175 450 175 450 175 563 c 0,10,11
 175 636 175 636 189.5 707 c 128,-1,12
 204 778 204 778 232.5 842.5 c 128,-1,13
 261 907 261 907 303.5 962.5 c 128,-1,14
 346 1018 346 1018 401.5 1058 c 128,-1,15
 457 1098 457 1098 525 1121 c 128,-1,16
 593 1144 593 1144 674 1144 c 0,17,18
 785 1144 785 1144 874 1108 c 128,-1,19
 963 1072 963 1072 1025.5 1007.5 c 128,-1,20
 1088 943 1088 943 1122 852.5 c 128,-1,21
 1156 762 1156 762 1156 653 c 0,22,23
 1156 621 1156 621 1153.5 583.5 c 128,-1,24
 1151 546 1151 546 1147 512 c 1,25,-1
 369 512 l 1,26,27
 369 433 369 433 393.5 366 c 128,-1,28
 418 299 418 299 460.5 250.5 c 128,-1,29
 503 202 503 202 561 174 c 128,-1,30
 619 146 619 146 687 146 c 0,31,32
 753 146 753 146 799 156 c 128,-1,33
 845 166 845 166 877.5 180.5 c 128,-1,34
 910 195 910 195 931.5 211 c 128,-1,35
 953 227 953 227 968 242 c 1,36,-1
 1080 132 l 1,0,1
975 666 m 1,37,-1
 975 711 l 2,38,39
 975 769 975 769 952 818 c 128,-1,40
 929 867 929 867 889.5 903.5 c 128,-1,41
 850 940 850 940 798.5 960.5 c 128,-1,42
 747 981 747 981 690 981 c 0,43,44
 621 981 621 981 569.5 959 c 128,-1,45
 518 937 518 937 481 902.5 c 128,-1,46
 444 868 444 868 421.5 827 c 128,-1,47
 399 786 399 786 389 750 c 1,48,-1
 328 633 l 1,49,-1
 518 666 l 1,50,-1
 975 666 l 1,37,-1
EndSplineSet
EndChar

StartChar: f
Encoding: 102 102 74
Width: 1331
GlyphClass: 1
Flags: W
LayerCount: 2
Fore
SplineSet
155.5 1126 m 1,0,-1
 413.5 1126 l 1,1,-1
 413.5 1285 l 2,2,3
 413.5 1372 413.5 1372 448 1440.5 c 128,-1,4
 482.5 1509 482.5 1509 542 1557 c 128,-1,5
 601.5 1605 601.5 1605 681.5 1630.5 c 128,-1,6
 761.5 1656 761.5 1656 851.5 1656 c 0,7,8
 897.5 1656 897.5 1656 944.5 1647.5 c 128,-1,9
 991.5 1639 991.5 1639 1035 1626.5 c 128,-1,10
 1078.5 1614 1078.5 1614 1115.5 1597.5 c 128,-1,11
 1152.5 1581 1152.5 1581 1175.5 1566 c 1,12,-1
 1088.5 1445 l 1,13,14
 1076.5 1452 1076.5 1452 1051.5 1460 c 128,-1,15
 1026.5 1468 1026.5 1468 997.5 1475.5 c 128,-1,16
 968.5 1483 968.5 1483 937.5 1487.5 c 128,-1,17
 906.5 1492 906.5 1492 884.5 1492 c 0,18,19
 840.5 1492 840.5 1492 790.5 1480 c 128,-1,20
 740.5 1468 740.5 1468 699 1442 c 128,-1,21
 657.5 1416 657.5 1416 630 1374.5 c 128,-1,22
 602.5 1333 602.5 1333 602.5 1275 c 2,23,-1
 602.5 1126 l 1,24,-1
 1061.5 1126 l 1,25,-1
 1040.5 963 l 1,26,-1
 607.5 963 l 1,27,-1
 607.5 0 l 1,28,-1
 413.5 0 l 1,29,-1
 413.5 963 l 1,30,-1
 155.5 963 l 1,31,-1
 155.5 1126 l 1,0,-1
EndSplineSet
EndChar

StartChar: g
Encoding: 103 103 75
Width: 1331
GlyphClass: 1
Flags: W
LayerCount: 2
Fore
SplineSet
962.5 138 m 1,0,-1
 873.5 26 l 2,1,2
 864.5 20 864.5 20 847.5 12.5 c 128,-1,3
 830.5 5 830.5 5 806 -1.5 c 128,-1,4
 781.5 -8 781.5 -8 748.5 -12.5 c 128,-1,5
 715.5 -17 715.5 -17 675.5 -17 c 0,6,7
 613.5 -17 613.5 -17 553 3.5 c 128,-1,8
 492.5 24 492.5 24 437.5 61.5 c 128,-1,9
 382.5 99 382.5 99 336.5 152 c 128,-1,10
 290.5 205 290.5 205 256 269 c 128,-1,11
 221.5 333 221.5 333 203 406 c 128,-1,12
 184.5 479 184.5 479 184.5 558 c 0,13,14
 184.5 678 184.5 678 223 784.5 c 128,-1,15
 261.5 891 261.5 891 332.5 971 c 128,-1,16
 403.5 1051 403.5 1051 502.5 1097.5 c 128,-1,17
 601.5 1144 601.5 1144 722.5 1144 c 0,18,19
 760.5 1144 760.5 1144 797 1141 c 128,-1,20
 833.5 1138 833.5 1138 865.5 1126 c 1,21,-1
 962.5 981 l 1,22,-1
 962.5 1147 l 1,23,-1
 1146.5 1126 l 1,24,-1
 1146.5 -47 l 2,25,26
 1146.5 -147 1146.5 -147 1114 -235.5 c 128,-1,27
 1081.5 -324 1081.5 -324 1019 -389 c 128,-1,28
 956.5 -454 956.5 -454 865 -491.5 c 128,-1,29
 773.5 -529 773.5 -529 657.5 -529 c 0,30,31
 576.5 -529 576.5 -529 515.5 -508.5 c 128,-1,32
 454.5 -488 454.5 -488 411.5 -464 c 0,33,34
 386.5 -450 386.5 -450 365 -433.5 c 128,-1,35
 343.5 -417 343.5 -417 326.5 -397 c 1,36,-1
 426.5 -285 l 1,37,38
 440.5 -296 440.5 -296 457.5 -306 c 128,-1,39
 474.5 -316 474.5 -316 493.5 -326 c 0,40,41
 525.5 -341 525.5 -341 567.5 -353.5 c 128,-1,42
 609.5 -366 609.5 -366 658.5 -366 c 0,43,44
 721.5 -366 721.5 -366 777 -339.5 c 128,-1,45
 832.5 -313 832.5 -313 874 -268 c 128,-1,46
 915.5 -223 915.5 -223 939 -162 c 128,-1,47
 962.5 -101 962.5 -101 962.5 -32 c 2,48,-1
 962.5 138 l 1,0,-1
962.5 854 m 1,49,50
 935.5 888 935.5 888 897.5 916 c 0,51,52
 865.5 940 865.5 940 820.5 960 c 128,-1,53
 775.5 980 775.5 980 717.5 980 c 0,54,55
 656.5 980 656.5 980 607 960.5 c 128,-1,56
 557.5 941 557.5 941 520.5 908.5 c 128,-1,57
 483.5 876 483.5 876 456 832 c 128,-1,58
 428.5 788 428.5 788 412 739.5 c 128,-1,59
 395.5 691 395.5 691 387 641.5 c 128,-1,60
 378.5 592 378.5 592 378.5 546 c 0,61,62
 378.5 459 378.5 459 405.5 385.5 c 128,-1,63
 432.5 312 432.5 312 476.5 259.5 c 128,-1,64
 520.5 207 520.5 207 577 177 c 128,-1,65
 633.5 147 633.5 147 692.5 147 c 0,66,67
 744.5 147 744.5 147 785.5 158.5 c 128,-1,68
 826.5 170 826.5 170 859 189 c 128,-1,69
 891.5 208 891.5 208 916.5 232 c 128,-1,70
 941.5 256 941.5 256 962.5 282 c 1,71,-1
 962.5 854 l 1,49,50
EndSplineSet
EndChar

StartChar: h
Encoding: 104 104 76
Width: 1331
GlyphClass: 1
Flags: W
LayerCount: 2
Fore
SplineSet
409.5 0 m 1,0,-1
 225.5 0 l 1,1,-1
 225.5 1434 l 1,2,-1
 205.5 1638 l 1,3,-1
 409.5 1659 l 1,4,-1
 409.5 973 l 1,5,-1
 501.5 1091 l 1,6,7
 541.5 1114 541.5 1114 616 1129 c 128,-1,8
 690.5 1144 690.5 1144 808.5 1144 c 0,9,10
 963.5 1144 963.5 1144 1044.5 1042 c 128,-1,11
 1125.5 940 1125.5 940 1125.5 748 c 2,12,-1
 1125.5 0 l 1,13,-1
 931.5 0 l 1,14,-1
 931.5 726 l 2,15,16
 931.5 795 931.5 795 919.5 843 c 128,-1,17
 907.5 891 907.5 891 886 921.5 c 128,-1,18
 864.5 952 864.5 952 833 966 c 128,-1,19
 801.5 980 801.5 980 761.5 980 c 0,20,21
 700.5 980 700.5 980 644.5 967.5 c 128,-1,22
 588.5 955 588.5 955 542 936.5 c 128,-1,23
 495.5 918 495.5 918 461.5 895 c 128,-1,24
 427.5 872 427.5 872 409.5 853 c 1,25,-1
 409.5 0 l 1,0,-1
EndSplineSet
EndChar

StartChar: i
Encoding: 105 105 77
Width: 1331
GlyphClass: 1
Flags: W
LayerCount: 2
Fore
SplineSet
701.5 402 m 2,0,1
 701.5 349 701.5 349 708 304 c 128,-1,2
 714.5 259 714.5 259 730 226.5 c 128,-1,3
 745.5 194 745.5 194 771 175.5 c 128,-1,4
 796.5 157 796.5 157 834.5 157 c 0,5,6
 884.5 157 884.5 157 932.5 165 c 128,-1,7
 980.5 173 980.5 173 1018 184 c 128,-1,8
 1055.5 195 1055.5 195 1081 204 c 128,-1,9
 1106.5 213 1106.5 213 1112.5 215 c 1,10,-1
 1152.5 57 l 1,11,12
 1146.5 54 1146.5 54 1119.5 42 c 128,-1,13
 1092.5 30 1092.5 30 1049.5 17 c 128,-1,14
 1006.5 4 1006.5 4 949.5 -6.5 c 128,-1,15
 892.5 -17 892.5 -17 824.5 -17 c 0,16,17
 724.5 -17 724.5 -17 662.5 15.5 c 128,-1,18
 600.5 48 600.5 48 565.5 106 c 128,-1,19
 530.5 164 530.5 164 519 243 c 128,-1,20
 507.5 322 507.5 322 507.5 413 c 2,21,-1
 507.5 942 l 1,22,-1
 547.5 1004 l 1,23,-1
 404.5 963 l 1,24,-1
 198.5 963 l 1,25,-1
 178.5 1126 l 1,26,-1
 701.5 1126 l 1,27,-1
 701.5 402 l 2,0,1
500.5 1536 m 1,28,-1
 707.5 1536 l 1,29,-1
 707.5 1331 l 1,30,-1
 500.5 1331 l 1,31,-1
 500.5 1536 l 1,28,-1
EndSplineSet
EndChar

StartChar: j
Encoding: 106 106 78
Width: 1331
GlyphClass: 1
Flags: W
LayerCount: 2
Fore
SplineSet
784.5 1536 m 1,0,-1
 991.5 1536 l 1,1,-1
 991.5 1331 l 1,2,-1
 784.5 1331 l 1,3,-1
 784.5 1536 l 1,0,-1
831.5 1004 m 1,4,-1
 687.5 963 l 1,5,-1
 482.5 963 l 1,6,-1
 461.5 1126 l 1,7,-1
 984.5 1126 l 1,8,-1
 984.5 -99 l 2,9,10
 984.5 -190 984.5 -190 973 -269 c 128,-1,11
 961.5 -348 961.5 -348 926.5 -406 c 128,-1,12
 891.5 -464 891.5 -464 829.5 -496.5 c 128,-1,13
 767.5 -529 767.5 -529 667.5 -529 c 0,14,15
 599.5 -529 599.5 -529 542.5 -518.5 c 128,-1,16
 485.5 -508 485.5 -508 442.5 -495 c 128,-1,17
 399.5 -482 399.5 -482 372.5 -470 c 128,-1,18
 345.5 -458 345.5 -458 339.5 -455 c 1,19,-1
 379.5 -297 l 1,20,21
 385.5 -299 385.5 -299 411 -308 c 128,-1,22
 436.5 -317 436.5 -317 474 -328 c 128,-1,23
 511.5 -339 511.5 -339 559 -347 c 128,-1,24
 606.5 -355 606.5 -355 657.5 -355 c 0,25,26
 695.5 -355 695.5 -355 721 -336.5 c 128,-1,27
 746.5 -318 746.5 -318 762 -285.5 c 128,-1,28
 777.5 -253 777.5 -253 784 -208 c 128,-1,29
 790.5 -163 790.5 -163 790.5 -110 c 2,30,-1
 790.5 942 l 1,31,-1
 831.5 1004 l 1,4,-1
EndSplineSet
EndChar

StartChar: k
Encoding: 107 107 79
Width: 1331
GlyphClass: 1
Flags: W
LayerCount: 2
Fore
SplineSet
209.5 0 m 1,0,-1
 209.5 1454 l 1,1,-1
 189.5 1638 l 1,2,-1
 393.5 1659 l 1,3,-1
 393.5 707 l 1,4,-1
 793.5 1126 l 1,5,-1
 1027.5 1126 l 1,6,-1
 638.5 707 l 1,7,-1
 456.5 642 l 1,8,-1
 638.5 581 l 1,9,-1
 1141.5 0 l 1,10,-1
 899.5 0 l 1,11,-1
 393.5 570 l 1,12,-1
 393.5 0 l 1,13,-1
 209.5 0 l 1,0,-1
EndSplineSet
EndChar

StartChar: l
Encoding: 108 108 80
Width: 1331
GlyphClass: 1
Flags: W
LayerCount: 2
Fore
SplineSet
527.5 1454 m 1,0,-1
 568.5 1516 l 1,1,-1
 425.5 1475 l 1,2,-1
 219.5 1475 l 1,3,-1
 199.5 1638 l 1,4,-1
 712.5 1638 l 1,5,-1
 712.5 385 l 2,6,7
 712.5 317 712.5 317 722.5 271.5 c 128,-1,8
 732.5 226 732.5 226 750 198 c 128,-1,9
 767.5 170 767.5 170 792 158 c 128,-1,10
 816.5 146 816.5 146 845.5 146 c 0,11,12
 886.5 146 886.5 146 920.5 152.5 c 128,-1,13
 954.5 159 954.5 159 982 168 c 128,-1,14
 1009.5 177 1009.5 177 1029 187.5 c 128,-1,15
 1048.5 198 1048.5 198 1061.5 205 c 1,16,-1
 1131.5 81 l 1,17,18
 1123.5 74 1123.5 74 1098 57.5 c 128,-1,19
 1072.5 41 1072.5 41 1033 24.5 c 128,-1,20
 993.5 8 993.5 8 941 -4.5 c 128,-1,21
 888.5 -17 888.5 -17 824.5 -17 c 0,22,23
 732.5 -17 732.5 -17 674 16.5 c 128,-1,24
 615.5 50 615.5 50 583.5 108.5 c 128,-1,25
 551.5 167 551.5 167 539.5 244.5 c 128,-1,26
 527.5 322 527.5 322 527.5 410 c 2,27,-1
 527.5 1454 l 1,0,-1
EndSplineSet
EndChar

StartChar: m
Encoding: 109 109 81
Width: 1331
GlyphClass: 1
Flags: W
LayerCount: 2
Fore
SplineSet
266 0 m 1,0,-1
 84 0 l 1,1,-1
 84 1126 l 1,2,-1
 266 1147 l 1,3,-1
 266 959 l 1,4,5
 288 1000 288 1000 299.5 1023.5 c 128,-1,6
 311 1047 311 1047 317 1057.5 c 128,-1,7
 323 1068 323 1068 324 1070 c 2,8,-1
 326 1073 l 2,9,10
 335 1082 335 1082 352 1094.5 c 128,-1,11
 369 1107 369 1107 393.5 1117.5 c 128,-1,12
 418 1128 418 1128 449.5 1136 c 128,-1,13
 481 1144 481 1144 521 1144 c 0,14,15
 578 1144 578 1144 615 1129 c 128,-1,16
 652 1114 652 1114 675.5 1088 c 128,-1,17
 699 1062 699 1062 712.5 1025 c 128,-1,18
 726 988 726 988 737 945 c 1,19,-1
 802 1068 l 1,20,21
 812 1077 812 1077 835 1090.5 c 128,-1,22
 858 1104 858 1104 888.5 1115.5 c 128,-1,23
 919 1127 919 1127 952.5 1135.5 c 128,-1,24
 986 1144 986 1144 1019 1144 c 0,25,26
 1097 1144 1097 1144 1142.5 1118 c 128,-1,27
 1188 1092 1188 1092 1211 1042.5 c 128,-1,28
 1234 993 1234 993 1240.5 923.5 c 128,-1,29
 1247 854 1247 854 1247 768 c 2,30,-1
 1247 0 l 1,31,-1
 1065 0 l 1,32,-1
 1065 758 l 2,33,34
 1065 813 1065 813 1063.5 854.5 c 128,-1,35
 1062 896 1062 896 1051 924 c 128,-1,36
 1040 952 1040 952 1017 966 c 128,-1,37
 994 980 994 980 952 980 c 0,38,39
 932 980 932 980 902.5 967 c 128,-1,40
 873 954 873 954 843.5 934 c 128,-1,41
 814 914 814 914 789 889 c 128,-1,42
 764 864 764 864 754 839 c 0,43,44
 754 833 754 833 754.5 819 c 128,-1,45
 755 805 755 805 755.5 790 c 128,-1,46
 756 775 756 775 756 762 c 2,47,-1
 756 0 l 1,48,-1
 573 0 l 1,49,-1
 573 737 l 2,50,51
 573 792 573 792 570.5 837.5 c 128,-1,52
 568 883 568 883 557.5 914 c 128,-1,53
 547 945 547 945 523 962.5 c 128,-1,54
 499 980 499 980 455 980 c 0,55,56
 439 980 439 980 413 971 c 128,-1,57
 387 962 387 962 360 944 c 128,-1,58
 333 926 333 926 308 901 c 128,-1,59
 283 876 283 876 266 844 c 1,60,-1
 266 0 l 1,0,-1
EndSplineSet
EndChar

StartChar: n
Encoding: 110 110 82
Width: 1331
GlyphClass: 1
Flags: W
LayerCount: 2
Fore
SplineSet
399.5 0 m 1,0,-1
 215.5 0 l 1,1,-1
 215.5 1126 l 1,2,-1
 399.5 1147 l 1,3,-1
 399.5 949 l 1,4,-1
 462.5 1069 l 1,5,6
 480.5 1081 480.5 1081 505.5 1094.5 c 128,-1,7
 530.5 1108 530.5 1108 566.5 1118.5 c 128,-1,8
 602.5 1129 602.5 1129 651.5 1136.5 c 128,-1,9
 700.5 1144 700.5 1144 767.5 1144 c 0,10,11
 848.5 1144 848.5 1144 913.5 1118 c 128,-1,12
 978.5 1092 978.5 1092 1023 1042.5 c 128,-1,13
 1067.5 993 1067.5 993 1091.5 923.5 c 128,-1,14
 1115.5 854 1115.5 854 1115.5 768 c 2,15,-1
 1115.5 0 l 1,16,-1
 931.5 0 l 1,17,-1
 931.5 768 l 2,18,19
 931.5 823 931.5 823 913.5 863 c 128,-1,20
 895.5 903 895.5 903 864 929 c 128,-1,21
 832.5 955 832.5 955 790.5 967.5 c 128,-1,22
 748.5 980 748.5 980 700.5 980 c 0,23,24
 651.5 980 651.5 980 606 967.5 c 128,-1,25
 560.5 955 560.5 955 521.5 936.5 c 128,-1,26
 482.5 918 482.5 918 451.5 895.5 c 128,-1,27
 420.5 873 420.5 873 399.5 854 c 1,28,-1
 399.5 0 l 1,0,-1
EndSplineSet
EndChar

StartChar: o
Encoding: 111 111 83
Width: 1331
GlyphClass: 1
Flags: W
LayerCount: 2
Fore
SplineSet
671 -17 m 0,0,1
 557 -17 557 -17 462 27.5 c 128,-1,2
 367 72 367 72 298.5 150 c 128,-1,3
 230 228 230 228 191.5 334.5 c 128,-1,4
 153 441 153 441 153 566 c 0,5,6
 153 690 153 690 190 796 c 128,-1,7
 227 902 227 902 294.5 979.5 c 128,-1,8
 362 1057 362 1057 458 1100.5 c 128,-1,9
 554 1144 554 1144 671 1144 c 0,10,11
 785 1144 785 1144 878 1100.5 c 128,-1,12
 971 1057 971 1057 1038 979.5 c 128,-1,13
 1105 902 1105 902 1141.5 796 c 128,-1,14
 1178 690 1178 690 1178 566 c 0,15,16
 1178 441 1178 441 1143 334.5 c 128,-1,17
 1108 228 1108 228 1042 150 c 128,-1,18
 976 72 976 72 882 27.5 c 128,-1,19
 788 -17 788 -17 671 -17 c 0,0,1
984 539 m 0,20,21
 984 622 984 622 966.5 701.5 c 128,-1,22
 949 781 949 781 911 844 c 128,-1,23
 873 907 873 907 812.5 946 c 128,-1,24
 752 985 752 985 666 985 c 0,25,26
 584 985 584 985 524 951.5 c 128,-1,27
 464 918 464 918 425 861.5 c 128,-1,28
 386 805 386 805 367 733.5 c 128,-1,29
 348 662 348 662 348 586 c 0,30,31
 348 503 348 503 367 423 c 128,-1,32
 386 343 386 343 425.5 280.5 c 128,-1,33
 465 218 465 218 527 179.5 c 128,-1,34
 589 141 589 141 675 141 c 0,35,36
 756 141 756 141 814.5 175 c 128,-1,37
 873 209 873 209 910.5 265 c 128,-1,38
 948 321 948 321 966 392 c 128,-1,39
 984 463 984 463 984 539 c 0,20,21
EndSplineSet
EndChar

StartChar: p
Encoding: 112 112 84
Width: 1331
GlyphClass: 1
Flags: W
LayerCount: 2
Fore
SplineSet
368 164 m 1,0,-1
 536 164 l 2,1,2
 630 164 630 164 707 195 c 128,-1,3
 784 226 784 226 838.5 282.5 c 128,-1,4
 893 339 893 339 922.5 418 c 128,-1,5
 952 497 952 497 952 592 c 0,6,7
 952 692 952 692 924.5 765.5 c 128,-1,8
 897 839 897 839 854 886.5 c 128,-1,9
 811 934 811 934 758 957 c 128,-1,10
 705 980 705 980 655 980 c 256,11,12
 605 980 605 980 561.5 967 c 128,-1,13
 518 954 518 954 481.5 934.5 c 128,-1,14
 445 915 445 915 416.5 891.5 c 128,-1,15
 388 868 388 868 368 847 c 1,16,-1
 368 164 l 1,0,-1
184 -512 m 1,17,-1
 184 1126 l 1,18,-1
 368 1147 l 1,19,-1
 368 967 l 1,20,-1
 466 1097 l 1,21,22
 496 1114 496 1114 550.5 1129 c 128,-1,23
 605 1144 605 1144 685 1144 c 0,24,25
 770 1144 770 1144 853 1104 c 128,-1,26
 936 1064 936 1064 1001 990 c 128,-1,27
 1066 916 1066 916 1106.5 812 c 128,-1,28
 1147 708 1147 708 1147 579 c 0,29,30
 1147 453 1147 453 1098 347 c 128,-1,31
 1049 241 1049 241 963.5 163.5 c 128,-1,32
 878 86 878 86 763.5 43 c 128,-1,33
 649 0 649 0 517 0 c 2,34,-1
 368 0 l 1,35,-1
 368 -512 l 1,36,-1
 184 -512 l 1,17,-1
EndSplineSet
EndChar

StartChar: q
Encoding: 113 113 85
Width: 1331
GlyphClass: 1
Flags: W
LayerCount: 2
Fore
SplineSet
962.5 957 m 1,0,1
 943.5 961 943.5 961 917 965.5 c 128,-1,2
 890.5 970 890.5 970 861.5 973 c 128,-1,3
 832.5 976 832.5 976 801.5 978 c 128,-1,4
 770.5 980 770.5 980 743.5 980 c 0,5,6
 649.5 980 649.5 980 581.5 940 c 128,-1,7
 513.5 900 513.5 900 469.5 836.5 c 128,-1,8
 425.5 773 425.5 773 404.5 693.5 c 128,-1,9
 383.5 614 383.5 614 383.5 537 c 0,10,11
 383.5 435 383.5 435 411 361 c 128,-1,12
 438.5 287 438.5 287 480.5 239 c 128,-1,13
 522.5 191 522.5 191 573 168.5 c 128,-1,14
 623.5 146 623.5 146 670.5 146 c 0,15,16
 710.5 146 710.5 146 749.5 157 c 128,-1,17
 788.5 168 788.5 168 825.5 186 c 128,-1,18
 862.5 204 862.5 204 896.5 227.5 c 128,-1,19
 930.5 251 930.5 251 962.5 276 c 1,20,-1
 962.5 957 l 1,0,1
962.5 139 m 1,21,-1
 854.5 30 l 1,22,23
 802.5 5 802.5 5 751.5 -6 c 128,-1,24
 700.5 -17 700.5 -17 651.5 -17 c 0,25,26
 595.5 -17 595.5 -17 539 -0.5 c 128,-1,27
 482.5 16 482.5 16 430 49.5 c 128,-1,28
 377.5 83 377.5 83 333 130.5 c 128,-1,29
 288.5 178 288.5 178 255.5 240 c 128,-1,30
 222.5 302 222.5 302 203.5 376.5 c 128,-1,31
 184.5 451 184.5 451 184.5 537 c 0,32,33
 184.5 678 184.5 678 230 790.5 c 128,-1,34
 275.5 903 275.5 903 353 981.5 c 128,-1,35
 430.5 1060 430.5 1060 532.5 1102 c 128,-1,36
 634.5 1144 634.5 1144 747.5 1144 c 0,37,38
 812.5 1144 812.5 1144 875 1138.5 c 128,-1,39
 937.5 1133 937.5 1133 991 1124.5 c 128,-1,40
 1044.5 1116 1044.5 1116 1085.5 1107 c 128,-1,41
 1126.5 1098 1126.5 1098 1146.5 1091 c 1,42,-1
 1146.5 -512 l 1,43,-1
 962.5 -512 l 1,44,-1
 962.5 139 l 1,21,-1
EndSplineSet
EndChar

StartChar: r
Encoding: 114 114 86
Width: 1331
GlyphClass: 1
Flags: W
LayerCount: 2
Fore
SplineSet
379 916 m 1,0,-1
 473 1078 l 1,1,2
 502 1100 502 1100 538.5 1113 c 128,-1,3
 575 1126 575 1126 614 1133 c 128,-1,4
 653 1140 653 1140 692.5 1142 c 128,-1,5
 732 1144 732 1144 767 1144 c 0,6,7
 844 1144 844 1144 898.5 1137 c 128,-1,8
 953 1130 953 1130 990.5 1120 c 128,-1,9
 1028 1110 1028 1110 1050.5 1099.5 c 128,-1,10
 1073 1089 1073 1089 1085 1080 c 1,11,-1
 1136 788 l 1,12,-1
 983 768 l 1,13,-1
 931 950 l 1,14,15
 923 953 923 953 905.5 956 c 128,-1,16
 888 959 888 959 865.5 962.5 c 128,-1,17
 843 966 843 966 818 968 c 128,-1,18
 793 970 793 970 771 970 c 0,19,20
 701 970 701 970 641.5 954 c 128,-1,21
 582 938 582 938 533 910.5 c 128,-1,22
 484 883 484 883 445.5 846 c 128,-1,23
 407 809 407 809 379 768 c 1,24,-1
 379 0 l 1,25,-1
 195 0 l 1,26,-1
 195 1126 l 1,27,-1
 379 1147 l 1,28,-1
 379 916 l 1,0,-1
EndSplineSet
EndChar

StartChar: s
Encoding: 115 115 87
Width: 1331
GlyphClass: 1
Flags: W
LayerCount: 2
Fore
SplineSet
1000.5 921 m 1,0,1
 981.5 930 981.5 930 954 941.5 c 128,-1,2
 926.5 953 926.5 953 893 963 c 128,-1,3
 859.5 973 859.5 973 819 979.5 c 128,-1,4
 778.5 986 778.5 986 732.5 986 c 0,5,6
 670.5 986 670.5 986 611 980 c 128,-1,7
 551.5 974 551.5 974 505 957.5 c 128,-1,8
 458.5 941 458.5 941 430.5 913.5 c 128,-1,9
 402.5 886 402.5 886 402.5 842 c 0,10,11
 402.5 805 402.5 805 430 779 c 128,-1,12
 457.5 753 457.5 753 502 734 c 128,-1,13
 546.5 715 546.5 715 603 701 c 128,-1,14
 659.5 687 659.5 687 717 675 c 128,-1,15
 774.5 663 774.5 663 827.5 651 c 128,-1,16
 880.5 639 880.5 639 919.5 625 c 0,17,18
 964.5 608 964.5 608 1004 581 c 128,-1,19
 1043.5 554 1043.5 554 1073 518.5 c 128,-1,20
 1102.5 483 1102.5 483 1119.5 440.5 c 128,-1,21
 1136.5 398 1136.5 398 1136.5 349 c 0,22,23
 1136.5 282 1136.5 282 1111 229.5 c 128,-1,24
 1085.5 177 1085.5 177 1042 136.5 c 128,-1,25
 998.5 96 998.5 96 941 67 c 128,-1,26
 883.5 38 883.5 38 819.5 19 c 128,-1,27
 755.5 0 755.5 0 689.5 -8.5 c 128,-1,28
 623.5 -17 623.5 -17 563.5 -17 c 0,29,30
 528.5 -17 528.5 -17 477 -10.5 c 128,-1,31
 425.5 -4 425.5 -4 371.5 7.5 c 128,-1,32
 317.5 19 317.5 19 269.5 35.5 c 128,-1,33
 221.5 52 221.5 52 194.5 71 c 1,34,-1
 262.5 216 l 1,35,36
 287.5 204 287.5 204 327 191.5 c 128,-1,37
 366.5 179 366.5 179 410.5 169 c 128,-1,38
 454.5 159 454.5 159 496 152.5 c 128,-1,39
 537.5 146 537.5 146 565.5 146 c 0,40,41
 597.5 146 597.5 146 636.5 150 c 128,-1,42
 675.5 154 675.5 154 717 162.5 c 128,-1,43
 758.5 171 758.5 171 798 186 c 128,-1,44
 837.5 201 837.5 201 868.5 223.5 c 128,-1,45
 899.5 246 899.5 246 918.5 276.5 c 128,-1,46
 937.5 307 937.5 307 937.5 348 c 0,47,48
 937.5 388 937.5 388 910.5 415.5 c 128,-1,49
 883.5 443 883.5 443 839.5 462.5 c 128,-1,50
 795.5 482 795.5 482 741 496 c 128,-1,51
 686.5 510 686.5 510 629 522.5 c 128,-1,52
 571.5 535 571.5 535 518.5 547.5 c 128,-1,53
 465.5 560 465.5 560 425.5 580 c 0,54,55
 367.5 608 367.5 608 328.5 640 c 128,-1,56
 289.5 672 289.5 672 266.5 707.5 c 128,-1,57
 243.5 743 243.5 743 234.5 782 c 128,-1,58
 225.5 821 225.5 821 225.5 862 c 0,59,60
 225.5 935 225.5 935 267 988 c 128,-1,61
 308.5 1041 308.5 1041 378 1075.5 c 128,-1,62
 447.5 1110 447.5 1110 537.5 1127 c 128,-1,63
 627.5 1144 627.5 1144 726.5 1144 c 0,64,65
 779.5 1144 779.5 1144 830 1138 c 128,-1,66
 880.5 1132 880.5 1132 925 1121.5 c 128,-1,67
 969.5 1111 969.5 1111 1004.5 1098 c 128,-1,68
 1039.5 1085 1039.5 1085 1059.5 1072 c 1,69,-1
 1000.5 921 l 1,0,1
EndSplineSet
EndChar

StartChar: t
Encoding: 116 116 88
Width: 1331
GlyphClass: 1
Flags: W
LayerCount: 2
Fore
SplineSet
660.5 385 m 2,0,1
 660.5 317 660.5 317 668 271.5 c 128,-1,2
 675.5 226 675.5 226 690.5 198 c 128,-1,3
 705.5 170 705.5 170 727.5 158 c 128,-1,4
 749.5 146 749.5 146 777.5 146 c 0,5,6
 825.5 146 825.5 146 873 157.5 c 128,-1,7
 920.5 169 920.5 169 961.5 184 c 128,-1,8
 1002.5 199 1002.5 199 1034 213.5 c 128,-1,9
 1065.5 228 1065.5 228 1083.5 236 c 1,10,-1
 1153.5 112 l 1,11,12
 1144.5 104 1144.5 104 1109 82.5 c 128,-1,13
 1073.5 61 1073.5 61 1020 38.5 c 128,-1,14
 966.5 16 966.5 16 899 -0.5 c 128,-1,15
 831.5 -17 831.5 -17 757.5 -17 c 0,16,17
 665.5 -17 665.5 -17 609.5 16.5 c 128,-1,18
 553.5 50 553.5 50 524 108.5 c 128,-1,19
 494.5 167 494.5 167 485 244.5 c 128,-1,20
 475.5 322 475.5 322 475.5 410 c 2,21,-1
 475.5 963 l 1,22,-1
 177.5 963 l 1,23,-1
 177.5 1126 l 1,24,-1
 475.5 1126 l 1,25,-1
 475.5 1340 l 1,26,-1
 655.5 1454 l 1,27,-1
 655.5 1126 l 1,28,-1
 1150.5 1126 l 1,29,-1
 1130.5 963 l 1,30,-1
 660.5 963 l 1,31,-1
 660.5 385 l 2,0,1
EndSplineSet
EndChar

StartChar: u
Encoding: 117 117 89
Width: 1331
GlyphClass: 1
Flags: W
LayerCount: 2
Fore
SplineSet
941.5 1126 m 1,0,-1
 1126.5 1147 l 1,1,-1
 1126.5 0 l 1,2,-1
 941.5 0 l 1,3,-1
 941.5 184 l 1,4,-1
 879.5 75 l 2,5,6
 870.5 64 870.5 64 850 48.5 c 128,-1,7
 829.5 33 829.5 33 798.5 18 c 128,-1,8
 767.5 3 767.5 3 727.5 -7 c 128,-1,9
 687.5 -17 687.5 -17 638.5 -17 c 0,10,11
 514.5 -17 514.5 -17 431 21 c 128,-1,12
 347.5 59 347.5 59 297.5 122.5 c 128,-1,13
 247.5 186 247.5 186 226 269 c 128,-1,14
 204.5 352 204.5 352 204.5 440 c 2,15,-1
 204.5 1126 l 1,16,-1
 388.5 1147 l 1,17,-1
 388.5 440 l 2,18,19
 388.5 373 388.5 373 402 320 c 128,-1,20
 415.5 267 415.5 267 448 229 c 128,-1,21
 480.5 191 480.5 191 534 171.5 c 128,-1,22
 587.5 152 587.5 152 667.5 152 c 0,23,24
 726.5 152 726.5 152 772.5 168.5 c 128,-1,25
 818.5 185 818.5 185 853 209 c 128,-1,26
 887.5 233 887.5 233 909.5 260 c 128,-1,27
 931.5 287 931.5 287 941.5 307 c 1,28,-1
 941.5 1126 l 1,0,-1
EndSplineSet
EndChar

StartChar: v
Encoding: 118 118 90
Width: 1331
GlyphClass: 1
Flags: W
LayerCount: 2
Fore
SplineSet
1144 1147 m 1,0,-1
 764 -20 l 1,1,-1
 553 0 l 1,2,-1
 187 1126 l 1,3,-1
 375 1147 l 1,4,-1
 619 390 l 1,5,-1
 674 153 l 1,6,-1
 725 390 l 1,7,-1
 964 1126 l 1,8,-1
 1144 1147 l 1,0,-1
EndSplineSet
EndChar

StartChar: w
Encoding: 119 119 91
Width: 1331
GlyphClass: 1
Flags: W
LayerCount: 2
Fore
SplineSet
856 410 m 1,0,-1
 919 154 l 1,1,-1
 930 492 l 1,2,-1
 1063 1126 l 1,3,-1
 1229 1147 l 1,4,-1
 1006 0 l 1,5,-1
 855 0 l 1,6,-1
 720 356 l 1,7,-1
 663 768 l 1,8,-1
 607 358 l 1,9,-1
 473 0 l 1,10,-1
 323 0 l 1,11,-1
 102 1126 l 1,12,-1
 268 1147 l 1,13,-1
 394 492 l 1,14,-1
 416 154 l 1,15,-1
 585 906 l 1,16,-1
 741 906 l 1,17,-1
 856 410 l 1,0,-1
EndSplineSet
EndChar

StartChar: x
Encoding: 120 120 92
Width: 1331
GlyphClass: 1
Flags: W
LayerCount: 2
Fore
SplineSet
988.5 0 m 1,0,-1
 702.5 401 l 1,1,-1
 656.5 522 l 1,2,-1
 610.5 401 l 1,3,-1
 315.5 0 l 1,4,-1
 112.5 0 l 1,5,-1
 544.5 602 l 1,6,-1
 167.5 1126 l 1,7,-1
 383.5 1147 l 1,8,-1
 644.5 790 l 1,9,-1
 684.5 676 l 1,10,-1
 723.5 790 l 1,11,-1
 965.5 1126 l 1,12,-1
 1181.5 1147 l 1,13,-1
 797.5 597 l 1,14,-1
 1218.5 0 l 1,15,-1
 988.5 0 l 1,0,-1
EndSplineSet
EndChar

StartChar: y
Encoding: 121 121 93
Width: 1331
GlyphClass: 1
Flags: W
LayerCount: 2
Fore
SplineSet
716 373 m 1,0,-1
 992 1126 l 1,1,-1
 1176 1147 l 1,2,-1
 762 -17 l 2,3,4
 731 -103 731 -103 696 -188 c 128,-1,5
 661 -273 661 -273 616.5 -341 c 128,-1,6
 572 -409 572 -409 516 -450.5 c 128,-1,7
 460 -492 460 -492 388 -492 c 0,8,9
 331 -492 331 -492 283 -469 c 128,-1,10
 235 -446 235 -446 192 -410 c 1,11,-1
 267 -290 l 1,12,13
 273 -296 273 -296 282.5 -304 c 128,-1,14
 292 -312 292 -312 304 -320 c 128,-1,15
 316 -328 316 -328 329.5 -333 c 128,-1,16
 343 -338 343 -338 358 -338 c 0,17,18
 395 -338 395 -338 425 -312 c 128,-1,19
 455 -286 455 -286 481 -244 c 128,-1,20
 507 -202 507 -202 529 -150.5 c 128,-1,21
 551 -99 551 -99 572 -48 c 1,22,-1
 155 1126 l 1,23,-1
 349 1147 l 1,24,-1
 620 373 l 1,25,-1
 673 135 l 1,26,-1
 716 373 l 1,0,-1
EndSplineSet
EndChar

StartChar: z
Encoding: 122 122 94
Width: 1331
GlyphClass: 1
Flags: W
LayerCount: 2
Fore
SplineSet
1125.5 164 m 1,0,-1
 1146.5 0 l 1,1,-1
 205.5 0 l 1,2,-1
 184.5 51 l 1,3,-1
 699.5 846 l 1,4,-1
 896.5 1004 l 1,5,-1
 645.5 963 l 1,6,-1
 273.5 963 l 1,7,-1
 253.5 1126 l 1,8,-1
 1056.5 1126 l 1,9,-1
 1076.5 1076 l 1,10,-1
 576.5 287 l 1,11,-1
 380.5 123 l 1,12,-1
 549.5 164 l 1,13,-1
 1125.5 164 l 1,0,-1
EndSplineSet
EndChar

StartChar: braceleft
Encoding: 123 123 95
Width: 1331
GlyphClass: 1
Flags: W
LayerCount: 2
Fore
SplineSet
242.5 640 m 1,0,-1
 367.5 640 l 1,1,2
 417.5 647 417.5 647 448 667.5 c 128,-1,3
 478.5 688 478.5 688 495 721 c 128,-1,4
 511.5 754 511.5 754 516.5 799 c 128,-1,5
 521.5 844 521.5 844 521.5 901 c 2,6,-1
 521.5 1146 l 2,7,8
 521.5 1233 521.5 1233 537.5 1307.5 c 128,-1,9
 553.5 1382 553.5 1382 592.5 1436.5 c 128,-1,10
 631.5 1491 631.5 1491 696.5 1522 c 128,-1,11
 761.5 1553 761.5 1553 859.5 1553 c 0,12,13
 906.5 1553 906.5 1553 940 1550 c 128,-1,14
 973.5 1547 973.5 1547 999.5 1541 c 128,-1,15
 1025.5 1535 1025.5 1535 1046.5 1526.5 c 128,-1,16
 1067.5 1518 1067.5 1518 1088.5 1507 c 1,17,-1
 1024.5 1381 l 1,18,19
 1005.5 1392 1005.5 1392 972 1400.5 c 128,-1,20
 938.5 1409 938.5 1409 912.5 1409 c 2,21,-1
 899.5 1409 l 1,22,23
 844.5 1405 844.5 1405 810 1386 c 128,-1,24
 775.5 1367 775.5 1367 757 1333.5 c 128,-1,25
 738.5 1300 738.5 1300 732.5 1252.5 c 128,-1,26
 726.5 1205 726.5 1205 726.5 1146 c 2,27,-1
 726.5 901 l 2,28,29
 726.5 795 726.5 795 702 706.5 c 128,-1,30
 677.5 618 677.5 618 616.5 563 c 1,31,32
 647.5 535 647.5 535 668 499 c 128,-1,33
 688.5 463 688.5 463 702 419.5 c 128,-1,34
 715.5 376 715.5 376 721 327 c 128,-1,35
 726.5 278 726.5 278 726.5 225 c 2,36,-1
 726.5 -20 l 2,37,38
 726.5 -80 726.5 -80 732.5 -127.5 c 128,-1,39
 738.5 -175 738.5 -175 757 -208.5 c 128,-1,40
 775.5 -242 775.5 -242 810 -261 c 128,-1,41
 844.5 -280 844.5 -280 899.5 -284 c 1,42,-1
 912.5 -284 l 2,43,44
 938.5 -284 938.5 -284 971.5 -275.5 c 128,-1,45
 1004.5 -267 1004.5 -267 1024.5 -256 c 1,46,-1
 1088.5 -382 l 1,47,48
 1066.5 -392 1066.5 -392 1046 -401 c 128,-1,49
 1025.5 -410 1025.5 -410 999.5 -416.5 c 128,-1,50
 973.5 -423 973.5 -423 940 -426.5 c 128,-1,51
 906.5 -430 906.5 -430 859.5 -430 c 0,52,53
 761.5 -430 761.5 -430 696.5 -399 c 128,-1,54
 631.5 -368 631.5 -368 592.5 -312.5 c 128,-1,55
 553.5 -257 553.5 -257 537.5 -182.5 c 128,-1,56
 521.5 -108 521.5 -108 521.5 -20 c 2,57,-1
 521.5 225 l 2,58,59
 521.5 281 521.5 281 516.5 327 c 128,-1,60
 511.5 373 511.5 373 495 405.5 c 128,-1,61
 478.5 438 478.5 438 448.5 458.5 c 128,-1,62
 418.5 479 418.5 479 367.5 486 c 1,63,-1
 242.5 486 l 1,64,-1
 242.5 640 l 1,0,-1
EndSplineSet
EndChar

StartChar: bar
Encoding: 124 124 96
Width: 1331
GlyphClass: 1
Flags: W
LayerCount: 2
Fore
SplineSet
768 1556 m 1,0,-1
 768 -410 l 1,1,-1
 563 -410 l 1,2,-1
 563 1536 l 1,3,-1
 768 1556 l 1,0,-1
EndSplineSet
EndChar

StartChar: braceright
Encoding: 125 125 97
Width: 1331
GlyphClass: 1
Flags: W
LayerCount: 2
Fore
SplineSet
1088.5 640 m 1,0,-1
 1088.5 486 l 1,1,-1
 963.5 486 l 1,2,3
 913.5 479 913.5 479 883 458.5 c 128,-1,4
 852.5 438 852.5 438 836 405.5 c 128,-1,5
 819.5 373 819.5 373 814.5 327.5 c 128,-1,6
 809.5 282 809.5 282 809.5 225 c 2,7,-1
 809.5 -20 l 2,8,9
 809.5 -107 809.5 -107 793.5 -182 c 128,-1,10
 777.5 -257 777.5 -257 739 -312.5 c 128,-1,11
 700.5 -368 700.5 -368 635.5 -399 c 128,-1,12
 570.5 -430 570.5 -430 471.5 -430 c 0,13,14
 424.5 -430 424.5 -430 391.5 -426.5 c 128,-1,15
 358.5 -423 358.5 -423 332 -416.5 c 128,-1,16
 305.5 -410 305.5 -410 284.5 -401 c 128,-1,17
 263.5 -392 263.5 -392 242.5 -382 c 1,18,-1
 306.5 -256 l 1,19,20
 325.5 -267 325.5 -267 359 -275.5 c 128,-1,21
 392.5 -284 392.5 -284 418.5 -284 c 2,22,-1
 431.5 -284 l 1,23,24
 486.5 -280 486.5 -280 521 -261 c 128,-1,25
 555.5 -242 555.5 -242 574 -208.5 c 128,-1,26
 592.5 -175 592.5 -175 598.5 -128 c 128,-1,27
 604.5 -81 604.5 -81 604.5 -20 c 2,28,-1
 604.5 225 l 2,29,30
 604.5 277 604.5 277 610.5 326.5 c 128,-1,31
 616.5 376 616.5 376 629.5 419.5 c 128,-1,32
 642.5 463 642.5 463 663 499.5 c 128,-1,33
 683.5 536 683.5 536 714.5 563 c 1,34,35
 654.5 618 654.5 618 629.5 706.5 c 128,-1,36
 604.5 795 604.5 795 604.5 901 c 2,37,-1
 604.5 1146 l 2,38,39
 604.5 1205 604.5 1205 598.5 1252.5 c 128,-1,40
 592.5 1300 592.5 1300 574 1333.5 c 128,-1,41
 555.5 1367 555.5 1367 521.5 1386 c 128,-1,42
 487.5 1405 487.5 1405 431.5 1409 c 1,43,-1
 418.5 1409 l 2,44,45
 392.5 1409 392.5 1409 359.5 1401 c 128,-1,46
 326.5 1393 326.5 1393 306.5 1381 c 1,47,-1
 242.5 1507 l 1,48,49
 264.5 1517 264.5 1517 285 1526 c 128,-1,50
 305.5 1535 305.5 1535 332 1541 c 128,-1,51
 358.5 1547 358.5 1547 391.5 1550 c 128,-1,52
 424.5 1553 424.5 1553 471.5 1553 c 0,53,54
 569.5 1553 569.5 1553 635 1522 c 128,-1,55
 700.5 1491 700.5 1491 739 1436.5 c 128,-1,56
 777.5 1382 777.5 1382 793.5 1307.5 c 128,-1,57
 809.5 1233 809.5 1233 809.5 1146 c 2,58,-1
 809.5 901 l 2,59,60
 809.5 844 809.5 844 814.5 799 c 128,-1,61
 819.5 754 819.5 754 836 721 c 128,-1,62
 852.5 688 852.5 688 883 667.5 c 128,-1,63
 913.5 647 913.5 647 963.5 640 c 1,64,-1
 1088.5 640 l 1,0,-1
EndSplineSet
EndChar

StartChar: asciitilde
Encoding: 126 126 98
Width: 1331
GlyphClass: 1
Flags: W
LayerCount: 2
Fore
SplineSet
136.5 496 m 1,0,1
 147.5 553 147.5 553 180 612 c 128,-1,2
 212.5 671 212.5 671 258.5 718 c 128,-1,3
 304.5 765 304.5 765 362 794.5 c 128,-1,4
 419.5 824 419.5 824 482.5 824 c 0,5,6
 528.5 824 528.5 824 565.5 810.5 c 128,-1,7
 602.5 797 602.5 797 633 777 c 128,-1,8
 663.5 757 663.5 757 690 733 c 128,-1,9
 716.5 709 716.5 709 744 689 c 128,-1,10
 771.5 669 771.5 669 801 655 c 128,-1,11
 830.5 641 830.5 641 867.5 641 c 256,12,13
 904.5 641 904.5 641 934.5 656.5 c 128,-1,14
 964.5 672 964.5 672 986 696 c 128,-1,15
 1007.5 720 1007.5 720 1022 750 c 128,-1,16
 1036.5 780 1036.5 780 1044.5 811 c 1,17,-1
 1194.5 795 l 1,18,19
 1184.5 732 1184.5 732 1154 667 c 128,-1,20
 1123.5 602 1123.5 602 1077.5 550 c 128,-1,21
 1031.5 498 1031.5 498 971 465 c 128,-1,22
 910.5 432 910.5 432 842.5 432 c 0,23,24
 805.5 432 805.5 432 772.5 446 c 128,-1,25
 739.5 460 739.5 460 709.5 480 c 128,-1,26
 679.5 500 679.5 500 650.5 524 c 128,-1,27
 621.5 548 621.5 548 591 568 c 128,-1,28
 560.5 588 560.5 588 528 601.5 c 128,-1,29
 495.5 615 495.5 615 458.5 615 c 0,30,31
 426.5 615 426.5 615 399.5 604 c 128,-1,32
 372.5 593 372.5 593 351 574 c 128,-1,33
 329.5 555 329.5 555 314 530.5 c 128,-1,34
 298.5 506 298.5 506 289.5 479 c 1,35,-1
 136.5 496 l 1,0,1
EndSplineSet
EndChar

StartChar: exclamdown
Encoding: 161 161 100
Width: 1331
GlyphClass: 1
Flags: W
LayerCount: 2
Fore
SplineSet
558.5 -410 m 1,0,-1
 558.5 687 l 1,1,-1
 774.5 666 l 1,2,-1
 774.5 -410 l 1,3,-1
 558.5 -410 l 1,0,-1
541.5 1018 m 256,4,5
 541.5 1044 541.5 1044 551.5 1067 c 128,-1,6
 561.5 1090 561.5 1090 578 1106.5 c 128,-1,7
 594.5 1123 594.5 1123 617 1133.5 c 128,-1,8
 639.5 1144 639.5 1144 666.5 1144 c 0,9,10
 692.5 1144 692.5 1144 715 1133.5 c 128,-1,11
 737.5 1123 737.5 1123 753.5 1106.5 c 128,-1,12
 769.5 1090 769.5 1090 779.5 1066.5 c 128,-1,13
 789.5 1043 789.5 1043 789.5 1018 c 256,14,15
 789.5 992 789.5 992 779.5 969.5 c 128,-1,16
 769.5 947 769.5 947 753 930 c 128,-1,17
 736.5 913 736.5 913 714 903.5 c 128,-1,18
 691.5 894 691.5 894 665.5 894 c 256,19,20
 639.5 894 639.5 894 617 903.5 c 128,-1,21
 594.5 913 594.5 913 578 930 c 128,-1,22
 561.5 947 561.5 947 551.5 969.5 c 128,-1,23
 541.5 992 541.5 992 541.5 1018 c 256,4,5
EndSplineSet
EndChar

StartChar: cent
Encoding: 162 162 101
Width: 1331
GlyphClass: 1
Flags: W
LayerCount: 2
Fore
SplineSet
865 1352 m 1,0,-1
 865 1140 l 1,1,2
 920 1132 920 1132 964 1114 c 0,3,4
 1039 1085 1039 1085 1104 1015 c 1,5,-1
 1002 899 l 1,6,7
 962 934 962 934 907 957 c 0,8,9
 893 962 893 962 879.5 967 c 128,-1,10
 866 972 866 972 852 974 c 1,11,-1
 852 157 l 1,12,13
 877 159 877 159 898 163 c 128,-1,14
 919 167 919 167 939 174 c 0,15,16
 994 192 994 192 1024 213 c 1,17,-1
 1097 69 l 1,18,19
 1068 50 1068 50 1035 33.5 c 128,-1,20
 1002 17 1002 17 963 6 c 0,21,22
 940 -1 940 -1 916 -6 c 128,-1,23
 892 -11 892 -11 865 -13 c 1,24,-1
 865 -205 l 1,25,-1
 715 -205 l 1,26,-1
 715 -12 l 1,27,28
 697 -12 697 -12 670 -8.5 c 128,-1,29
 643 -5 643 -5 614 1 c 128,-1,30
 585 7 585 7 558.5 15.5 c 128,-1,31
 532 24 532 24 516 32 c 0,32,33
 443 69 443 69 389.5 127.5 c 128,-1,34
 336 186 336 186 299.5 260 c 128,-1,35
 263 334 263 334 245 418.5 c 128,-1,36
 227 503 227 503 227 591 c 0,37,38
 227 672 227 672 244.5 748 c 128,-1,39
 262 824 262 824 297.5 890 c 128,-1,40
 333 956 333 956 387.5 1009 c 128,-1,41
 442 1062 442 1062 515 1097 c 0,42,43
 531 1105 531 1105 557.5 1112.5 c 128,-1,44
 584 1120 584 1120 613.5 1126 c 128,-1,45
 643 1132 643 1132 670 1135.5 c 128,-1,46
 697 1139 697 1139 715 1139 c 1,47,-1
 715 1331 l 1,48,-1
 865 1352 l 1,0,-1
597 947 m 0,49,50
 552 923 552 923 519.5 885.5 c 128,-1,51
 487 848 487 848 466.5 800 c 128,-1,52
 446 752 446 752 436.5 695.5 c 128,-1,53
 427 639 427 639 427 578 c 0,54,55
 427 515 427 515 435.5 455.5 c 128,-1,56
 444 396 444 396 464 346 c 128,-1,57
 484 296 484 296 517 256 c 128,-1,58
 550 216 550 216 597 189 c 0,59,60
 614 180 614 180 648 171 c 128,-1,61
 682 162 682 162 728 162 c 1,62,-1
 728 975 l 1,63,64
 682 975 682 975 648 966 c 128,-1,65
 614 957 614 957 597 947 c 0,49,50
EndSplineSet
EndChar

StartChar: sterling
Encoding: 163 163 102
Width: 1331
GlyphClass: 1
Flags: W
LayerCount: 2
Fore
SplineSet
358.5 870 m 1,0,-1
 523.5 870 l 1,1,-1
 569.5 1193 l 2,2,3
 580.5 1271 580.5 1271 603.5 1337.5 c 128,-1,4
 626.5 1404 626.5 1404 664.5 1451.5 c 128,-1,5
 702.5 1499 702.5 1499 758.5 1526 c 128,-1,6
 814.5 1553 814.5 1553 893.5 1553 c 0,7,8
 945.5 1553 945.5 1553 989 1546.5 c 128,-1,9
 1032.5 1540 1032.5 1540 1069.5 1523 c 0,10,11
 1107.5 1506 1107.5 1506 1133 1491 c 128,-1,12
 1158.5 1476 1158.5 1476 1172.5 1462 c 1,13,-1
 1080.5 1359 l 1,14,15
 1009.5 1405 1009.5 1405 941.5 1405 c 0,16,17
 891.5 1405 891.5 1405 858 1389 c 128,-1,18
 824.5 1373 824.5 1373 803.5 1342.5 c 128,-1,19
 782.5 1312 782.5 1312 771 1268 c 128,-1,20
 759.5 1224 759.5 1224 752.5 1168 c 2,21,-1
 710.5 870 l 1,22,-1
 922.5 870 l 1,23,-1
 901.5 717 l 1,24,-1
 688.5 717 l 1,25,26
 631.5 270 631.5 270 602.5 229 c 2,27,-1
 512.5 106 l 1,28,-1
 678.5 151 l 1,29,-1
 1126.5 151 l 1,30,-1
 1126.5 0 l 1,31,-1
 158.5 0 l 1,32,-1
 178.5 151 l 1,33,-1
 319.5 151 l 2,34,35
 355.5 151 355.5 151 395.5 202 c 0,36,37
 436.5 253 436.5 253 502.5 717 c 1,38,-1
 358.5 717 l 1,39,-1
 358.5 870 l 1,0,-1
EndSplineSet
EndChar

StartChar: currency
Encoding: 164 164 103
Width: 1331
GlyphClass: 1
Flags: W
LayerCount: 2
Fore
SplineSet
1136.5 227 m 1,0,-1
 1033.5 124 l 1,1,-1
 873.5 285 l 1,2,3
 826.5 253 826.5 253 774 237 c 128,-1,4
 721.5 221 721.5 221 665.5 221 c 256,5,6
 610.5 221 610.5 221 558 237 c 128,-1,7
 505.5 253 505.5 253 458.5 285 c 1,8,-1
 298.5 124 l 1,9,-1
 194.5 227 l 1,10,-1
 355.5 387 l 1,11,12
 323.5 434 323.5 434 308 487 c 128,-1,13
 292.5 540 292.5 540 292.5 595 c 256,14,15
 292.5 650 292.5 650 308 703 c 128,-1,16
 323.5 756 323.5 756 355.5 803 c 1,17,-1
 194.5 963 l 1,18,-1
 298.5 1067 l 1,19,-1
 458.5 906 l 1,20,21
 505.5 937 505.5 937 558 953 c 128,-1,22
 610.5 969 610.5 969 665.5 969 c 256,23,24
 720.5 969 720.5 969 773.5 953 c 128,-1,25
 826.5 937 826.5 937 873.5 906 c 1,26,-1
 1033.5 1067 l 1,27,-1
 1136.5 963 l 1,28,-1
 977.5 803 l 1,29,30
 1039.5 706 1039.5 706 1039.5 595 c 0,31,32
 1039.5 540 1039.5 540 1023.5 487 c 128,-1,33
 1007.5 434 1007.5 434 977.5 387 c 1,34,-1
 1136.5 227 l 1,0,-1
438.5 595 m 256,35,36
 438.5 549 438.5 549 457 507.5 c 128,-1,37
 475.5 466 475.5 466 506 435 c 128,-1,38
 536.5 404 536.5 404 578 386 c 128,-1,39
 619.5 368 619.5 368 665.5 368 c 256,40,41
 711.5 368 711.5 368 753 386 c 128,-1,42
 794.5 404 794.5 404 825.5 435 c 128,-1,43
 856.5 466 856.5 466 874.5 507.5 c 128,-1,44
 892.5 549 892.5 549 892.5 595 c 256,45,46
 892.5 641 892.5 641 874.5 682.5 c 128,-1,47
 856.5 724 856.5 724 825.5 754.5 c 128,-1,48
 794.5 785 794.5 785 753.5 803 c 128,-1,49
 712.5 821 712.5 821 665.5 821 c 256,50,51
 619.5 821 619.5 821 578 803 c 128,-1,52
 536.5 785 536.5 785 506 754.5 c 128,-1,53
 475.5 724 475.5 724 457 682.5 c 128,-1,54
 438.5 641 438.5 641 438.5 595 c 256,35,36
EndSplineSet
EndChar

StartChar: yen
Encoding: 165 165 104
Width: 1331
GlyphClass: 1
Flags: W
LayerCount: 2
Fore
SplineSet
154 563 m 1,0,-1
 559 563 l 1,1,-1
 559 660 l 1,2,-1
 530 717 l 1,3,-1
 154 717 l 1,4,-1
 154 870 l 1,5,-1
 451 870 l 1,6,-1
 112 1536 l 1,7,-1
 321 1556 l 1,8,-1
 616 977 l 1,9,-1
 697 722 l 1,10,-1
 728 957 l 1,11,-1
 1023 1536 l 1,12,-1
 1219 1536 l 1,13,-1
 880 870 l 1,14,-1
 1178 870 l 1,15,-1
 1178 717 l 1,16,-1
 802 717 l 1,17,-1
 774 662 l 1,18,-1
 774 563 l 1,19,-1
 1178 563 l 1,20,-1
 1178 410 l 1,21,-1
 774 410 l 1,22,-1
 774 0 l 1,23,-1
 559 0 l 1,24,-1
 559 410 l 1,25,-1
 154 410 l 1,26,-1
 154 563 l 1,0,-1
EndSplineSet
EndChar

StartChar: brokenbar
Encoding: 166 166 105
Width: 1331
GlyphClass: 1
Flags: W
LayerCount: 2
Fore
SplineSet
768 1556 m 1,0,-1
 768 717 l 1,1,-1
 563 717 l 1,2,-1
 563 1536 l 1,3,-1
 768 1556 l 1,0,-1
768 371 m 1,4,-1
 768 -410 l 1,5,-1
 563 -410 l 1,6,-1
 563 371 l 1,7,-1
 768 371 l 1,4,-1
EndSplineSet
EndChar

StartChar: section
Encoding: 167 167 106
Width: 1331
GlyphClass: 1
Flags: W
LayerCount: 2
Fore
SplineSet
946.5 1383 m 1,0,1
 897.5 1410 897.5 1410 844 1418 c 128,-1,2
 790.5 1426 790.5 1426 732.5 1426 c 0,3,4
 682.5 1426 682.5 1426 637.5 1415 c 128,-1,5
 592.5 1404 592.5 1404 558 1379.5 c 128,-1,6
 523.5 1355 523.5 1355 503.5 1317 c 128,-1,7
 483.5 1279 483.5 1279 483.5 1226 c 0,8,9
 483.5 1175 483.5 1175 507.5 1135 c 128,-1,10
 531.5 1095 531.5 1095 571.5 1060.5 c 128,-1,11
 611.5 1026 611.5 1026 661.5 995 c 128,-1,12
 711.5 964 711.5 964 765 930.5 c 128,-1,13
 818.5 897 818.5 897 868.5 858.5 c 128,-1,14
 918.5 820 918.5 820 958.5 772.5 c 128,-1,15
 998.5 725 998.5 725 1022.5 665 c 128,-1,16
 1046.5 605 1046.5 605 1046.5 527 c 0,17,18
 1046.5 431 1046.5 431 1010.5 367 c 128,-1,19
 974.5 303 974.5 303 909.5 263 c 0,20,21
 889.5 250 889.5 250 866.5 239.5 c 128,-1,22
 843.5 229 843.5 229 817.5 221 c 1,23,-1
 850.5 197 l 2,24,25
 887.5 169 887.5 169 919.5 137 c 128,-1,26
 951.5 105 951.5 105 975 70 c 128,-1,27
 998.5 35 998.5 35 1012.5 -5.5 c 128,-1,28
 1026.5 -46 1026.5 -46 1026.5 -90 c 0,29,30
 1026.5 -169 1026.5 -169 999 -232 c 128,-1,31
 971.5 -295 971.5 -295 919 -339 c 128,-1,32
 866.5 -383 866.5 -383 790 -406.5 c 128,-1,33
 713.5 -430 713.5 -430 617.5 -430 c 0,34,35
 532.5 -430 532.5 -430 462.5 -414 c 128,-1,36
 392.5 -398 392.5 -398 323.5 -356 c 1,37,-1
 385.5 -257 l 1,38,39
 434.5 -284 434.5 -284 487.5 -292 c 128,-1,40
 540.5 -300 540.5 -300 599.5 -300 c 0,41,42
 649.5 -300 649.5 -300 694.5 -289 c 128,-1,43
 739.5 -278 739.5 -278 774 -253 c 128,-1,44
 808.5 -228 808.5 -228 828.5 -190.5 c 128,-1,45
 848.5 -153 848.5 -153 848.5 -99 c 0,46,47
 848.5 -48 848.5 -48 824 -8 c 128,-1,48
 799.5 32 799.5 32 760 66 c 128,-1,49
 720.5 100 720.5 100 670 131.5 c 128,-1,50
 619.5 163 619.5 163 566.5 196 c 128,-1,51
 513.5 229 513.5 229 463 267.5 c 128,-1,52
 412.5 306 412.5 306 373 353.5 c 128,-1,53
 333.5 401 333.5 401 309 461 c 128,-1,54
 284.5 521 284.5 521 284.5 599 c 0,55,56
 284.5 695 284.5 695 321.5 759 c 128,-1,57
 358.5 823 358.5 823 421.5 862 c 0,58,59
 464.5 889 464.5 889 513.5 904 c 1,60,-1
 481.5 929 l 2,61,62
 444.5 958 444.5 958 412.5 989.5 c 128,-1,63
 380.5 1021 380.5 1021 357 1056.5 c 128,-1,64
 333.5 1092 333.5 1092 319.5 1131.5 c 128,-1,65
 305.5 1171 305.5 1171 305.5 1217 c 0,66,67
 305.5 1296 305.5 1296 333 1358 c 128,-1,68
 360.5 1420 360.5 1420 413 1463.5 c 128,-1,69
 465.5 1507 465.5 1507 541 1530 c 128,-1,70
 616.5 1553 616.5 1553 713.5 1553 c 0,71,72
 797.5 1553 797.5 1553 868.5 1539 c 128,-1,73
 939.5 1525 939.5 1525 1007.5 1483 c 1,74,-1
 946.5 1383 l 1,0,1
550.5 785 m 0,75,76
 512.5 754 512.5 754 491 708.5 c 128,-1,77
 469.5 663 469.5 663 469.5 601 c 0,78,79
 469.5 562 469.5 562 483 527.5 c 128,-1,80
 496.5 493 496.5 493 520 461 c 128,-1,81
 543.5 429 543.5 429 576 400 c 128,-1,82
 608.5 371 608.5 371 645.5 344 c 2,83,-1
 708.5 298 l 1,84,85
 750.5 315 750.5 315 781.5 340 c 0,86,87
 819.5 372 819.5 372 841 418 c 128,-1,88
 862.5 464 862.5 464 862.5 525 c 0,89,90
 862.5 563 862.5 563 848.5 598.5 c 128,-1,91
 834.5 634 834.5 634 811 665.5 c 128,-1,92
 787.5 697 787.5 697 755.5 726 c 128,-1,93
 723.5 755 723.5 755 686.5 781 c 2,94,-1
 621.5 827 l 1,95,96
 584.5 813 584.5 813 550.5 785 c 0,75,76
EndSplineSet
EndChar

StartChar: dieresis
Encoding: 168 168 107
Width: 1331
GlyphClass: 1
Flags: W
LayerCount: 2
Fore
SplineSet
358 1536 m 1,0,-1
 563 1536 l 1,1,-1
 563 1331 l 1,2,-1
 358 1331 l 1,3,-1
 358 1536 l 1,0,-1
768 1536 m 1,4,-1
 973 1536 l 1,5,-1
 973 1331 l 1,6,-1
 768 1331 l 1,7,-1
 768 1536 l 1,4,-1
EndSplineSet
EndChar

StartChar: copyright
Encoding: 169 169 108
Width: 1331
GlyphClass: 1
Flags: W
LayerCount: 2
Fore
SplineSet
666 1553 m 256,0,1
 765 1553 765 1553 852.5 1515.5 c 128,-1,2
 940 1478 940 1478 1005.5 1412.5 c 128,-1,3
 1071 1347 1071 1347 1109 1259 c 128,-1,4
 1147 1171 1147 1171 1147 1072 c 0,5,6
 1147 972 1147 972 1109 884.5 c 128,-1,7
 1071 797 1071 797 1005.5 732 c 128,-1,8
 940 667 940 667 852.5 629 c 128,-1,9
 765 591 765 591 666 591 c 256,10,11
 567 591 567 591 479 629 c 128,-1,12
 391 667 391 667 325.5 732 c 128,-1,13
 260 797 260 797 222 884.5 c 128,-1,14
 184 972 184 972 184 1072 c 0,15,16
 184 1171 184 1171 222 1259 c 128,-1,17
 260 1347 260 1347 325.5 1412.5 c 128,-1,18
 391 1478 391 1478 479 1515.5 c 128,-1,19
 567 1553 567 1553 666 1553 c 256,0,1
666 679 m 0,20,21
 746 679 746 679 817 710 c 128,-1,22
 888 741 888 741 941.5 794.5 c 128,-1,23
 995 848 995 848 1027 919.5 c 128,-1,24
 1059 991 1059 991 1059 1072 c 256,25,26
 1059 1153 1059 1153 1028 1224.5 c 128,-1,27
 997 1296 997 1296 943.5 1350 c 128,-1,28
 890 1404 890 1404 818 1434.5 c 128,-1,29
 746 1465 746 1465 666 1465 c 0,30,31
 584 1465 584 1465 512.5 1434.5 c 128,-1,32
 441 1404 441 1404 387.5 1350 c 128,-1,33
 334 1296 334 1296 303 1224.5 c 128,-1,34
 272 1153 272 1153 272 1072 c 0,35,36
 272 992 272 992 303.5 921 c 128,-1,37
 335 850 335 850 388 796 c 128,-1,38
 441 742 441 742 513 710.5 c 128,-1,39
 585 679 585 679 666 679 c 0,20,21
829 1226 m 1,40,41
 810 1242 810 1242 774.5 1252.5 c 128,-1,42
 739 1263 739 1263 685 1263 c 0,43,44
 642 1263 642 1263 607.5 1248 c 128,-1,45
 573 1233 573 1233 549.5 1208.5 c 128,-1,46
 526 1184 526 1184 513.5 1150.5 c 128,-1,47
 501 1117 501 1117 501 1081 c 0,48,49
 501 1043 501 1043 513 1009 c 128,-1,50
 525 975 525 975 548.5 949 c 128,-1,51
 572 923 572 923 607.5 907 c 128,-1,52
 643 891 643 891 690 891 c 0,53,54
 717 891 717 891 741.5 896.5 c 128,-1,55
 766 902 766 902 786 910 c 128,-1,56
 806 918 806 918 820.5 925.5 c 128,-1,57
 835 933 835 933 841 937 c 1,58,-1
 878 872 l 1,59,60
 870 866 870 866 854.5 856.5 c 128,-1,61
 839 847 839 847 815.5 837 c 128,-1,62
 792 827 792 827 759 820 c 128,-1,63
 726 813 726 813 683 813 c 0,64,65
 620 813 620 813 567.5 836 c 128,-1,66
 515 859 515 859 478 897 c 128,-1,67
 441 935 441 935 421 984 c 128,-1,68
 401 1033 401 1033 401 1087 c 0,69,70
 401 1134 401 1134 420.5 1179.5 c 128,-1,71
 440 1225 440 1225 477 1259.5 c 128,-1,72
 514 1294 514 1294 567 1315 c 128,-1,73
 620 1336 620 1336 686 1336 c 0,74,75
 748 1336 748 1336 798 1323 c 128,-1,76
 848 1310 848 1310 881 1278 c 1,77,-1
 829 1226 l 1,40,41
EndSplineSet
EndChar

StartChar: ordfeminine
Encoding: 170 170 109
Width: 1331
GlyphClass: 1
Flags: W
LayerCount: 2
Fore
SplineSet
497 819 m 1,0,-1
 906 819 l 1,1,-1
 906 717 l 1,2,-1
 497 717 l 1,3,-1
 497 819 l 1,0,-1
906 982 m 1,4,-1
 804 982 l 1,5,-1
 804 1065 l 1,6,-1
 756 1008 l 2,7,8
 747 1001 747 1001 733.5 994.5 c 128,-1,9
 720 988 720 988 704.5 983.5 c 128,-1,10
 689 979 689 979 673.5 976 c 128,-1,11
 658 973 658 973 643 973 c 0,12,13
 604 973 604 973 565 985 c 128,-1,14
 526 997 526 997 495 1020 c 128,-1,15
 464 1043 464 1043 444.5 1078 c 128,-1,16
 425 1113 425 1113 425 1158 c 0,17,18
 425 1205 425 1205 445 1240 c 128,-1,19
 465 1275 465 1275 498 1297.5 c 128,-1,20
 531 1320 531 1320 573 1330.5 c 128,-1,21
 615 1341 615 1341 658 1341 c 0,22,23
 707 1341 707 1341 742.5 1335.5 c 128,-1,24
 778 1330 778 1330 804 1321 c 1,25,-1
 804 1342 l 2,26,27
 804 1373 804 1373 796.5 1397 c 128,-1,28
 789 1421 789 1421 773 1437.5 c 128,-1,29
 757 1454 757 1454 732.5 1462.5 c 128,-1,30
 708 1471 708 1471 673 1471 c 0,31,32
 641 1471 641 1471 617.5 1467.5 c 128,-1,33
 594 1464 594 1464 575 1459 c 0,34,35
 563 1457 563 1457 552 1454 c 128,-1,36
 541 1451 541 1451 531 1448 c 1,37,-1
 494 1517 l 1,38,39
 516 1526 516 1526 545 1535 c 0,40,41
 570 1542 570 1542 601.5 1547.5 c 128,-1,42
 633 1553 633 1553 678 1553 c 0,43,44
 737 1553 737 1553 778.5 1537.5 c 128,-1,45
 820 1522 820 1522 846.5 1493 c 128,-1,46
 873 1464 873 1464 884.5 1424 c 128,-1,47
 896 1384 896 1384 896 1335 c 2,48,-1
 896 1074 l 1,49,-1
 906 982 l 1,4,-1
804 1250 m 1,50,-1
 773 1254 l 2,51,52
 766 1255 766 1255 754.5 1256 c 128,-1,53
 743 1257 743 1257 729 1257.5 c 128,-1,54
 715 1258 715 1258 701.5 1259 c 128,-1,55
 688 1260 688 1260 678 1260 c 0,56,57
 649 1260 649 1260 621.5 1254.5 c 128,-1,58
 594 1249 594 1249 572.5 1237.5 c 128,-1,59
 551 1226 551 1226 537 1206.5 c 128,-1,60
 523 1187 523 1187 523 1158 c 0,61,62
 523 1135 523 1135 533.5 1116.5 c 128,-1,63
 544 1098 544 1098 561.5 1084 c 128,-1,64
 579 1070 579 1070 601 1062.5 c 128,-1,65
 623 1055 623 1055 647 1055 c 0,66,67
 694 1055 694 1055 732 1073.5 c 128,-1,68
 770 1092 770 1092 804 1122 c 1,69,-1
 804 1250 l 1,50,-1
EndSplineSet
EndChar

StartChar: guillemotleft
Encoding: 171 171 110
Width: 1331
GlyphClass: 1
Flags: W
LayerCount: 2
Fore
SplineSet
624 1051 m 1,0,-1
 675 923 l 1,1,-1
 342 625 l 1,2,-1
 201 563 l 1,3,-1
 341 502 l 1,4,-1
 677 206 l 1,5,-1
 622 68 l 1,6,-1
 142 489 l 1,7,-1
 142 632 l 1,8,-1
 624 1051 l 1,0,-1
1136 1051 m 1,9,-1
 1187 923 l 1,10,-1
 854 625 l 1,11,-1
 713 563 l 1,12,-1
 853 502 l 1,13,-1
 1189 206 l 1,14,-1
 1134 68 l 1,15,-1
 654 489 l 1,16,-1
 654 632 l 1,17,-1
 1136 1051 l 1,9,-1
EndSplineSet
EndChar

StartChar: logicalnot
Encoding: 172 172 111
Width: 1331
GlyphClass: 1
Flags: W
LayerCount: 2
Fore
SplineSet
1231 819 m 1,0,-1
 1214 603 l 1,1,-1
 1214 287 l 1,2,-1
 1009 287 l 1,3,-1
 1009 460 l 1,4,-1
 1025 655 l 1,5,-1
 100 655 l 1,6,-1
 100 819 l 1,7,-1
 1231 819 l 1,0,-1
EndSplineSet
EndChar

StartChar: registered
Encoding: 174 174 113
Width: 1331
GlyphClass: 1
Flags: W
LayerCount: 2
Fore
SplineSet
666 1553 m 256,0,1
 765 1553 765 1553 852.5 1515.5 c 128,-1,2
 940 1478 940 1478 1005.5 1412.5 c 128,-1,3
 1071 1347 1071 1347 1109 1259 c 128,-1,4
 1147 1171 1147 1171 1147 1072 c 0,5,6
 1147 972 1147 972 1109 884.5 c 128,-1,7
 1071 797 1071 797 1005.5 732 c 128,-1,8
 940 667 940 667 852.5 629 c 128,-1,9
 765 591 765 591 666 591 c 256,10,11
 567 591 567 591 479 629 c 128,-1,12
 391 667 391 667 325.5 732 c 128,-1,13
 260 797 260 797 222 884.5 c 128,-1,14
 184 972 184 972 184 1072 c 0,15,16
 184 1171 184 1171 222 1259 c 128,-1,17
 260 1347 260 1347 325.5 1412.5 c 128,-1,18
 391 1478 391 1478 479 1515.5 c 128,-1,19
 567 1553 567 1553 666 1553 c 256,0,1
666 679 m 0,20,21
 746 679 746 679 817 710 c 128,-1,22
 888 741 888 741 941.5 794.5 c 128,-1,23
 995 848 995 848 1027 919.5 c 128,-1,24
 1059 991 1059 991 1059 1072 c 256,25,26
 1059 1153 1059 1153 1028 1224.5 c 128,-1,27
 997 1296 997 1296 943.5 1350 c 128,-1,28
 890 1404 890 1404 818 1434.5 c 128,-1,29
 746 1465 746 1465 666 1465 c 0,30,31
 584 1465 584 1465 512.5 1434.5 c 128,-1,32
 441 1404 441 1404 387.5 1350 c 128,-1,33
 334 1296 334 1296 303 1224.5 c 128,-1,34
 272 1153 272 1153 272 1072 c 0,35,36
 272 992 272 992 303.5 921 c 128,-1,37
 335 850 335 850 388 796 c 128,-1,38
 441 742 441 742 513 710.5 c 128,-1,39
 585 679 585 679 666 679 c 0,20,21
588 1041 m 1,40,-1
 588 819 l 1,41,-1
 512 819 l 1,42,-1
 512 1251 l 1,43,-1
 500 1323 l 1,44,45
 511 1325 511 1325 528 1326.5 c 128,-1,46
 545 1328 545 1328 563.5 1329 c 128,-1,47
 582 1330 582 1330 600 1330.5 c 128,-1,48
 618 1331 618 1331 634 1331 c 0,49,50
 726 1331 726 1331 772.5 1300.5 c 128,-1,51
 819 1270 819 1270 819 1196 c 0,52,53
 819 1158 819 1158 810.5 1132.5 c 128,-1,54
 802 1107 802 1107 784 1090.5 c 128,-1,55
 766 1074 766 1074 739.5 1064.5 c 128,-1,56
 713 1055 713 1055 678 1049 c 1,57,-1
 729 1033 l 1,58,-1
 890 819 l 1,59,-1
 809 819 l 1,60,-1
 648 1034 l 2,61,62
 645 1039 645 1039 640 1040 c 128,-1,63
 635 1041 635 1041 632 1041 c 2,64,-1
 588 1041 l 1,40,-1
588 1199 m 1,65,-1
 588 1096 l 1,66,-1
 642 1096 l 2,67,68
 707 1096 707 1096 729.5 1120 c 128,-1,69
 752 1144 752 1144 752 1190 c 0,70,71
 752 1221 752 1221 743 1239 c 128,-1,72
 734 1257 734 1257 719.5 1267 c 128,-1,73
 705 1277 705 1277 685.5 1279.5 c 128,-1,74
 666 1282 666 1282 643 1282 c 0,75,76
 628 1282 628 1282 610.5 1281 c 128,-1,77
 593 1280 593 1280 581 1278 c 1,78,-1
 588 1199 l 1,65,-1
EndSplineSet
EndChar

StartChar: macron
Encoding: 175 175 114
Width: 1331
GlyphClass: 1
Flags: W
LayerCount: 2
Fore
SplineSet
307 1536 m 1,0,-1
 1024 1536 l 1,1,-1
 1024 1382 l 1,2,-1
 307 1382 l 1,3,-1
 307 1536 l 1,0,-1
EndSplineSet
EndChar

StartChar: degree
Encoding: 176 176 115
Width: 1331
GlyphClass: 1
Flags: W
LayerCount: 2
Fore
SplineSet
665.5 1553 m 256,0,1
 722.5 1553 722.5 1553 773 1531.5 c 128,-1,2
 823.5 1510 823.5 1510 860.5 1472.5 c 128,-1,3
 897.5 1435 897.5 1435 919 1384.5 c 128,-1,4
 940.5 1334 940.5 1334 940.5 1277 c 256,5,6
 940.5 1220 940.5 1220 919 1169.5 c 128,-1,7
 897.5 1119 897.5 1119 860.5 1081.5 c 128,-1,8
 823.5 1044 823.5 1044 773 1022 c 128,-1,9
 722.5 1000 722.5 1000 665.5 1000 c 256,10,11
 608.5 1000 608.5 1000 558 1022 c 128,-1,12
 507.5 1044 507.5 1044 470.5 1081.5 c 128,-1,13
 433.5 1119 433.5 1119 412 1169.5 c 128,-1,14
 390.5 1220 390.5 1220 390.5 1277 c 256,15,16
 390.5 1334 390.5 1334 412 1384.5 c 128,-1,17
 433.5 1435 433.5 1435 470.5 1472.5 c 128,-1,18
 507.5 1510 507.5 1510 558 1531.5 c 128,-1,19
 608.5 1553 608.5 1553 665.5 1553 c 256,0,1
665.5 1114 m 256,20,21
 699.5 1114 699.5 1114 729 1127 c 128,-1,22
 758.5 1140 758.5 1140 780.5 1162 c 128,-1,23
 802.5 1184 802.5 1184 815.5 1213.5 c 128,-1,24
 828.5 1243 828.5 1243 828.5 1277 c 256,25,26
 828.5 1311 828.5 1311 815.5 1340.5 c 128,-1,27
 802.5 1370 802.5 1370 780.5 1392 c 128,-1,28
 758.5 1414 758.5 1414 729 1427 c 128,-1,29
 699.5 1440 699.5 1440 665.5 1440 c 256,30,31
 631.5 1440 631.5 1440 602 1427 c 128,-1,32
 572.5 1414 572.5 1414 550.5 1392 c 128,-1,33
 528.5 1370 528.5 1370 515.5 1340.5 c 128,-1,34
 502.5 1311 502.5 1311 502.5 1277 c 256,35,36
 502.5 1243 502.5 1243 515.5 1213.5 c 128,-1,37
 528.5 1184 528.5 1184 550.5 1162 c 128,-1,38
 572.5 1140 572.5 1140 602 1127 c 128,-1,39
 631.5 1114 631.5 1114 665.5 1114 c 256,20,21
EndSplineSet
EndChar

StartChar: plusminus
Encoding: 177 177 116
Width: 1331
GlyphClass: 1
Flags: W
LayerCount: 2
Fore
SplineSet
205 883 m 1,0,-1
 587 883 l 1,1,-1
 587 1228 l 1,2,-1
 745 1228 l 1,3,-1
 745 883 l 1,4,-1
 1126 883 l 1,5,-1
 1126 756 l 1,6,-1
 745 756 l 1,7,-1
 745 410 l 1,8,-1
 587 410 l 1,9,-1
 587 756 l 1,10,-1
 205 756 l 1,11,-1
 205 883 l 1,0,-1
205 297 m 1,12,-1
 1126 297 l 1,13,-1
 1126 154 l 1,14,-1
 205 154 l 1,15,-1
 205 297 l 1,12,-1
EndSplineSet
EndChar

StartChar: twosuperior
Encoding: 178 178 117
Width: 1331
GlyphClass: 1
Flags: W
LayerCount: 2
Fore
SplineSet
426.5 737 m 1,0,-1
 426.5 823 l 1,1,2
 450.5 860 450.5 860 477.5 896.5 c 128,-1,3
 504.5 933 504.5 933 533.5 967 c 128,-1,4
 562.5 1001 562.5 1001 589.5 1032 c 128,-1,5
 616.5 1063 616.5 1063 639.5 1090 c 0,6,7
 666.5 1121 666.5 1121 691 1146 c 128,-1,8
 715.5 1171 715.5 1171 734.5 1196.5 c 128,-1,9
 753.5 1222 753.5 1222 765 1249 c 128,-1,10
 776.5 1276 776.5 1276 776.5 1308 c 0,11,12
 776.5 1333 776.5 1333 767 1354.5 c 128,-1,13
 757.5 1376 757.5 1376 741 1392 c 128,-1,14
 724.5 1408 724.5 1408 701 1417.5 c 128,-1,15
 677.5 1427 677.5 1427 650.5 1427 c 0,16,17
 619.5 1427 619.5 1427 596.5 1418.5 c 128,-1,18
 573.5 1410 573.5 1410 556.5 1396 c 128,-1,19
 539.5 1382 539.5 1382 527 1365.5 c 128,-1,20
 514.5 1349 514.5 1349 503.5 1331 c 1,21,-1
 431.5 1362 l 1,22,23
 444.5 1395 444.5 1395 465.5 1423 c 128,-1,24
 486.5 1451 486.5 1451 514.5 1471 c 128,-1,25
 542.5 1491 542.5 1491 578.5 1502 c 128,-1,26
 614.5 1513 614.5 1513 658.5 1513 c 0,27,28
 709.5 1513 709.5 1513 750 1495 c 128,-1,29
 790.5 1477 790.5 1477 818.5 1447 c 128,-1,30
 846.5 1417 846.5 1417 861 1379 c 128,-1,31
 875.5 1341 875.5 1341 875.5 1303 c 0,32,33
 875.5 1263 875.5 1263 861 1227.5 c 128,-1,34
 846.5 1192 846.5 1192 824.5 1159.5 c 128,-1,35
 802.5 1127 802.5 1127 777.5 1099 c 128,-1,36
 752.5 1071 752.5 1071 732.5 1047 c 0,37,38
 705.5 1016 705.5 1016 679 985.5 c 128,-1,39
 652.5 955 652.5 955 628 926 c 128,-1,40
 603.5 897 603.5 897 582.5 870.5 c 128,-1,41
 561.5 844 561.5 844 545.5 819 c 1,42,-1
 904.5 819 l 1,43,-1
 904.5 737 l 1,44,-1
 426.5 737 l 1,0,-1
EndSplineSet
EndChar

StartChar: threesuperior
Encoding: 179 179 118
Width: 1331
GlyphClass: 1
Flags: W
LayerCount: 2
Fore
SplineSet
436.5 1423 m 1,0,-1
 444.5 1505 l 1,1,-1
 844.5 1505 l 1,2,-1
 844.5 1434 l 1,3,4
 838.5 1414 838.5 1414 823.5 1391 c 128,-1,5
 808.5 1368 808.5 1368 789 1345.5 c 128,-1,6
 769.5 1323 769.5 1323 746 1301 c 128,-1,7
 722.5 1279 722.5 1279 698.5 1258 c 1,8,-1
 631.5 1221 l 1,9,10
 636.5 1222 636.5 1222 644.5 1222.5 c 128,-1,11
 652.5 1223 652.5 1223 659.5 1223 c 0,12,13
 708.5 1223 708.5 1223 751.5 1210.5 c 128,-1,14
 794.5 1198 794.5 1198 826 1173 c 128,-1,15
 857.5 1148 857.5 1148 876 1110 c 128,-1,16
 894.5 1072 894.5 1072 894.5 1020 c 0,17,18
 894.5 971 894.5 971 876 930.5 c 128,-1,19
 857.5 890 857.5 890 825 858 c 128,-1,20
 792.5 826 792.5 826 749.5 803.5 c 128,-1,21
 706.5 781 706.5 781 658 766.5 c 128,-1,22
 609.5 752 609.5 752 557.5 744.5 c 128,-1,23
 505.5 737 505.5 737 455.5 737 c 1,24,-1
 455.5 819 l 1,25,26
 497.5 820 497.5 820 538 826.5 c 128,-1,27
 578.5 833 578.5 833 615.5 844 c 128,-1,28
 652.5 855 652.5 855 684 871 c 128,-1,29
 715.5 887 715.5 887 738.5 908 c 128,-1,30
 761.5 929 761.5 929 774 956 c 128,-1,31
 786.5 983 786.5 983 786.5 1015 c 0,32,33
 786.5 1052 786.5 1052 771 1076.5 c 128,-1,34
 755.5 1101 755.5 1101 728 1115 c 128,-1,35
 700.5 1129 700.5 1129 664.5 1135.5 c 128,-1,36
 628.5 1142 628.5 1142 586.5 1142 c 0,37,38
 570.5 1142 570.5 1142 550.5 1141 c 128,-1,39
 530.5 1140 530.5 1140 515.5 1139 c 1,40,-1
 515.5 1219 l 1,41,42
 537.5 1234 537.5 1234 562 1253.5 c 128,-1,43
 586.5 1273 586.5 1273 611.5 1294 c 128,-1,44
 636.5 1315 636.5 1315 660 1337 c 128,-1,45
 683.5 1359 683.5 1359 703 1378.5 c 128,-1,46
 722.5 1398 722.5 1398 735.5 1415.5 c 128,-1,47
 748.5 1433 748.5 1433 753.5 1444 c 1,48,-1
 675.5 1423 l 1,49,-1
 436.5 1423 l 1,0,-1
EndSplineSet
EndChar

StartChar: acute
Encoding: 180 180 119
Width: 1331
GlyphClass: 1
Flags: W
LayerCount: 2
Fore
SplineSet
629 1536 m 1,0,-1
 865 1556 l 1,1,-1
 553 1163 l 5,2,-1
 400 1163 l 5,3,-1
 629 1536 l 1,0,-1
EndSplineSet
EndChar

StartChar: mu
Encoding: 181 181 120
Width: 1331
GlyphClass: 1
Flags: W
LayerCount: 2
Fore
SplineSet
1199 37 m 1,0,1
 1190 28 1190 28 1170.5 18.5 c 128,-1,2
 1151 9 1151 9 1126.5 1 c 128,-1,3
 1102 -7 1102 -7 1074 -12 c 128,-1,4
 1046 -17 1046 -17 1021 -17 c 0,5,6
 927 -17 927 -17 861 27 c 128,-1,7
 795 71 795 71 772 159 c 1,8,-1
 746 88 l 1,9,10
 703 41 703 41 630 12 c 128,-1,11
 557 -17 557 -17 457 -17 c 0,12,13
 438 -17 438 -17 412.5 -15.5 c 128,-1,14
 387 -14 387 -14 360.5 -9.5 c 128,-1,15
 334 -5 334 -5 309.5 3.5 c 128,-1,16
 285 12 285 12 270 26 c 1,17,-1
 316 -170 l 1,18,-1
 316 -512 l 1,19,-1
 132 -512 l 1,20,-1
 132 1126 l 1,21,-1
 316 1145 l 1,22,-1
 316 356 l 2,23,24
 316 314 316 314 327.5 275 c 128,-1,25
 339 236 339 236 363 205 c 128,-1,26
 387 174 387 174 423 155 c 128,-1,27
 459 136 459 136 510 136 c 0,28,29
 543 136 543 136 574.5 146 c 128,-1,30
 606 156 606 156 635.5 171 c 128,-1,31
 665 186 665 186 693 206 c 128,-1,32
 721 226 721 226 746 247 c 1,33,-1
 746 1126 l 1,34,-1
 928 1145 l 1,35,-1
 928 360 l 2,36,37
 928 299 928 299 936 256 c 128,-1,38
 944 213 944 213 957.5 186.5 c 128,-1,39
 971 160 971 160 991.5 148 c 128,-1,40
 1012 136 1012 136 1039 136 c 0,41,42
 1064 136 1064 136 1087.5 140.5 c 128,-1,43
 1111 145 1111 145 1132 154 c 1,44,-1
 1199 37 l 1,0,1
EndSplineSet
EndChar

StartChar: paragraph
Encoding: 182 182 121
Width: 1331
GlyphClass: 1
Flags: W
LayerCount: 2
Fore
SplineSet
651 663 m 1,0,1
 575 667 575 667 521 682 c 128,-1,2
 467 697 467 697 423 719 c 0,3,4
 349 755 349 755 305 802.5 c 128,-1,5
 261 850 261 850 237 904.5 c 128,-1,6
 213 959 213 959 205 1019 c 128,-1,7
 197 1079 197 1079 197 1139 c 0,8,9
 197 1247 197 1247 240.5 1320.5 c 128,-1,10
 284 1394 284 1394 351 1440.5 c 128,-1,11
 418 1487 418 1487 497.5 1509.5 c 128,-1,12
 577 1532 577 1532 651 1536 c 1,13,-1
 1134 1536 l 1,14,-1
 1134 -410 l 1,15,-1
 961 -410 l 1,16,-1
 961 1380 l 1,17,-1
 824 1380 l 1,18,-1
 824 -410 l 1,19,-1
 651 -410 l 1,20,-1
 651 663 l 1,0,1
EndSplineSet
EndChar

StartChar: periodcentered
Encoding: 183 183 122
Width: 1331
GlyphClass: 1
Flags: W
LayerCount: 2
Fore
SplineSet
497 666 m 256,0,1
 497 701 497 701 510.5 731.5 c 128,-1,2
 524 762 524 762 547 785 c 128,-1,3
 570 808 570 808 600 821.5 c 128,-1,4
 630 835 630 835 665 835 c 256,5,6
 700 835 700 835 730.5 821.5 c 128,-1,7
 761 808 761 808 784.5 785 c 128,-1,8
 808 762 808 762 821 731 c 128,-1,9
 834 700 834 700 834 666 c 256,10,11
 834 631 834 631 821 599.5 c 128,-1,12
 808 568 808 568 785 545 c 128,-1,13
 762 522 762 522 732 508.5 c 128,-1,14
 702 495 702 495 667 495 c 256,15,16
 632 495 632 495 601 508.5 c 128,-1,17
 570 522 570 522 547 545 c 128,-1,18
 524 568 524 568 510.5 599.5 c 128,-1,19
 497 631 497 631 497 666 c 256,0,1
EndSplineSet
EndChar

StartChar: cedilla
Encoding: 184 184 123
Width: 1331
GlyphClass: 1
Flags: W
LayerCount: 2
Fore
SplineSet
829 0 m 1,0,1
 853 -28 853 -28 871 -60 c 0,2,3
 887 -88 887 -88 900.5 -125 c 128,-1,4
 914 -162 914 -162 914 -203 c 0,5,6
 914 -248 914 -248 895 -287 c 128,-1,7
 876 -326 876 -326 844 -355 c 128,-1,8
 812 -384 812 -384 770.5 -400.5 c 128,-1,9
 729 -417 729 -417 684 -417 c 0,10,11
 633 -417 633 -417 585.5 -403 c 128,-1,12
 538 -389 538 -389 500 -372 c 0,13,14
 456 -353 456 -353 417 -326 c 1,15,-1
 490 -223 l 1,16,17
 517 -241 517 -241 545 -255 c 0,18,19
 570 -266 570 -266 600 -276 c 128,-1,20
 630 -286 630 -286 660 -286 c 0,21,22
 698 -286 698 -286 727.5 -261.5 c 128,-1,23
 757 -237 757 -237 757 -194 c 0,24,25
 757 -160 757 -160 740 -125.5 c 128,-1,26
 723 -91 723 -91 703 -63 c 0,27,28
 678 -30 678 -30 649 0 c 1,29,-1
 829 0 l 1,0,1
EndSplineSet
EndChar

StartChar: onesuperior
Encoding: 185 185 124
Width: 1331
GlyphClass: 1
Flags: W
LayerCount: 2
Fore
SplineSet
449.5 737 m 1,0,-1
 449.5 819 l 1,1,-1
 625.5 819 l 1,2,-1
 625.5 1314 l 1,3,-1
 654.5 1430 l 1,4,-1
 585.5 1334 l 1,5,-1
 476.5 1238 l 1,6,-1
 421.5 1300 l 1,7,-1
 655.5 1516 l 1,8,-1
 732.5 1505 l 1,9,-1
 732.5 819 l 1,10,-1
 909.5 819 l 1,11,-1
 909.5 737 l 1,12,-1
 449.5 737 l 1,0,-1
EndSplineSet
EndChar

StartChar: ordmasculine
Encoding: 186 186 125
Width: 1331
GlyphClass: 1
Flags: W
LayerCount: 2
Fore
SplineSet
469.5 819 m 1,0,-1
 878.5 819 l 1,1,-1
 878.5 717 l 1,2,-1
 469.5 717 l 1,3,-1
 469.5 819 l 1,0,-1
667.5 973 m 0,4,5
 611.5 973 611.5 973 564 995.5 c 128,-1,6
 516.5 1018 516.5 1018 482 1057 c 128,-1,7
 447.5 1096 447.5 1096 428.5 1149 c 128,-1,8
 409.5 1202 409.5 1202 409.5 1265 c 256,9,10
 409.5 1327 409.5 1327 428 1380 c 128,-1,11
 446.5 1433 446.5 1433 480.5 1471.5 c 128,-1,12
 514.5 1510 514.5 1510 562 1531.5 c 128,-1,13
 609.5 1553 609.5 1553 667.5 1553 c 0,14,15
 724.5 1553 724.5 1553 771.5 1531.5 c 128,-1,16
 818.5 1510 818.5 1510 851.5 1471.5 c 128,-1,17
 884.5 1433 884.5 1433 903 1380 c 128,-1,18
 921.5 1327 921.5 1327 921.5 1265 c 256,19,20
 921.5 1203 921.5 1203 904 1149.5 c 128,-1,21
 886.5 1096 886.5 1096 853.5 1057 c 128,-1,22
 820.5 1018 820.5 1018 773 995.5 c 128,-1,23
 725.5 973 725.5 973 667.5 973 c 0,4,5
824.5 1251 m 0,24,25
 824.5 1292 824.5 1292 815.5 1332 c 128,-1,26
 806.5 1372 806.5 1372 788 1404 c 128,-1,27
 769.5 1436 769.5 1436 739 1455.5 c 128,-1,28
 708.5 1475 708.5 1475 665.5 1475 c 0,29,30
 624.5 1475 624.5 1475 594.5 1458 c 128,-1,31
 564.5 1441 564.5 1441 545 1412.5 c 128,-1,32
 525.5 1384 525.5 1384 516 1348.5 c 128,-1,33
 506.5 1313 506.5 1313 506.5 1275 c 0,34,35
 506.5 1233 506.5 1233 516 1193 c 128,-1,36
 525.5 1153 525.5 1153 545.5 1122 c 128,-1,37
 565.5 1091 565.5 1091 596 1072 c 128,-1,38
 626.5 1053 626.5 1053 669.5 1053 c 0,39,40
 710.5 1053 710.5 1053 740 1069.5 c 128,-1,41
 769.5 1086 769.5 1086 788 1114 c 128,-1,42
 806.5 1142 806.5 1142 815.5 1177.5 c 128,-1,43
 824.5 1213 824.5 1213 824.5 1251 c 0,24,25
EndSplineSet
EndChar

StartChar: guillemotright
Encoding: 187 187 126
Width: 1331
GlyphClass: 1
Flags: W
LayerCount: 2
Fore
SplineSet
677 632 m 1,0,-1
 677 489 l 1,1,-1
 198 68 l 1,2,-1
 142 206 l 1,3,-1
 478 502 l 1,4,-1
 618 563 l 1,5,-1
 477 625 l 1,6,-1
 144 923 l 1,7,-1
 196 1051 l 1,8,-1
 677 632 l 1,0,-1
1189 632 m 1,9,-1
 1189 489 l 1,10,-1
 710 68 l 1,11,-1
 654 206 l 1,12,-1
 990 502 l 1,13,-1
 1130 563 l 1,14,-1
 989 625 l 1,15,-1
 656 923 l 1,16,-1
 708 1051 l 1,17,-1
 1189 632 l 1,9,-1
EndSplineSet
EndChar

StartChar: onequarter
Encoding: 188 188 127
Width: 1331
GlyphClass: 1
Flags: W
LayerCount: 2
Fore
SplineSet
489 0 m 1,0,-1
 361 0 l 1,1,-1
 950 1536 l 1,2,-1
 1069 1536 l 1,3,-1
 489 0 l 1,0,-1
107 737 m 1,4,-1
 107 819 l 1,5,-1
 283 819 l 1,6,-1
 283 1314 l 1,7,-1
 313 1430 l 1,8,-1
 243 1334 l 1,9,-1
 135 1238 l 1,10,-1
 79 1300 l 1,11,-1
 314 1516 l 1,12,-1
 391 1505 l 1,13,-1
 391 819 l 1,14,-1
 568 819 l 1,15,-1
 568 737 l 1,16,-1
 107 737 l 1,4,-1
1245 154 m 1,17,-1
 1153 154 l 1,18,-1
 1153 0 l 1,19,-1
 1045 0 l 1,20,-1
 1045 154 l 1,21,-1
 740 154 l 1,22,-1
 740 241 l 1,23,-1
 988 778 l 1,24,-1
 1085 768 l 1,25,-1
 872 307 l 1,26,-1
 825 236 l 1,27,-1
 1045 236 l 1,28,-1
 1045 443 l 1,29,-1
 1153 435 l 1,30,-1
 1153 236 l 1,31,-1
 1252 236 l 1,32,-1
 1245 154 l 1,17,-1
EndSplineSet
EndChar

StartChar: onehalf
Encoding: 189 189 128
Width: 1331
GlyphClass: 1
Flags: W
LayerCount: 2
Fore
SplineSet
473 0 m 1,0,-1
 345 0 l 1,1,-1
 934 1536 l 1,2,-1
 1053 1536 l 1,3,-1
 473 0 l 1,0,-1
91 737 m 1,4,-1
 91 819 l 1,5,-1
 267 819 l 1,6,-1
 267 1314 l 1,7,-1
 297 1430 l 1,8,-1
 227 1334 l 1,9,-1
 119 1238 l 1,10,-1
 63 1300 l 1,11,-1
 298 1516 l 1,12,-1
 375 1505 l 1,13,-1
 375 819 l 1,14,-1
 552 819 l 1,15,-1
 552 737 l 1,16,-1
 91 737 l 1,4,-1
790 0 m 1,17,-1
 790 86 l 1,18,19
 814 123 814 123 841 159.5 c 128,-1,20
 868 196 868 196 897 230 c 128,-1,21
 926 264 926 264 953 295 c 128,-1,22
 980 326 980 326 1003 352 c 0,23,24
 1030 383 1030 383 1054.5 408.5 c 128,-1,25
 1079 434 1079 434 1098 459 c 128,-1,26
 1117 484 1117 484 1128.5 511.5 c 128,-1,27
 1140 539 1140 539 1140 570 c 0,28,29
 1140 595 1140 595 1130.5 617 c 128,-1,30
 1121 639 1121 639 1104 655 c 128,-1,31
 1087 671 1087 671 1064 680.5 c 128,-1,32
 1041 690 1041 690 1014 690 c 0,33,34
 983 690 983 690 960 681.5 c 128,-1,35
 937 673 937 673 920 659 c 128,-1,36
 903 645 903 645 890.5 628 c 128,-1,37
 878 611 878 611 867 594 c 1,38,-1
 795 625 l 1,39,40
 808 658 808 658 829 686 c 128,-1,41
 850 714 850 714 878 734 c 128,-1,42
 906 754 906 754 942 765 c 128,-1,43
 978 776 978 776 1022 776 c 0,44,45
 1073 776 1073 776 1113.5 757.5 c 128,-1,46
 1154 739 1154 739 1182 709.5 c 128,-1,47
 1210 680 1210 680 1224.5 642 c 128,-1,48
 1239 604 1239 604 1239 565 c 0,49,50
 1239 525 1239 525 1224.5 490 c 128,-1,51
 1210 455 1210 455 1188 422.5 c 128,-1,52
 1166 390 1166 390 1141 362 c 128,-1,53
 1116 334 1116 334 1096 309 c 0,54,55
 1069 278 1069 278 1042.5 248 c 128,-1,56
 1016 218 1016 218 991.5 189 c 128,-1,57
 967 160 967 160 946 133 c 128,-1,58
 925 106 925 106 909 82 c 1,59,-1
 1268 82 l 1,60,-1
 1268 0 l 1,61,-1
 790 0 l 1,17,-1
EndSplineSet
EndChar

StartChar: threequarters
Encoding: 190 190 129
Width: 1331
GlyphClass: 1
Flags: W
LayerCount: 2
Fore
SplineSet
445 0 m 1,0,-1
 317 0 l 1,1,-1
 906 1536 l 1,2,-1
 1025 1536 l 1,3,-1
 445 0 l 1,0,-1
1178 154 m 1,4,-1
 1086 154 l 1,5,-1
 1086 0 l 1,6,-1
 979 0 l 1,7,-1
 979 154 l 1,8,-1
 673 154 l 1,9,-1
 673 241 l 1,10,-1
 921 778 l 1,11,-1
 1019 768 l 1,12,-1
 806 307 l 1,13,-1
 758 236 l 1,14,-1
 979 236 l 1,15,-1
 979 443 l 1,16,-1
 1086 435 l 1,17,-1
 1086 236 l 1,18,-1
 1185 236 l 1,19,-1
 1178 154 l 1,4,-1
146 1423 m 1,20,-1
 154 1505 l 1,21,-1
 554 1505 l 1,22,-1
 554 1434 l 1,23,24
 548 1414 548 1414 533 1391 c 128,-1,25
 518 1368 518 1368 498.5 1345.5 c 128,-1,26
 479 1323 479 1323 455.5 1301 c 128,-1,27
 432 1279 432 1279 408 1258 c 1,28,-1
 341 1221 l 1,29,30
 346 1222 346 1222 354 1222.5 c 128,-1,31
 362 1223 362 1223 369 1223 c 0,32,33
 418 1223 418 1223 461 1210.5 c 128,-1,34
 504 1198 504 1198 535.5 1173 c 128,-1,35
 567 1148 567 1148 585.5 1110 c 128,-1,36
 604 1072 604 1072 604 1020 c 0,37,38
 604 971 604 971 585.5 930.5 c 128,-1,39
 567 890 567 890 534.5 858 c 128,-1,40
 502 826 502 826 459 803.5 c 128,-1,41
 416 781 416 781 367.5 766.5 c 128,-1,42
 319 752 319 752 267 744.5 c 128,-1,43
 215 737 215 737 165 737 c 1,44,-1
 165 819 l 1,45,46
 207 820 207 820 247.5 826.5 c 128,-1,47
 288 833 288 833 325 844 c 128,-1,48
 362 855 362 855 393.5 871 c 128,-1,49
 425 887 425 887 448 908 c 128,-1,50
 471 929 471 929 483.5 956 c 128,-1,51
 496 983 496 983 496 1015 c 0,52,53
 496 1052 496 1052 480.5 1076.5 c 128,-1,54
 465 1101 465 1101 437.5 1115 c 128,-1,55
 410 1129 410 1129 374 1135.5 c 128,-1,56
 338 1142 338 1142 296 1142 c 0,57,58
 280 1142 280 1142 260 1141 c 128,-1,59
 240 1140 240 1140 225 1139 c 1,60,-1
 225 1219 l 1,61,62
 247 1234 247 1234 271.5 1253.5 c 128,-1,63
 296 1273 296 1273 321 1294 c 128,-1,64
 346 1315 346 1315 369.5 1337 c 128,-1,65
 393 1359 393 1359 412.5 1378.5 c 128,-1,66
 432 1398 432 1398 445 1415.5 c 128,-1,67
 458 1433 458 1433 463 1444 c 1,68,-1
 385 1423 l 1,69,-1
 146 1423 l 1,20,-1
EndSplineSet
EndChar

StartChar: questiondown
Encoding: 191 191 130
Width: 1331
GlyphClass: 1
Flags: W
LayerCount: 2
Fore
SplineSet
208.5 -45 m 0,0,1
 208.5 20 208.5 20 226 71 c 128,-1,2
 243.5 122 243.5 122 271.5 164 c 128,-1,3
 299.5 206 299.5 206 336 242 c 128,-1,4
 372.5 278 372.5 278 411 312 c 128,-1,5
 449.5 346 449.5 346 485.5 382 c 128,-1,6
 521.5 418 521.5 418 550 459.5 c 128,-1,7
 578.5 501 578.5 501 595.5 551.5 c 128,-1,8
 612.5 602 612.5 602 612.5 666 c 1,9,-1
 827.5 687 l 1,10,11
 827.5 596 827.5 596 810.5 526.5 c 128,-1,12
 793.5 457 793.5 457 765 403 c 128,-1,13
 736.5 349 736.5 349 700.5 307.5 c 128,-1,14
 664.5 266 664.5 266 626 232 c 128,-1,15
 587.5 198 587.5 198 551 167 c 128,-1,16
 514.5 136 514.5 136 486.5 103.5 c 128,-1,17
 458.5 71 458.5 71 441 33 c 128,-1,18
 423.5 -5 423.5 -5 423.5 -53 c 0,19,20
 423.5 -106 423.5 -106 444 -145 c 128,-1,21
 464.5 -184 464.5 -184 500 -208.5 c 128,-1,22
 535.5 -233 535.5 -233 583 -245 c 128,-1,23
 630.5 -257 630.5 -257 684.5 -257 c 0,24,25
 723.5 -257 723.5 -257 765 -245.5 c 128,-1,26
 806.5 -234 806.5 -234 846 -212.5 c 128,-1,27
 885.5 -191 885.5 -191 922 -160.5 c 128,-1,28
 958.5 -130 958.5 -130 986.5 -92 c 1,29,-1
 1122.5 -205 l 1,30,31
 1072.5 -273 1072.5 -273 1013.5 -316 c 128,-1,32
 954.5 -359 954.5 -359 894 -384 c 128,-1,33
 833.5 -409 833.5 -409 773.5 -418 c 128,-1,34
 713.5 -427 713.5 -427 659.5 -427 c 0,35,36
 572.5 -427 572.5 -427 491.5 -404 c 128,-1,37
 410.5 -381 410.5 -381 347.5 -334.5 c 128,-1,38
 284.5 -288 284.5 -288 246.5 -215.5 c 128,-1,39
 208.5 -143 208.5 -143 208.5 -45 c 0,0,1
845.5 1018 m 256,40,41
 845.5 992 845.5 992 835.5 969.5 c 128,-1,42
 825.5 947 825.5 947 809 930 c 128,-1,43
 792.5 913 792.5 913 770 903.5 c 128,-1,44
 747.5 894 747.5 894 721.5 894 c 256,45,46
 695.5 894 695.5 894 673 903.5 c 128,-1,47
 650.5 913 650.5 913 634 930 c 128,-1,48
 617.5 947 617.5 947 607.5 969.5 c 128,-1,49
 597.5 992 597.5 992 597.5 1018 c 256,50,51
 597.5 1044 597.5 1044 607.5 1067 c 128,-1,52
 617.5 1090 617.5 1090 633.5 1106.5 c 128,-1,53
 649.5 1123 649.5 1123 672 1133.5 c 128,-1,54
 694.5 1144 694.5 1144 720.5 1144 c 0,55,56
 747.5 1144 747.5 1144 770 1133.5 c 128,-1,57
 792.5 1123 792.5 1123 809 1106.5 c 128,-1,58
 825.5 1090 825.5 1090 835.5 1067 c 128,-1,59
 845.5 1044 845.5 1044 845.5 1018 c 256,40,41
EndSplineSet
EndChar

StartChar: Agrave
Encoding: 192 192 131
Width: 1331
GlyphClass: 1
Flags: W
LayerCount: 2
Fore
SplineSet
34.5 0 m 1,0,-1
 517.5 1331 l 1,1,-1
 553.5 1536 l 1,2,-1
 735.5 1556 l 1,3,-1
 1296.5 0 l 1,4,-1
 1092.5 0 l 1,5,-1
 940.5 461 l 1,6,-1
 392.5 461 l 1,7,-1
 222.5 0 l 1,8,-1
 34.5 0 l 1,0,-1
661.5 1434 m 1,9,-1
 615.5 1106 l 1,10,-1
 442.5 614 l 1,11,-1
 890.5 614 l 1,12,-1
 708.5 1106 l 1,13,-1
 661.5 1434 l 1,9,-1
734.5 1638 m 1,14,-1
 581.5 1638 l 1,15,-1
 350.5 1946 l 1,16,-1
 559.5 1966 l 1,17,-1
 734.5 1638 l 1,14,-1
EndSplineSet
EndChar

StartChar: Aacute
Encoding: 193 193 132
Width: 1331
GlyphClass: 1
Flags: W
LayerCount: 2
Fore
SplineSet
34.5 0 m 1,0,-1
 517.5 1331 l 1,1,-1
 553.5 1536 l 1,2,-1
 735.5 1556 l 1,3,-1
 1296.5 0 l 1,4,-1
 1092.5 0 l 1,5,-1
 940.5 461 l 1,6,-1
 392.5 461 l 1,7,-1
 222.5 0 l 1,8,-1
 34.5 0 l 1,0,-1
661.5 1434 m 1,9,-1
 615.5 1106 l 1,10,-1
 442.5 614 l 1,11,-1
 890.5 614 l 1,12,-1
 708.5 1106 l 1,13,-1
 661.5 1434 l 1,9,-1
718.5 1946 m 1,14,-1
 953.5 1966 l 1,15,-1
 708.5 1638 l 1,16,-1
 554.5 1638 l 1,17,-1
 718.5 1946 l 1,14,-1
EndSplineSet
EndChar

StartChar: Acircumflex
Encoding: 194 194 133
Width: 1331
GlyphClass: 1
Flags: W
LayerCount: 2
Fore
SplineSet
34.5 0 m 1,0,-1
 517.5 1331 l 1,1,-1
 553.5 1536 l 1,2,-1
 735.5 1556 l 1,3,-1
 1296.5 0 l 1,4,-1
 1092.5 0 l 1,5,-1
 940.5 461 l 1,6,-1
 392.5 461 l 1,7,-1
 222.5 0 l 1,8,-1
 34.5 0 l 1,0,-1
661.5 1434 m 1,9,-1
 615.5 1106 l 1,10,-1
 442.5 614 l 1,11,-1
 890.5 614 l 1,12,-1
 708.5 1106 l 1,13,-1
 661.5 1434 l 1,9,-1
943.5 1659 m 1,14,-1
 789.5 1659 l 1,15,-1
 687.5 1815 l 1,16,-1
 656.5 1905 l 1,17,-1
 626.5 1816 l 1,18,-1
 522.5 1659 l 1,19,-1
 369.5 1659 l 1,20,-1
 549.5 1946 l 1,21,-1
 754.5 1966 l 1,22,-1
 943.5 1659 l 1,14,-1
EndSplineSet
EndChar

StartChar: Atilde
Encoding: 195 195 134
Width: 1331
GlyphClass: 1
Flags: W
LayerCount: 2
Fore
SplineSet
34.5 0 m 1,0,-1
 517.5 1331 l 1,1,-1
 553.5 1536 l 1,2,-1
 735.5 1556 l 1,3,-1
 1296.5 0 l 1,4,-1
 1092.5 0 l 1,5,-1
 940.5 461 l 1,6,-1
 392.5 461 l 1,7,-1
 222.5 0 l 1,8,-1
 34.5 0 l 1,0,-1
661.5 1434 m 1,9,-1
 615.5 1106 l 1,10,-1
 442.5 614 l 1,11,-1
 890.5 614 l 1,12,-1
 708.5 1106 l 1,13,-1
 661.5 1434 l 1,9,-1
333.5 1695 m 1,14,15
 337.5 1736 337.5 1736 353.5 1775 c 128,-1,16
 369.5 1814 369.5 1814 394.5 1843.5 c 128,-1,17
 419.5 1873 419.5 1873 451 1891 c 128,-1,18
 482.5 1909 482.5 1909 519.5 1909 c 0,19,20
 559.5 1909 559.5 1909 594.5 1894.5 c 128,-1,21
 629.5 1880 629.5 1880 661 1862.5 c 128,-1,22
 692.5 1845 692.5 1845 723.5 1831 c 128,-1,23
 754.5 1817 754.5 1817 785.5 1817 c 0,24,25
 807.5 1817 807.5 1817 824 1827.5 c 128,-1,26
 840.5 1838 840.5 1838 851.5 1854 c 128,-1,27
 862.5 1870 862.5 1870 870 1889.5 c 128,-1,28
 877.5 1909 877.5 1909 880.5 1927 c 1,29,-1
 978.5 1923 l 1,30,31
 975.5 1878 975.5 1878 958.5 1836 c 128,-1,32
 941.5 1794 941.5 1794 915.5 1762 c 128,-1,33
 889.5 1730 889.5 1730 854 1710.5 c 128,-1,34
 818.5 1691 818.5 1691 778.5 1691 c 0,35,36
 745.5 1691 745.5 1691 714 1705 c 128,-1,37
 682.5 1719 682.5 1719 649.5 1736 c 128,-1,38
 616.5 1753 616.5 1753 583 1767.5 c 128,-1,39
 549.5 1782 549.5 1782 513.5 1782 c 0,40,41
 495.5 1782 495.5 1782 480.5 1773.5 c 128,-1,42
 465.5 1765 465.5 1765 453.5 1752 c 128,-1,43
 441.5 1739 441.5 1739 433.5 1723 c 128,-1,44
 425.5 1707 425.5 1707 421.5 1692 c 1,45,-1
 333.5 1695 l 1,14,15
EndSplineSet
EndChar

StartChar: Adieresis
Encoding: 196 196 135
Width: 1331
GlyphClass: 1
Flags: W
LayerCount: 2
Fore
SplineSet
34.5 0 m 1,0,-1
 517.5 1331 l 1,1,-1
 553.5 1536 l 1,2,-1
 735.5 1556 l 1,3,-1
 1296.5 0 l 1,4,-1
 1092.5 0 l 1,5,-1
 940.5 461 l 1,6,-1
 392.5 461 l 1,7,-1
 222.5 0 l 1,8,-1
 34.5 0 l 1,0,-1
661.5 1434 m 1,9,-1
 615.5 1106 l 1,10,-1
 442.5 614 l 1,11,-1
 890.5 614 l 1,12,-1
 708.5 1106 l 1,13,-1
 661.5 1434 l 1,9,-1
348.5 1843 m 1,14,-1
 553.5 1843 l 1,15,-1
 553.5 1638 l 1,16,-1
 348.5 1638 l 1,17,-1
 348.5 1843 l 1,14,-1
758.5 1843 m 1,18,-1
 963.5 1843 l 1,19,-1
 963.5 1638 l 1,20,-1
 758.5 1638 l 1,21,-1
 758.5 1843 l 1,18,-1
EndSplineSet
EndChar

StartChar: Aring
Encoding: 197 197 136
Width: 1331
GlyphClass: 1
Flags: W
LayerCount: 2
Fore
SplineSet
656.5 1924 m 256,0,1
 706.5 1924 706.5 1924 751 1905 c 128,-1,2
 795.5 1886 795.5 1886 828.5 1853 c 128,-1,3
 861.5 1820 861.5 1820 880.5 1776 c 128,-1,4
 899.5 1732 899.5 1732 899.5 1681 c 256,5,6
 899.5 1631 899.5 1631 880.5 1586 c 128,-1,7
 861.5 1541 861.5 1541 828.5 1507 c 0,8,9
 802.5 1479 802.5 1479 769.5 1462 c 1,10,-1
 1296.5 0 l 1,11,-1
 1092.5 0 l 1,12,-1
 940.5 461 l 1,13,-1
 392.5 461 l 1,14,-1
 222.5 0 l 1,15,-1
 34.5 0 l 1,16,-1
 517.5 1331 l 1,17,-1
 541.5 1465 l 1,18,19
 510.5 1482 510.5 1482 485.5 1507 c 0,20,21
 451.5 1541 451.5 1541 432.5 1586 c 128,-1,22
 413.5 1631 413.5 1631 413.5 1681 c 256,23,24
 413.5 1731 413.5 1731 433 1775.5 c 128,-1,25
 452.5 1820 452.5 1820 485 1853 c 128,-1,26
 517.5 1886 517.5 1886 562 1905 c 128,-1,27
 606.5 1924 606.5 1924 656.5 1924 c 256,0,1
661.5 1434 m 1,28,-1
 615.5 1106 l 1,29,-1
 442.5 614 l 1,30,-1
 890.5 614 l 1,31,-1
 708.5 1106 l 1,32,-1
 661.5 1434 l 1,28,-1
657.5 1554 m 256,33,34
 683.5 1554 683.5 1554 706 1564.5 c 128,-1,35
 728.5 1575 728.5 1575 745 1592 c 128,-1,36
 761.5 1609 761.5 1609 771 1632 c 128,-1,37
 780.5 1655 780.5 1655 780.5 1680 c 256,38,39
 780.5 1706 780.5 1706 771 1728.5 c 128,-1,40
 761.5 1751 761.5 1751 744.5 1768 c 128,-1,41
 727.5 1785 727.5 1785 705 1794.5 c 128,-1,42
 682.5 1804 682.5 1804 656.5 1804 c 256,43,44
 630.5 1804 630.5 1804 608.5 1794.5 c 128,-1,45
 586.5 1785 586.5 1785 569.5 1768 c 128,-1,46
 552.5 1751 552.5 1751 542.5 1728.5 c 128,-1,47
 532.5 1706 532.5 1706 532.5 1680 c 256,48,49
 532.5 1654 532.5 1654 542.5 1631.5 c 128,-1,50
 552.5 1609 552.5 1609 569.5 1592 c 128,-1,51
 586.5 1575 586.5 1575 609 1564.5 c 128,-1,52
 631.5 1554 631.5 1554 657.5 1554 c 256,33,34
EndSplineSet
EndChar

StartChar: AE
Encoding: 198 198 137
Width: 1331
GlyphClass: 1
Flags: W
LayerCount: 2
Fore
SplineSet
1334 164 m 1,0,-1
 1314 0 l 1,1,-1
 662 0 l 1,2,-1
 679 205 l 1,3,-1
 679 461 l 1,4,-1
 377 461 l 1,5,-1
 219 0 l 1,6,-1
 -3 0 l 1,7,-1
 457 1331 l 1,8,-1
 503 1536 l 1,9,-1
 1298 1536 l 1,10,-1
 1298 1372 l 1,11,-1
 870 1372 l 1,12,-1
 893 1177 l 1,13,-1
 893 906 l 1,14,-1
 1225 906 l 1,15,-1
 1225 758 l 1,16,-1
 893 758 l 1,17,-1
 893 348 l 1,18,-1
 882 164 l 1,19,-1
 1334 164 l 1,0,-1
679 613 m 1,20,-1
 679 1133 l 1,21,-1
 637 1372 l 1,22,-1
 582 1125 l 1,23,-1
 419 613 l 1,24,-1
 679 613 l 1,20,-1
EndSplineSet
EndChar

StartChar: Ccedilla
Encoding: 199 199 138
Width: 1331
GlyphClass: 1
Flags: W
LayerCount: 2
Fore
SplineSet
1201.5 106 m 1,0,1
 1159.5 72 1159.5 72 1116.5 49 c 128,-1,2
 1073.5 26 1073.5 26 1026.5 11 c 128,-1,3
 979.5 -4 979.5 -4 927.5 -10 c 0,4,5
 908.5 -13 908.5 -13 886.5 -14 c 1,6,7
 903.5 -36 903.5 -36 917.5 -60 c 0,8,9
 933.5 -88 933.5 -88 947 -125 c 128,-1,10
 960.5 -162 960.5 -162 960.5 -203 c 0,11,12
 960.5 -248 960.5 -248 941.5 -287 c 128,-1,13
 922.5 -326 922.5 -326 890.5 -355 c 128,-1,14
 858.5 -384 858.5 -384 817 -400.5 c 128,-1,15
 775.5 -417 775.5 -417 730.5 -417 c 0,16,17
 679.5 -417 679.5 -417 632 -403 c 128,-1,18
 584.5 -389 584.5 -389 546.5 -372 c 0,19,20
 502.5 -353 502.5 -353 463.5 -326 c 1,21,-1
 536.5 -223 l 1,22,23
 563.5 -241 563.5 -241 591.5 -255 c 0,24,25
 616.5 -266 616.5 -266 646.5 -276 c 128,-1,26
 676.5 -286 676.5 -286 706.5 -286 c 0,27,28
 744.5 -286 744.5 -286 774 -261.5 c 128,-1,29
 803.5 -237 803.5 -237 803.5 -194 c 0,30,31
 803.5 -160 803.5 -160 786.5 -125.5 c 128,-1,32
 769.5 -91 769.5 -91 749.5 -63 c 0,33,34
 727.5 -34 727.5 -34 702.5 -7 c 1,35,36
 663.5 0 663.5 0 627.5 11 c 0,37,38
 538.5 41 538.5 41 462 93.5 c 128,-1,39
 385.5 146 385.5 146 324 220 c 128,-1,40
 262.5 294 262.5 294 219.5 383.5 c 128,-1,41
 176.5 473 176.5 473 153 575.5 c 128,-1,42
 129.5 678 129.5 678 129.5 788 c 0,43,44
 129.5 943 129.5 943 173.5 1082 c 128,-1,45
 217.5 1221 217.5 1221 304.5 1326 c 128,-1,46
 391.5 1431 391.5 1431 520 1492 c 128,-1,47
 648.5 1553 648.5 1553 817.5 1553 c 0,48,49
 935.5 1553 935.5 1553 1030 1516 c 128,-1,50
 1124.5 1479 1124.5 1479 1198.5 1408 c 1,51,-1
 1106.5 1298 l 1,52,53
 1081.5 1314 1081.5 1314 1054 1329.5 c 128,-1,54
 1026.5 1345 1026.5 1345 993.5 1356 c 128,-1,55
 960.5 1367 960.5 1367 921 1373.5 c 128,-1,56
 881.5 1380 881.5 1380 834.5 1380 c 0,57,58
 709.5 1380 709.5 1380 616.5 1333 c 128,-1,59
 523.5 1286 523.5 1286 462.5 1205.5 c 128,-1,60
 401.5 1125 401.5 1125 371 1018 c 128,-1,61
 340.5 911 340.5 911 340.5 792 c 0,62,63
 340.5 717 340.5 717 356 641 c 128,-1,64
 371.5 565 371.5 565 400.5 494.5 c 128,-1,65
 429.5 424 429.5 424 472.5 362.5 c 128,-1,66
 515.5 301 515.5 301 571.5 255 c 128,-1,67
 627.5 209 627.5 209 695 183 c 128,-1,68
 762.5 157 762.5 157 841.5 157 c 0,69,70
 887.5 157 887.5 157 922.5 161 c 128,-1,71
 957.5 165 957.5 165 988.5 174 c 128,-1,72
 1019.5 183 1019.5 183 1051.5 198 c 128,-1,73
 1083.5 213 1083.5 213 1122.5 236 c 1,74,-1
 1201.5 106 l 1,0,1
EndSplineSet
EndChar

StartChar: Egrave
Encoding: 200 200 139
Width: 1331
GlyphClass: 1
Flags: W
LayerCount: 2
Fore
SplineSet
1154.5 164 m 1,0,-1
 1134.5 0 l 1,1,-1
 192.5 0 l 1,2,-1
 207.5 205 l 1,3,-1
 207.5 1321 l 1,4,-1
 176.5 1536 l 1,5,-1
 1118.5 1536 l 1,6,-1
 1118.5 1372 l 1,7,-1
 376.5 1372 l 1,8,-1
 396.5 1178 l 1,9,-1
 396.5 906 l 1,10,-1
 1047.5 906 l 1,11,-1
 1047.5 758 l 1,12,-1
 396.5 758 l 1,13,-1
 396.5 348 l 1,14,-1
 386.5 164 l 1,15,-1
 1154.5 164 l 1,0,-1
770.5 1638 m 1,16,-1
 617.5 1638 l 1,17,-1
 386.5 1946 l 1,18,-1
 595.5 1966 l 1,19,-1
 770.5 1638 l 1,16,-1
EndSplineSet
EndChar

StartChar: Eacute
Encoding: 201 201 140
Width: 1331
GlyphClass: 1
Flags: W
LayerCount: 2
Fore
SplineSet
1154.5 164 m 1,0,-1
 1134.5 0 l 1,1,-1
 192.5 0 l 1,2,-1
 207.5 205 l 1,3,-1
 207.5 1321 l 1,4,-1
 176.5 1536 l 1,5,-1
 1118.5 1536 l 1,6,-1
 1118.5 1372 l 1,7,-1
 376.5 1372 l 1,8,-1
 396.5 1178 l 1,9,-1
 396.5 906 l 1,10,-1
 1047.5 906 l 1,11,-1
 1047.5 758 l 1,12,-1
 396.5 758 l 1,13,-1
 396.5 348 l 1,14,-1
 386.5 164 l 1,15,-1
 1154.5 164 l 1,0,-1
658.5 1946 m 1,16,-1
 893.5 1966 l 1,17,-1
 647.5 1638 l 1,18,-1
 494.5 1638 l 1,19,-1
 658.5 1946 l 1,16,-1
EndSplineSet
EndChar

StartChar: Ecircumflex
Encoding: 202 202 141
Width: 1331
GlyphClass: 1
Flags: W
LayerCount: 2
Fore
SplineSet
1154.5 164 m 1,0,-1
 1134.5 0 l 1,1,-1
 192.5 0 l 1,2,-1
 207.5 205 l 1,3,-1
 207.5 1321 l 1,4,-1
 176.5 1536 l 1,5,-1
 1118.5 1536 l 1,6,-1
 1118.5 1372 l 1,7,-1
 376.5 1372 l 1,8,-1
 396.5 1178 l 1,9,-1
 396.5 906 l 1,10,-1
 1047.5 906 l 1,11,-1
 1047.5 758 l 1,12,-1
 396.5 758 l 1,13,-1
 396.5 348 l 1,14,-1
 386.5 164 l 1,15,-1
 1154.5 164 l 1,0,-1
944.5 1659 m 1,16,-1
 791.5 1659 l 1,17,-1
 688.5 1815 l 1,18,-1
 658.5 1905 l 1,19,-1
 627.5 1816 l 1,20,-1
 523.5 1659 l 1,21,-1
 370.5 1659 l 1,22,-1
 550.5 1946 l 1,23,-1
 755.5 1966 l 1,24,-1
 944.5 1659 l 1,16,-1
EndSplineSet
EndChar

StartChar: Edieresis
Encoding: 203 203 142
Width: 1331
GlyphClass: 1
Flags: W
LayerCount: 2
Fore
SplineSet
1154.5 164 m 1,0,-1
 1134.5 0 l 1,1,-1
 192.5 0 l 1,2,-1
 207.5 205 l 1,3,-1
 207.5 1321 l 1,4,-1
 176.5 1536 l 1,5,-1
 1118.5 1536 l 1,6,-1
 1118.5 1372 l 1,7,-1
 376.5 1372 l 1,8,-1
 396.5 1178 l 1,9,-1
 396.5 906 l 1,10,-1
 1047.5 906 l 1,11,-1
 1047.5 758 l 1,12,-1
 396.5 758 l 1,13,-1
 396.5 348 l 1,14,-1
 386.5 164 l 1,15,-1
 1154.5 164 l 1,0,-1
350.5 1843 m 1,16,-1
 555.5 1843 l 1,17,-1
 555.5 1638 l 1,18,-1
 350.5 1638 l 1,19,-1
 350.5 1843 l 1,16,-1
760.5 1843 m 1,20,-1
 965.5 1843 l 1,21,-1
 965.5 1638 l 1,22,-1
 760.5 1638 l 1,23,-1
 760.5 1843 l 1,20,-1
EndSplineSet
EndChar

StartChar: Igrave
Encoding: 204 204 143
Width: 1331
GlyphClass: 1
Flags: W
LayerCount: 2
Fore
SplineSet
205 1536 m 1,0,-1
 1127 1536 l 1,1,-1
 1127 1372 l 1,2,-1
 760 1372 l 1,3,-1
 760 164 l 1,4,-1
 1147 164 l 1,5,-1
 1127 0 l 1,6,-1
 205 0 l 1,7,-1
 205 164 l 1,8,-1
 569 164 l 1,9,-1
 569 1372 l 1,10,-1
 184 1372 l 1,11,-1
 205 1536 l 1,0,-1
750 1638 m 1,12,-1
 596 1638 l 1,13,-1
 366 1946 l 1,14,-1
 575 1966 l 1,15,-1
 750 1638 l 1,12,-1
EndSplineSet
EndChar

StartChar: Iacute
Encoding: 205 205 144
Width: 1331
GlyphClass: 1
Flags: W
LayerCount: 2
Fore
SplineSet
205 1536 m 1,0,-1
 1127 1536 l 1,1,-1
 1127 1372 l 1,2,-1
 760 1372 l 1,3,-1
 760 164 l 1,4,-1
 1147 164 l 1,5,-1
 1127 0 l 1,6,-1
 205 0 l 1,7,-1
 205 164 l 1,8,-1
 569 164 l 1,9,-1
 569 1372 l 1,10,-1
 184 1372 l 1,11,-1
 205 1536 l 1,0,-1
624 1946 m 1,12,-1
 859 1966 l 1,13,-1
 614 1638 l 1,14,-1
 460 1638 l 1,15,-1
 624 1946 l 1,12,-1
EndSplineSet
EndChar

StartChar: Icircumflex
Encoding: 206 206 145
Width: 1331
GlyphClass: 1
Flags: W
LayerCount: 2
Fore
SplineSet
205 1536 m 1,0,-1
 1127 1536 l 1,1,-1
 1127 1372 l 1,2,-1
 760 1372 l 1,3,-1
 760 164 l 1,4,-1
 1147 164 l 1,5,-1
 1127 0 l 1,6,-1
 205 0 l 1,7,-1
 205 164 l 1,8,-1
 569 164 l 1,9,-1
 569 1372 l 1,10,-1
 184 1372 l 1,11,-1
 205 1536 l 1,0,-1
958 1663 m 1,12,-1
 804 1663 l 1,13,-1
 702 1819 l 1,14,-1
 671 1909 l 1,15,-1
 640 1820 l 1,16,-1
 537 1663 l 1,17,-1
 383 1663 l 1,18,-1
 563 1950 l 1,19,-1
 768 1970 l 1,20,-1
 958 1663 l 1,12,-1
EndSplineSet
EndChar

StartChar: Idieresis
Encoding: 207 207 146
Width: 1331
GlyphClass: 1
Flags: W
LayerCount: 2
Fore
SplineSet
205 1536 m 1,0,-1
 1127 1536 l 1,1,-1
 1127 1372 l 1,2,-1
 760 1372 l 1,3,-1
 760 164 l 1,4,-1
 1147 164 l 1,5,-1
 1127 0 l 1,6,-1
 205 0 l 1,7,-1
 205 164 l 1,8,-1
 569 164 l 1,9,-1
 569 1372 l 1,10,-1
 184 1372 l 1,11,-1
 205 1536 l 1,0,-1
360 1946 m 1,12,-1
 564 1946 l 1,13,-1
 564 1741 l 1,14,-1
 360 1741 l 1,15,-1
 360 1946 l 1,12,-1
769 1946 m 1,16,-1
 974 1946 l 1,17,-1
 974 1741 l 1,18,-1
 769 1741 l 1,19,-1
 769 1946 l 1,16,-1
EndSplineSet
EndChar

StartChar: Eth
Encoding: 208 208 147
Width: 1331
GlyphClass: 1
Flags: W
LayerCount: 2
Fore
SplineSet
30.5 876 m 1,0,-1
 235.5 876 l 1,1,-1
 235.5 1321 l 1,2,-1
 204.5 1536 l 1,3,4
 236.5 1539 236.5 1539 280.5 1541 c 128,-1,5
 324.5 1543 324.5 1543 371 1544.5 c 128,-1,6
 417.5 1546 417.5 1546 463 1546.5 c 128,-1,7
 508.5 1547 508.5 1547 542.5 1547 c 0,8,9
 705.5 1547 705.5 1547 844 1507 c 128,-1,10
 982.5 1467 982.5 1467 1084 1380 c 128,-1,11
 1185.5 1293 1185.5 1293 1243 1157 c 128,-1,12
 1300.5 1021 1300.5 1021 1300.5 829 c 0,13,14
 1300.5 679 1300.5 679 1271.5 560 c 128,-1,15
 1242.5 441 1242.5 441 1192 349 c 128,-1,16
 1141.5 257 1141.5 257 1070.5 191 c 128,-1,17
 999.5 125 999.5 125 914 82.5 c 128,-1,18
 828.5 40 828.5 40 732 20 c 128,-1,19
 635.5 0 635.5 0 533.5 0 c 2,20,-1
 235.5 0 l 1,21,-1
 235.5 717 l 1,22,-1
 30.5 717 l 1,23,-1
 30.5 876 l 1,0,-1
450.5 1178 m 1,24,-1
 450.5 876 l 1,25,-1
 644.5 876 l 1,26,-1
 644.5 717 l 1,27,-1
 450.5 717 l 1,28,-1
 450.5 164 l 1,29,-1
 470.5 164 l 2,30,31
 618.5 164 618.5 164 722.5 194.5 c 128,-1,32
 826.5 225 826.5 225 894.5 276 c 128,-1,33
 962.5 327 962.5 327 1001 393 c 128,-1,34
 1039.5 459 1039.5 459 1058.5 529.5 c 128,-1,35
 1077.5 600 1077.5 600 1081.5 669.5 c 128,-1,36
 1085.5 739 1085.5 739 1085.5 799 c 0,37,38
 1085.5 886 1085.5 886 1076 963.5 c 128,-1,39
 1066.5 1041 1066.5 1041 1043 1106.5 c 128,-1,40
 1019.5 1172 1019.5 1172 979.5 1225 c 128,-1,41
 939.5 1278 939.5 1278 878 1315 c 128,-1,42
 816.5 1352 816.5 1352 731.5 1371.5 c 128,-1,43
 646.5 1391 646.5 1391 533.5 1391 c 0,44,45
 517.5 1391 517.5 1391 499 1390 c 128,-1,46
 480.5 1389 480.5 1389 463.5 1386 c 2,47,-1
 424.5 1382 l 1,48,-1
 450.5 1178 l 1,24,-1
EndSplineSet
EndChar

StartChar: Ntilde
Encoding: 209 209 148
Width: 1331
GlyphClass: 1
Flags: W
LayerCount: 2
Fore
SplineSet
993.5 0 m 1,0,-1
 486.5 971 l 1,1,-1
 323.5 1394 l 1,2,-1
 317.5 1393 l 1,3,-1
 383.5 942 l 1,4,-1
 383.5 0 l 1,5,-1
 199.5 0 l 1,6,-1
 199.5 1321 l 1,7,-1
 168.5 1536 l 1,8,-1
 374.5 1556 l 1,9,-1
 882.5 570 l 1,10,-1
 1052.5 143 l 1,11,-1
 1058.5 144 l 1,12,-1
 977.5 594 l 1,13,-1
 977.5 1536 l 1,14,-1
 1162.5 1556 l 1,15,-1
 1162.5 0 l 1,16,-1
 993.5 0 l 1,0,-1
421.5 1695 m 1,17,18
 425.5 1736 425.5 1736 441.5 1775 c 128,-1,19
 457.5 1814 457.5 1814 482.5 1843.5 c 128,-1,20
 507.5 1873 507.5 1873 539.5 1891 c 128,-1,21
 571.5 1909 571.5 1909 608.5 1909 c 0,22,23
 648.5 1909 648.5 1909 683 1894.5 c 128,-1,24
 717.5 1880 717.5 1880 749.5 1862.5 c 128,-1,25
 781.5 1845 781.5 1845 812 1831 c 128,-1,26
 842.5 1817 842.5 1817 874.5 1817 c 0,27,28
 896.5 1817 896.5 1817 912.5 1827.5 c 128,-1,29
 928.5 1838 928.5 1838 940 1854 c 128,-1,30
 951.5 1870 951.5 1870 958.5 1889.5 c 128,-1,31
 965.5 1909 965.5 1909 968.5 1927 c 1,32,-1
 1066.5 1923 l 1,33,34
 1063.5 1878 1063.5 1878 1047 1836 c 128,-1,35
 1030.5 1794 1030.5 1794 1004 1762 c 128,-1,36
 977.5 1730 977.5 1730 942.5 1710.5 c 128,-1,37
 907.5 1691 907.5 1691 867.5 1691 c 0,38,39
 834.5 1691 834.5 1691 802.5 1705 c 128,-1,40
 770.5 1719 770.5 1719 738 1736 c 128,-1,41
 705.5 1753 705.5 1753 671.5 1767.5 c 128,-1,42
 637.5 1782 637.5 1782 602.5 1782 c 0,43,44
 584.5 1782 584.5 1782 569 1773.5 c 128,-1,45
 553.5 1765 553.5 1765 542 1752 c 128,-1,46
 530.5 1739 530.5 1739 522 1723 c 128,-1,47
 513.5 1707 513.5 1707 509.5 1692 c 1,48,-1
 421.5 1695 l 1,17,18
EndSplineSet
EndChar

StartChar: Ograve
Encoding: 210 210 149
Width: 1331
GlyphClass: 1
Flags: W
LayerCount: 2
Fore
SplineSet
665.5 -17 m 0,0,1
 573.5 -17 573.5 -17 496 11 c 128,-1,2
 418.5 39 418.5 39 355.5 90.5 c 128,-1,3
 292.5 142 292.5 142 245.5 214 c 128,-1,4
 198.5 286 198.5 286 166.5 373.5 c 128,-1,5
 134.5 461 134.5 461 118.5 560.5 c 128,-1,6
 102.5 660 102.5 660 102.5 768 c 256,7,8
 102.5 876 102.5 876 117.5 975.5 c 128,-1,9
 132.5 1075 132.5 1075 164 1162.5 c 128,-1,10
 195.5 1250 195.5 1250 242 1322 c 128,-1,11
 288.5 1394 288.5 1394 351 1445.5 c 128,-1,12
 413.5 1497 413.5 1497 492.5 1525 c 128,-1,13
 571.5 1553 571.5 1553 665.5 1553 c 0,14,15
 757.5 1553 757.5 1553 835 1525 c 128,-1,16
 912.5 1497 912.5 1497 975.5 1445.5 c 128,-1,17
 1038.5 1394 1038.5 1394 1085.5 1322 c 128,-1,18
 1132.5 1250 1132.5 1250 1164.5 1162.5 c 128,-1,19
 1196.5 1075 1196.5 1075 1212.5 975.5 c 128,-1,20
 1228.5 876 1228.5 876 1228.5 768 c 256,21,22
 1228.5 660 1228.5 660 1213 560.5 c 128,-1,23
 1197.5 461 1197.5 461 1166.5 373.5 c 128,-1,24
 1135.5 286 1135.5 286 1089 214 c 128,-1,25
 1042.5 142 1042.5 142 980 90.5 c 128,-1,26
 917.5 39 917.5 39 838.5 11 c 128,-1,27
 759.5 -17 759.5 -17 665.5 -17 c 0,0,1
1015.5 736 m 0,28,29
 1015.5 808 1015.5 808 1011 882.5 c 128,-1,30
 1006.5 957 1006.5 957 992.5 1028.5 c 128,-1,31
 978.5 1100 978.5 1100 954 1163 c 128,-1,32
 929.5 1226 929.5 1226 890 1272.5 c 128,-1,33
 850.5 1319 850.5 1319 794 1346.5 c 128,-1,34
 737.5 1374 737.5 1374 659.5 1374 c 0,35,36
 585.5 1374 585.5 1374 531.5 1349.5 c 128,-1,37
 477.5 1325 477.5 1325 439.5 1282.5 c 128,-1,38
 401.5 1240 401.5 1240 377 1183 c 128,-1,39
 352.5 1126 352.5 1126 339 1062.5 c 128,-1,40
 325.5 999 325.5 999 320.5 932.5 c 128,-1,41
 315.5 866 315.5 866 315.5 804 c 0,42,43
 315.5 731 315.5 731 320 655.5 c 128,-1,44
 324.5 580 324.5 580 338.5 508.5 c 128,-1,45
 352.5 437 352.5 437 377 374 c 128,-1,46
 401.5 311 401.5 311 441.5 264 c 128,-1,47
 481.5 217 481.5 217 537.5 189.5 c 128,-1,48
 593.5 162 593.5 162 671.5 162 c 0,49,50
 744.5 162 744.5 162 798 187 c 128,-1,51
 851.5 212 851.5 212 890 255.5 c 128,-1,52
 928.5 299 928.5 299 953 356 c 128,-1,53
 977.5 413 977.5 413 991.5 477 c 128,-1,54
 1005.5 541 1005.5 541 1010.5 607.5 c 128,-1,55
 1015.5 674 1015.5 674 1015.5 736 c 0,28,29
804.5 1638 m 1,56,-1
 651.5 1638 l 1,57,-1
 420.5 1946 l 1,58,-1
 629.5 1966 l 1,59,-1
 804.5 1638 l 1,56,-1
EndSplineSet
EndChar

StartChar: Oacute
Encoding: 211 211 150
Width: 1331
GlyphClass: 1
Flags: W
LayerCount: 2
Fore
SplineSet
665.5 -17 m 0,0,1
 573.5 -17 573.5 -17 496 11 c 128,-1,2
 418.5 39 418.5 39 355.5 90.5 c 128,-1,3
 292.5 142 292.5 142 245.5 214 c 128,-1,4
 198.5 286 198.5 286 166.5 373.5 c 128,-1,5
 134.5 461 134.5 461 118.5 560.5 c 128,-1,6
 102.5 660 102.5 660 102.5 768 c 256,7,8
 102.5 876 102.5 876 117.5 975.5 c 128,-1,9
 132.5 1075 132.5 1075 164 1162.5 c 128,-1,10
 195.5 1250 195.5 1250 242 1322 c 128,-1,11
 288.5 1394 288.5 1394 351 1445.5 c 128,-1,12
 413.5 1497 413.5 1497 492.5 1525 c 128,-1,13
 571.5 1553 571.5 1553 665.5 1553 c 0,14,15
 757.5 1553 757.5 1553 835 1525 c 128,-1,16
 912.5 1497 912.5 1497 975.5 1445.5 c 128,-1,17
 1038.5 1394 1038.5 1394 1085.5 1322 c 128,-1,18
 1132.5 1250 1132.5 1250 1164.5 1162.5 c 128,-1,19
 1196.5 1075 1196.5 1075 1212.5 975.5 c 128,-1,20
 1228.5 876 1228.5 876 1228.5 768 c 256,21,22
 1228.5 660 1228.5 660 1213 560.5 c 128,-1,23
 1197.5 461 1197.5 461 1166.5 373.5 c 128,-1,24
 1135.5 286 1135.5 286 1089 214 c 128,-1,25
 1042.5 142 1042.5 142 980 90.5 c 128,-1,26
 917.5 39 917.5 39 838.5 11 c 128,-1,27
 759.5 -17 759.5 -17 665.5 -17 c 0,0,1
1015.5 736 m 0,28,29
 1015.5 808 1015.5 808 1011 882.5 c 128,-1,30
 1006.5 957 1006.5 957 992.5 1028.5 c 128,-1,31
 978.5 1100 978.5 1100 954 1163 c 128,-1,32
 929.5 1226 929.5 1226 890 1272.5 c 128,-1,33
 850.5 1319 850.5 1319 794 1346.5 c 128,-1,34
 737.5 1374 737.5 1374 659.5 1374 c 0,35,36
 585.5 1374 585.5 1374 531.5 1349.5 c 128,-1,37
 477.5 1325 477.5 1325 439.5 1282.5 c 128,-1,38
 401.5 1240 401.5 1240 377 1183 c 128,-1,39
 352.5 1126 352.5 1126 339 1062.5 c 128,-1,40
 325.5 999 325.5 999 320.5 932.5 c 128,-1,41
 315.5 866 315.5 866 315.5 804 c 0,42,43
 315.5 731 315.5 731 320 655.5 c 128,-1,44
 324.5 580 324.5 580 338.5 508.5 c 128,-1,45
 352.5 437 352.5 437 377 374 c 128,-1,46
 401.5 311 401.5 311 441.5 264 c 128,-1,47
 481.5 217 481.5 217 537.5 189.5 c 128,-1,48
 593.5 162 593.5 162 671.5 162 c 0,49,50
 744.5 162 744.5 162 798 187 c 128,-1,51
 851.5 212 851.5 212 890 255.5 c 128,-1,52
 928.5 299 928.5 299 953 356 c 128,-1,53
 977.5 413 977.5 413 991.5 477 c 128,-1,54
 1005.5 541 1005.5 541 1010.5 607.5 c 128,-1,55
 1015.5 674 1015.5 674 1015.5 736 c 0,28,29
640.5 1946 m 1,56,-1
 876.5 1966 l 1,57,-1
 630.5 1638 l 1,58,-1
 477.5 1638 l 1,59,-1
 640.5 1946 l 1,56,-1
EndSplineSet
EndChar

StartChar: Ocircumflex
Encoding: 212 212 151
Width: 1331
GlyphClass: 1
Flags: W
LayerCount: 2
Fore
SplineSet
665.5 -17 m 0,0,1
 573.5 -17 573.5 -17 496 11 c 128,-1,2
 418.5 39 418.5 39 355.5 90.5 c 128,-1,3
 292.5 142 292.5 142 245.5 214 c 128,-1,4
 198.5 286 198.5 286 166 373.5 c 128,-1,5
 133.5 461 133.5 461 118 560.5 c 128,-1,6
 102.5 660 102.5 660 102.5 768 c 256,7,8
 102.5 876 102.5 876 117.5 975.5 c 128,-1,9
 132.5 1075 132.5 1075 164 1162.5 c 128,-1,10
 195.5 1250 195.5 1250 242 1322 c 128,-1,11
 288.5 1394 288.5 1394 351 1445.5 c 128,-1,12
 413.5 1497 413.5 1497 492.5 1525 c 128,-1,13
 571.5 1553 571.5 1553 665.5 1553 c 0,14,15
 757.5 1553 757.5 1553 835 1525 c 128,-1,16
 912.5 1497 912.5 1497 975.5 1445.5 c 128,-1,17
 1038.5 1394 1038.5 1394 1085.5 1322 c 128,-1,18
 1132.5 1250 1132.5 1250 1164.5 1162.5 c 128,-1,19
 1196.5 1075 1196.5 1075 1212.5 975.5 c 128,-1,20
 1228.5 876 1228.5 876 1228.5 768 c 256,21,22
 1228.5 660 1228.5 660 1213 560.5 c 128,-1,23
 1197.5 461 1197.5 461 1166.5 373.5 c 128,-1,24
 1135.5 286 1135.5 286 1089 214 c 128,-1,25
 1042.5 142 1042.5 142 980 90.5 c 128,-1,26
 917.5 39 917.5 39 838.5 11 c 128,-1,27
 759.5 -17 759.5 -17 665.5 -17 c 0,0,1
1015.5 736 m 0,28,29
 1015.5 808 1015.5 808 1011 882.5 c 128,-1,30
 1006.5 957 1006.5 957 992.5 1028.5 c 128,-1,31
 978.5 1100 978.5 1100 954 1163 c 128,-1,32
 929.5 1226 929.5 1226 890 1272.5 c 128,-1,33
 850.5 1319 850.5 1319 794 1346.5 c 128,-1,34
 737.5 1374 737.5 1374 659.5 1374 c 0,35,36
 585.5 1374 585.5 1374 531.5 1349.5 c 128,-1,37
 477.5 1325 477.5 1325 439.5 1282.5 c 128,-1,38
 401.5 1240 401.5 1240 377 1183 c 128,-1,39
 352.5 1126 352.5 1126 339 1062.5 c 128,-1,40
 325.5 999 325.5 999 320.5 932.5 c 128,-1,41
 315.5 866 315.5 866 315.5 804 c 0,42,43
 315.5 731 315.5 731 320 655.5 c 128,-1,44
 324.5 580 324.5 580 338.5 508.5 c 128,-1,45
 352.5 437 352.5 437 377 374 c 128,-1,46
 401.5 311 401.5 311 441.5 264 c 128,-1,47
 481.5 217 481.5 217 537.5 189.5 c 128,-1,48
 593.5 162 593.5 162 671.5 162 c 0,49,50
 744.5 162 744.5 162 798 187 c 128,-1,51
 851.5 212 851.5 212 890 255.5 c 128,-1,52
 928.5 299 928.5 299 953 356 c 128,-1,53
 977.5 413 977.5 413 991.5 477 c 128,-1,54
 1005.5 541 1005.5 541 1010.5 607.5 c 128,-1,55
 1015.5 674 1015.5 674 1015.5 736 c 0,28,29
928.5 1659 m 1,56,-1
 775.5 1659 l 1,57,-1
 672.5 1815 l 1,58,-1
 641.5 1905 l 1,59,-1
 611.5 1816 l 1,60,-1
 507.5 1659 l 1,61,-1
 354.5 1659 l 1,62,-1
 534.5 1946 l 1,63,-1
 739.5 1966 l 1,64,-1
 928.5 1659 l 1,56,-1
EndSplineSet
EndChar

StartChar: Otilde
Encoding: 213 213 152
Width: 1331
GlyphClass: 1
Flags: W
LayerCount: 2
Fore
SplineSet
665.5 -17 m 0,0,1
 573.5 -17 573.5 -17 496 11 c 128,-1,2
 418.5 39 418.5 39 355.5 90.5 c 128,-1,3
 292.5 142 292.5 142 245.5 214 c 128,-1,4
 198.5 286 198.5 286 166.5 373.5 c 128,-1,5
 134.5 461 134.5 461 118.5 560.5 c 128,-1,6
 102.5 660 102.5 660 102.5 768 c 256,7,8
 102.5 876 102.5 876 117.5 975.5 c 128,-1,9
 132.5 1075 132.5 1075 164 1162.5 c 128,-1,10
 195.5 1250 195.5 1250 242 1322 c 128,-1,11
 288.5 1394 288.5 1394 351 1445.5 c 128,-1,12
 413.5 1497 413.5 1497 492.5 1525 c 128,-1,13
 571.5 1553 571.5 1553 665.5 1553 c 0,14,15
 757.5 1553 757.5 1553 835 1525 c 128,-1,16
 912.5 1497 912.5 1497 975.5 1445.5 c 128,-1,17
 1038.5 1394 1038.5 1394 1085.5 1322 c 128,-1,18
 1132.5 1250 1132.5 1250 1164.5 1162.5 c 128,-1,19
 1196.5 1075 1196.5 1075 1212.5 975.5 c 128,-1,20
 1228.5 876 1228.5 876 1228.5 768 c 256,21,22
 1228.5 660 1228.5 660 1213 560.5 c 128,-1,23
 1197.5 461 1197.5 461 1166.5 373.5 c 128,-1,24
 1135.5 286 1135.5 286 1089 214 c 128,-1,25
 1042.5 142 1042.5 142 980 90.5 c 128,-1,26
 917.5 39 917.5 39 838.5 11 c 128,-1,27
 759.5 -17 759.5 -17 665.5 -17 c 0,0,1
1015.5 736 m 0,28,29
 1015.5 808 1015.5 808 1011 882.5 c 128,-1,30
 1006.5 957 1006.5 957 992.5 1028.5 c 128,-1,31
 978.5 1100 978.5 1100 954 1163 c 128,-1,32
 929.5 1226 929.5 1226 890 1272.5 c 128,-1,33
 850.5 1319 850.5 1319 794 1346.5 c 128,-1,34
 737.5 1374 737.5 1374 659.5 1374 c 0,35,36
 585.5 1374 585.5 1374 531.5 1349.5 c 128,-1,37
 477.5 1325 477.5 1325 439.5 1282.5 c 128,-1,38
 401.5 1240 401.5 1240 377 1183 c 128,-1,39
 352.5 1126 352.5 1126 339 1062.5 c 128,-1,40
 325.5 999 325.5 999 320.5 932.5 c 128,-1,41
 315.5 866 315.5 866 315.5 804 c 0,42,43
 315.5 731 315.5 731 320 655.5 c 128,-1,44
 324.5 580 324.5 580 338.5 508.5 c 128,-1,45
 352.5 437 352.5 437 377 374 c 128,-1,46
 401.5 311 401.5 311 441.5 264 c 128,-1,47
 481.5 217 481.5 217 537.5 189.5 c 128,-1,48
 593.5 162 593.5 162 671.5 162 c 0,49,50
 744.5 162 744.5 162 798 187 c 128,-1,51
 851.5 212 851.5 212 890 255.5 c 128,-1,52
 928.5 299 928.5 299 953 356 c 128,-1,53
 977.5 413 977.5 413 991.5 477 c 128,-1,54
 1005.5 541 1005.5 541 1010.5 607.5 c 128,-1,55
 1015.5 674 1015.5 674 1015.5 736 c 0,28,29
320.5 1695 m 1,56,57
 324.5 1736 324.5 1736 340.5 1775 c 128,-1,58
 356.5 1814 356.5 1814 381.5 1843.5 c 128,-1,59
 406.5 1873 406.5 1873 438 1891 c 128,-1,60
 469.5 1909 469.5 1909 506.5 1909 c 0,61,62
 546.5 1909 546.5 1909 581.5 1894.5 c 128,-1,63
 616.5 1880 616.5 1880 648 1862.5 c 128,-1,64
 679.5 1845 679.5 1845 710.5 1831 c 128,-1,65
 741.5 1817 741.5 1817 772.5 1817 c 0,66,67
 794.5 1817 794.5 1817 811 1827.5 c 128,-1,68
 827.5 1838 827.5 1838 838.5 1854 c 128,-1,69
 849.5 1870 849.5 1870 857 1889.5 c 128,-1,70
 864.5 1909 864.5 1909 867.5 1927 c 1,71,-1
 965.5 1923 l 1,72,73
 962.5 1878 962.5 1878 945.5 1836 c 128,-1,74
 928.5 1794 928.5 1794 902.5 1762 c 128,-1,75
 876.5 1730 876.5 1730 841 1710.5 c 128,-1,76
 805.5 1691 805.5 1691 765.5 1691 c 0,77,78
 732.5 1691 732.5 1691 701 1705 c 128,-1,79
 669.5 1719 669.5 1719 637 1736 c 128,-1,80
 604.5 1753 604.5 1753 570.5 1767.5 c 128,-1,81
 536.5 1782 536.5 1782 500.5 1782 c 0,82,83
 482.5 1782 482.5 1782 467.5 1773.5 c 128,-1,84
 452.5 1765 452.5 1765 440.5 1752 c 128,-1,85
 428.5 1739 428.5 1739 420.5 1723 c 128,-1,86
 412.5 1707 412.5 1707 408.5 1692 c 1,87,-1
 320.5 1695 l 1,56,57
EndSplineSet
EndChar

StartChar: Odieresis
Encoding: 214 214 153
Width: 1331
GlyphClass: 1
Flags: W
LayerCount: 2
Fore
SplineSet
665.5 -17 m 0,0,1
 573.5 -17 573.5 -17 496 11 c 128,-1,2
 418.5 39 418.5 39 355.5 90.5 c 128,-1,3
 292.5 142 292.5 142 245.5 214 c 128,-1,4
 198.5 286 198.5 286 166.5 373.5 c 128,-1,5
 134.5 461 134.5 461 118.5 560.5 c 128,-1,6
 102.5 660 102.5 660 102.5 768 c 256,7,8
 102.5 876 102.5 876 117.5 975.5 c 128,-1,9
 132.5 1075 132.5 1075 164 1162.5 c 128,-1,10
 195.5 1250 195.5 1250 242 1322 c 128,-1,11
 288.5 1394 288.5 1394 351 1445.5 c 128,-1,12
 413.5 1497 413.5 1497 492.5 1525 c 128,-1,13
 571.5 1553 571.5 1553 665.5 1553 c 0,14,15
 757.5 1553 757.5 1553 835 1525 c 128,-1,16
 912.5 1497 912.5 1497 975.5 1445.5 c 128,-1,17
 1038.5 1394 1038.5 1394 1085.5 1322 c 128,-1,18
 1132.5 1250 1132.5 1250 1164.5 1162.5 c 128,-1,19
 1196.5 1075 1196.5 1075 1212.5 975.5 c 128,-1,20
 1228.5 876 1228.5 876 1228.5 768 c 256,21,22
 1228.5 660 1228.5 660 1213 560.5 c 128,-1,23
 1197.5 461 1197.5 461 1166.5 373.5 c 128,-1,24
 1135.5 286 1135.5 286 1089 214 c 128,-1,25
 1042.5 142 1042.5 142 980 90.5 c 128,-1,26
 917.5 39 917.5 39 838.5 11 c 128,-1,27
 759.5 -17 759.5 -17 665.5 -17 c 0,0,1
1015.5 736 m 0,28,29
 1015.5 808 1015.5 808 1011 882.5 c 128,-1,30
 1006.5 957 1006.5 957 992.5 1028.5 c 128,-1,31
 978.5 1100 978.5 1100 954 1163 c 128,-1,32
 929.5 1226 929.5 1226 890 1272.5 c 128,-1,33
 850.5 1319 850.5 1319 794 1346.5 c 128,-1,34
 737.5 1374 737.5 1374 659.5 1374 c 0,35,36
 585.5 1374 585.5 1374 531.5 1349.5 c 128,-1,37
 477.5 1325 477.5 1325 439.5 1282.5 c 128,-1,38
 401.5 1240 401.5 1240 377 1183 c 128,-1,39
 352.5 1126 352.5 1126 339 1062.5 c 128,-1,40
 325.5 999 325.5 999 320.5 932.5 c 128,-1,41
 315.5 866 315.5 866 315.5 804 c 0,42,43
 315.5 731 315.5 731 320 655.5 c 128,-1,44
 324.5 580 324.5 580 338.5 508.5 c 128,-1,45
 352.5 437 352.5 437 377 374 c 128,-1,46
 401.5 311 401.5 311 441.5 264 c 128,-1,47
 481.5 217 481.5 217 537.5 189.5 c 128,-1,48
 593.5 162 593.5 162 671.5 162 c 0,49,50
 744.5 162 744.5 162 798 187 c 128,-1,51
 851.5 212 851.5 212 890 255.5 c 128,-1,52
 928.5 299 928.5 299 953 356 c 128,-1,53
 977.5 413 977.5 413 991.5 477 c 128,-1,54
 1005.5 541 1005.5 541 1010.5 607.5 c 128,-1,55
 1015.5 674 1015.5 674 1015.5 736 c 0,28,29
333.5 1843 m 1,56,-1
 538.5 1843 l 1,57,-1
 538.5 1638 l 1,58,-1
 333.5 1638 l 1,59,-1
 333.5 1843 l 1,56,-1
743.5 1843 m 1,60,-1
 948.5 1843 l 1,61,-1
 948.5 1638 l 1,62,-1
 743.5 1638 l 1,63,-1
 743.5 1843 l 1,60,-1
EndSplineSet
EndChar

StartChar: multiply
Encoding: 215 215 154
Width: 1331
GlyphClass: 1
Flags: W
LayerCount: 2
Fore
SplineSet
781 642 m 1,0,-1
 1216 208 l 1,1,-1
 1089 104 l 1,2,-1
 705 488 l 1,3,-1
 646 590 l 1,4,-1
 627 488 l 1,5,-1
 243 104 l 1,6,-1
 115 208 l 1,7,-1
 552 642 l 1,8,-1
 115 1077 l 1,9,-1
 243 1181 l 1,10,-1
 627 796 l 1,11,-1
 687 695 l 1,12,-1
 705 796 l 1,13,-1
 1089 1181 l 1,14,-1
 1216 1077 l 1,15,-1
 781 642 l 1,0,-1
EndSplineSet
EndChar

StartChar: Oslash
Encoding: 216 216 155
Width: 1331
GlyphClass: 1
Flags: W
LayerCount: 2
Fore
SplineSet
666 -17 m 0,0,1
 574 -17 574 -17 496 10 c 0,2,3
 453 25 453 25 415 49 c 1,4,-1
 339 -102 l 1,5,-1
 124 -102 l 1,6,-1
 267 182 l 1,7,8
 256 197 256 197 246 214 c 0,9,10
 199 286 199 286 166.5 373.5 c 128,-1,11
 134 461 134 461 118 560.5 c 128,-1,12
 102 660 102 660 102 768 c 256,13,14
 102 876 102 876 117.5 975.5 c 128,-1,15
 133 1075 133 1075 164.5 1162.5 c 128,-1,16
 196 1250 196 1250 242.5 1322 c 128,-1,17
 289 1394 289 1394 351.5 1445.5 c 128,-1,18
 414 1497 414 1497 492.5 1525 c 128,-1,19
 571 1553 571 1553 666 1553 c 0,20,21
 758 1553 758 1553 835 1525 c 0,22,23
 883 1508 883 1508 925 1482 c 1,24,-1
 1004 1638 l 1,25,-1
 1208 1638 l 1,26,-1
 1065 1351 l 1,27,28
 1075 1337 1075 1337 1085 1322 c 0,29,30
 1132 1250 1132 1250 1164.5 1162.5 c 128,-1,31
 1197 1075 1197 1075 1213 975.5 c 128,-1,32
 1229 876 1229 876 1229 768 c 256,33,34
 1229 660 1229 660 1213.5 560.5 c 128,-1,35
 1198 461 1198 461 1167 373.5 c 128,-1,36
 1136 286 1136 286 1089 214 c 128,-1,37
 1042 142 1042 142 980 90.5 c 128,-1,38
 918 39 918 39 839 11 c 128,-1,39
 760 -17 760 -17 666 -17 c 0,0,1
794 1347 m 0,40,41
 738 1375 738 1375 659 1374 c 0,42,43
 585 1374 585 1374 531 1349.5 c 128,-1,44
 477 1325 477 1325 439 1282.5 c 128,-1,45
 401 1240 401 1240 376.5 1183 c 128,-1,46
 352 1126 352 1126 339 1062.5 c 128,-1,47
 326 999 326 999 320.5 932.5 c 128,-1,48
 315 866 315 866 315 804 c 0,49,50
 315 731 315 731 320 655.5 c 128,-1,51
 325 580 325 580 338 508 c 0,52,53
 350 445 350 445 372 387 c 1,54,-1
 842 1318 l 1,55,56
 820 1335 820 1335 794 1347 c 0,40,41
1016 736 m 0,57,58
 1016 808 1016 808 1011.5 882.5 c 128,-1,59
 1007 957 1007 957 992 1028 c 0,60,61
 981 1089 981 1089 962 1144 c 1,62,-1
 497 213 l 1,63,64
 516 200 516 200 538 189 c 0,65,66
 594 161 594 161 672 162 c 0,67,68
 745 162 745 162 798.5 187 c 128,-1,69
 852 212 852 212 890.5 255.5 c 128,-1,70
 929 299 929 299 953.5 356 c 128,-1,71
 978 413 978 413 992 477 c 128,-1,72
 1006 541 1006 541 1011 607.5 c 128,-1,73
 1016 674 1016 674 1016 736 c 0,57,58
EndSplineSet
EndChar

StartChar: Ugrave
Encoding: 217 217 156
Width: 1331
GlyphClass: 1
Flags: W
LayerCount: 2
Fore
SplineSet
1157 1536 m 1,0,-1
 1157 536 l 2,1,2
 1157 397 1157 397 1123.5 292.5 c 128,-1,3
 1090 188 1090 188 1027 119.5 c 128,-1,4
 964 51 964 51 873 17 c 128,-1,5
 782 -17 782 -17 665 -17 c 0,6,7
 540 -17 540 -17 452.5 26.5 c 128,-1,8
 365 70 365 70 310 149 c 128,-1,9
 255 228 255 228 229.5 340 c 128,-1,10
 204 452 204 452 204 587 c 2,11,-1
 204 1321 l 1,12,-1
 174 1536 l 1,13,-1
 399 1556 l 1,14,-1
 399 567 l 2,15,16
 399 470 399 470 418 393.5 c 128,-1,17
 437 317 437 317 473 264.5 c 128,-1,18
 509 212 509 212 560 184.5 c 128,-1,19
 611 157 611 157 675 157 c 0,20,21
 826 157 826 157 894 246.5 c 128,-1,22
 962 336 962 336 962 516 c 2,23,-1
 962 1536 l 1,24,-1
 1157 1536 l 1,0,-1
793 1638 m 1,25,-1
 640 1638 l 1,26,-1
 409 1946 l 1,27,-1
 618 1966 l 1,28,-1
 793 1638 l 1,25,-1
EndSplineSet
EndChar

StartChar: Uacute
Encoding: 218 218 157
Width: 1331
GlyphClass: 1
Flags: W
LayerCount: 2
Fore
SplineSet
1157 1536 m 1,0,-1
 1157 536 l 2,1,2
 1157 397 1157 397 1123.5 292.5 c 128,-1,3
 1090 188 1090 188 1027 119.5 c 128,-1,4
 964 51 964 51 873 17 c 128,-1,5
 782 -17 782 -17 665 -17 c 0,6,7
 540 -17 540 -17 452.5 26.5 c 128,-1,8
 365 70 365 70 310 149 c 128,-1,9
 255 228 255 228 229.5 340 c 128,-1,10
 204 452 204 452 204 587 c 2,11,-1
 204 1321 l 1,12,-1
 174 1536 l 1,13,-1
 399 1556 l 1,14,-1
 399 567 l 2,15,16
 399 470 399 470 418 393.5 c 128,-1,17
 437 317 437 317 473 264.5 c 128,-1,18
 509 212 509 212 560 184.5 c 128,-1,19
 611 157 611 157 675 157 c 0,20,21
 826 157 826 157 894 246.5 c 128,-1,22
 962 336 962 336 962 516 c 2,23,-1
 962 1536 l 1,24,-1
 1157 1536 l 1,0,-1
732 1946 m 1,25,-1
 967 1966 l 1,26,-1
 722 1638 l 1,27,-1
 568 1638 l 1,28,-1
 732 1946 l 1,25,-1
EndSplineSet
EndChar

StartChar: Ucircumflex
Encoding: 219 219 158
Width: 1331
GlyphClass: 1
Flags: W
LayerCount: 2
Fore
SplineSet
1157 1536 m 1,0,-1
 1157 536 l 2,1,2
 1157 397 1157 397 1123.5 292.5 c 128,-1,3
 1090 188 1090 188 1027 119.5 c 128,-1,4
 964 51 964 51 873 17 c 128,-1,5
 782 -17 782 -17 665 -17 c 0,6,7
 540 -17 540 -17 452.5 26.5 c 128,-1,8
 365 70 365 70 310 149 c 128,-1,9
 255 228 255 228 229.5 340 c 128,-1,10
 204 452 204 452 204 587 c 2,11,-1
 204 1321 l 1,12,-1
 174 1536 l 1,13,-1
 399 1556 l 1,14,-1
 399 567 l 2,15,16
 399 470 399 470 418 393.5 c 128,-1,17
 437 317 437 317 473 264.5 c 128,-1,18
 509 212 509 212 560 184.5 c 128,-1,19
 611 157 611 157 675 157 c 0,20,21
 826 157 826 157 894 246.5 c 128,-1,22
 962 336 962 336 962 516 c 2,23,-1
 962 1536 l 1,24,-1
 1157 1536 l 1,0,-1
967 1659 m 1,25,-1
 814 1659 l 1,26,-1
 711 1815 l 1,27,-1
 681 1905 l 1,28,-1
 650 1816 l 1,29,-1
 546 1659 l 1,30,-1
 393 1659 l 1,31,-1
 573 1946 l 1,32,-1
 778 1966 l 1,33,-1
 967 1659 l 1,25,-1
EndSplineSet
EndChar

StartChar: Udieresis
Encoding: 220 220 159
Width: 1331
GlyphClass: 1
Flags: W
LayerCount: 2
Fore
SplineSet
1157 1536 m 1,0,-1
 1157 536 l 2,1,2
 1157 397 1157 397 1123.5 292.5 c 128,-1,3
 1090 188 1090 188 1027 119.5 c 128,-1,4
 964 51 964 51 873 17 c 128,-1,5
 782 -17 782 -17 665 -17 c 0,6,7
 540 -17 540 -17 452.5 26.5 c 128,-1,8
 365 70 365 70 310 149 c 128,-1,9
 255 228 255 228 229.5 340 c 128,-1,10
 204 452 204 452 204 587 c 2,11,-1
 204 1321 l 1,12,-1
 174 1536 l 1,13,-1
 399 1556 l 1,14,-1
 399 567 l 2,15,16
 399 470 399 470 418 393.5 c 128,-1,17
 437 317 437 317 473 264.5 c 128,-1,18
 509 212 509 212 560 184.5 c 128,-1,19
 611 157 611 157 675 157 c 0,20,21
 826 157 826 157 894 246.5 c 128,-1,22
 962 336 962 336 962 516 c 2,23,-1
 962 1536 l 1,24,-1
 1157 1536 l 1,0,-1
373 1843 m 1,25,-1
 578 1843 l 1,26,-1
 578 1638 l 1,27,-1
 373 1638 l 1,28,-1
 373 1843 l 1,25,-1
783 1843 m 1,29,-1
 988 1843 l 1,30,-1
 988 1638 l 1,31,-1
 783 1638 l 1,32,-1
 783 1843 l 1,29,-1
EndSplineSet
EndChar

StartChar: Yacute
Encoding: 221 221 160
Width: 1331
GlyphClass: 1
Flags: W
LayerCount: 2
Fore
SplineSet
728 957 m 1,0,-1
 1023 1536 l 1,1,-1
 1219 1536 l 1,2,-1
 774 662 l 1,3,-1
 774 0 l 1,4,-1
 559 0 l 1,5,-1
 559 660 l 1,6,-1
 112 1536 l 1,7,-1
 321 1556 l 1,8,-1
 616 977 l 1,9,-1
 697 722 l 1,10,-1
 728 957 l 1,0,-1
666 1946 m 1,11,-1
 902 1966 l 1,12,-1
 656 1638 l 1,13,-1
 503 1638 l 1,14,-1
 666 1946 l 1,11,-1
EndSplineSet
EndChar

StartChar: Thorn
Encoding: 222 222 161
Width: 1331
GlyphClass: 1
Flags: W
LayerCount: 2
Fore
SplineSet
220 1536 m 1,0,-1
 446 1536 l 1,1,-1
 446 1332 l 1,2,-1
 650 1332 l 2,3,4
 697 1332 697 1332 749.5 1323 c 128,-1,5
 802 1314 802 1314 853 1294 c 128,-1,6
 904 1274 904 1274 951 1241.5 c 128,-1,7
 998 1209 998 1209 1033.5 1162 c 128,-1,8
 1069 1115 1069 1115 1090 1052.5 c 128,-1,9
 1111 990 1111 990 1111 910 c 0,10,11
 1111 851 1111 851 1103.5 787.5 c 128,-1,12
 1096 724 1096 724 1072 665 c 128,-1,13
 1048 606 1048 606 1004 555 c 128,-1,14
 960 504 960 504 886 468 c 0,15,16
 835 443 835 443 770 427 c 128,-1,17
 705 411 705 411 609 411 c 2,18,-1
 446 411 l 1,19,-1
 446 0 l 1,20,-1
 241 0 l 1,21,-1
 241 1330 l 1,22,-1
 220 1536 l 1,0,-1
446 1179 m 1,23,-1
 446 570 l 1,24,-1
 639 570 l 2,25,26
 714 570 714 570 768 596.5 c 128,-1,27
 822 623 822 623 857.5 668.5 c 128,-1,28
 893 714 893 714 910 776 c 128,-1,29
 927 838 927 838 927 910 c 0,30,31
 927 973 927 973 905.5 1023.5 c 128,-1,32
 884 1074 884 1074 843.5 1108.5 c 128,-1,33
 803 1143 803 1143 746 1161 c 128,-1,34
 689 1179 689 1179 619 1179 c 2,35,-1
 446 1179 l 1,23,-1
EndSplineSet
EndChar

StartChar: germandbls
Encoding: 223 223 162
Width: 1331
GlyphClass: 1
Flags: W
LayerCount: 2
Fore
SplineSet
822 1176 m 0,0,1
 822 1223 822 1223 808 1264 c 128,-1,2
 794 1305 794 1305 768.5 1335.5 c 128,-1,3
 743 1366 743 1366 707 1384 c 128,-1,4
 671 1402 671 1402 627 1402 c 0,5,6
 594 1402 594 1402 571.5 1398 c 128,-1,7
 549 1394 549 1394 530.5 1385 c 128,-1,8
 512 1376 512 1376 496 1364 c 128,-1,9
 480 1352 480 1352 464 1335 c 0,10,11
 436 1307 436 1307 429.5 1270.5 c 128,-1,12
 423 1234 423 1234 423 1188 c 2,13,-1
 423 -17 l 1,14,-1
 210 0 l 1,15,-1
 210 1138 l 2,16,17
 210 1337 210 1337 328 1446 c 0,18,19
 357 1473 357 1473 388 1493 c 128,-1,20
 419 1513 419 1513 455 1526.5 c 128,-1,21
 491 1540 491 1540 533.5 1546.5 c 128,-1,22
 576 1553 576 1553 630 1553 c 0,23,24
 682 1553 682 1553 723 1546 c 128,-1,25
 764 1539 764 1539 797.5 1524.5 c 128,-1,26
 831 1510 831 1510 859 1488.5 c 128,-1,27
 887 1467 887 1467 915 1439 c 0,28,29
 938 1415 938 1415 957 1390 c 128,-1,30
 976 1365 976 1365 989 1336.5 c 128,-1,31
 1002 1308 1002 1308 1010 1274 c 128,-1,32
 1018 1240 1018 1240 1018 1197 c 0,33,34
 1018 1085 1018 1085 964.5 1004.5 c 128,-1,35
 911 924 911 924 822 881 c 1,36,-1
 664 836 l 1,37,-1
 815 821 l 1,38,39
 877 803 877 803 933 773.5 c 128,-1,40
 989 744 989 744 1031 702 c 128,-1,41
 1073 660 1073 660 1097 603 c 128,-1,42
 1121 546 1121 546 1121 471 c 0,43,44
 1121 340 1121 340 1075 250.5 c 128,-1,45
 1029 161 1029 161 954.5 105 c 128,-1,46
 880 49 880 49 786.5 24.5 c 128,-1,47
 693 0 693 0 597 0 c 1,48,-1
 535 164 l 1,49,50
 636 164 636 164 708.5 179 c 128,-1,51
 781 194 781 194 827 228 c 128,-1,52
 873 262 873 262 894.5 319 c 128,-1,53
 916 376 916 376 916 461 c 0,54,55
 916 615 916 615 829.5 681.5 c 128,-1,56
 743 748 743 748 576 748 c 1,57,-1
 505 906 l 1,58,59
 571 906 571 906 628.5 921 c 128,-1,60
 686 936 686 936 729 968 c 128,-1,61
 772 1000 772 1000 797 1051.5 c 128,-1,62
 822 1103 822 1103 822 1176 c 0,0,1
EndSplineSet
EndChar

StartChar: agrave
Encoding: 224 224 163
Width: 1331
GlyphClass: 1
Flags: W
LayerCount: 2
Fore
SplineSet
1147 0 m 1,0,-1
 942 0 l 1,1,-1
 942 166 l 1,2,-1
 846 51 l 1,3,4
 829 38 829 38 801.5 25.5 c 128,-1,5
 774 13 774 13 743 3.5 c 128,-1,6
 712 -6 712 -6 680.5 -11.5 c 128,-1,7
 649 -17 649 -17 620 -17 c 0,8,9
 543 -17 543 -17 465.5 7 c 128,-1,10
 388 31 388 31 325.5 77.5 c 128,-1,11
 263 124 263 124 223.5 193 c 128,-1,12
 184 262 184 262 184 352 c 0,13,14
 184 447 184 447 224.5 516.5 c 128,-1,15
 265 586 265 586 330.5 631 c 128,-1,16
 396 676 396 676 480 697.5 c 128,-1,17
 564 719 564 719 650 719 c 0,18,19
 747 719 747 719 819 708 c 128,-1,20
 891 697 891 697 942 678 c 1,21,-1
 942 722 l 2,22,23
 942 782 942 782 927 830.5 c 128,-1,24
 912 879 912 879 880.5 912 c 128,-1,25
 849 945 849 945 799 962.5 c 128,-1,26
 749 980 749 980 681 980 c 0,27,28
 616 980 616 980 569.5 972.5 c 128,-1,29
 523 965 523 965 483 955 c 0,30,31
 459 950 459 950 438 944 c 128,-1,32
 417 938 417 938 396 932 c 1,33,-1
 322 1069 l 1,34,35
 365 1088 365 1088 425 1106 c 0,36,37
 474 1120 474 1120 537 1132 c 128,-1,38
 600 1144 600 1144 691 1144 c 0,39,40
 809 1144 809 1144 892 1112 c 128,-1,41
 975 1080 975 1080 1027 1023 c 128,-1,42
 1079 966 1079 966 1102.5 885.5 c 128,-1,43
 1126 805 1126 805 1126 707 c 2,44,-1
 1126 184 l 1,45,-1
 1147 0 l 1,0,-1
942 538 m 1,46,-1
 880 546 l 2,47,48
 866 547 866 547 842.5 549 c 128,-1,49
 819 551 819 551 791 552 c 2,50,-1
 737 554 l 2,51,52
 710 555 710 555 691 555 c 0,53,54
 634 555 634 555 578.5 545 c 128,-1,55
 523 535 523 535 479.5 511 c 128,-1,56
 436 487 436 487 409 449 c 128,-1,57
 382 411 382 411 382 353 c 0,58,59
 382 307 382 307 402.5 269 c 128,-1,60
 423 231 423 231 457 203.5 c 128,-1,61
 491 176 491 176 535.5 161 c 128,-1,62
 580 146 580 146 628 146 c 0,63,64
 723 146 723 146 799 182.5 c 128,-1,65
 875 219 875 219 942 281 c 1,66,-1
 942 538 l 1,46,-1
891 1229 m 1,67,-1
 737 1229 l 1,68,-1
 507 1536 l 1,69,-1
 716 1556 l 1,70,-1
 891 1229 l 1,67,-1
EndSplineSet
EndChar

StartChar: aacute
Encoding: 225 225 164
Width: 1331
GlyphClass: 1
Flags: W
LayerCount: 2
Fore
SplineSet
1147 0 m 1,0,-1
 942 0 l 1,1,-1
 942 166 l 1,2,-1
 846 51 l 1,3,4
 829 38 829 38 801.5 25.5 c 128,-1,5
 774 13 774 13 743 3.5 c 128,-1,6
 712 -6 712 -6 680.5 -11.5 c 128,-1,7
 649 -17 649 -17 620 -17 c 0,8,9
 543 -17 543 -17 465.5 7 c 128,-1,10
 388 31 388 31 325.5 77.5 c 128,-1,11
 263 124 263 124 223.5 193 c 128,-1,12
 184 262 184 262 184 352 c 0,13,14
 184 447 184 447 224.5 516.5 c 128,-1,15
 265 586 265 586 330.5 631 c 128,-1,16
 396 676 396 676 480 697.5 c 128,-1,17
 564 719 564 719 650 719 c 0,18,19
 747 719 747 719 819 708 c 128,-1,20
 891 697 891 697 942 678 c 1,21,-1
 942 722 l 2,22,23
 942 782 942 782 927 830.5 c 128,-1,24
 912 879 912 879 880.5 912 c 128,-1,25
 849 945 849 945 799 962.5 c 128,-1,26
 749 980 749 980 681 980 c 0,27,28
 616 980 616 980 569.5 972.5 c 128,-1,29
 523 965 523 965 483 955 c 0,30,31
 459 950 459 950 438 944 c 128,-1,32
 417 938 417 938 396 932 c 1,33,-1
 322 1069 l 1,34,35
 365 1088 365 1088 425 1106 c 0,36,37
 474 1120 474 1120 537 1132 c 128,-1,38
 600 1144 600 1144 691 1144 c 0,39,40
 809 1144 809 1144 892 1112 c 128,-1,41
 975 1080 975 1080 1027 1023 c 128,-1,42
 1079 966 1079 966 1102.5 885.5 c 128,-1,43
 1126 805 1126 805 1126 707 c 2,44,-1
 1126 184 l 1,45,-1
 1147 0 l 1,0,-1
942 538 m 1,46,-1
 880 546 l 2,47,48
 866 547 866 547 842.5 549 c 128,-1,49
 819 551 819 551 791 552 c 2,50,-1
 737 554 l 2,51,52
 710 555 710 555 691 555 c 0,53,54
 634 555 634 555 578.5 545 c 128,-1,55
 523 535 523 535 479.5 511 c 128,-1,56
 436 487 436 487 409 449 c 128,-1,57
 382 411 382 411 382 353 c 0,58,59
 382 307 382 307 402.5 269 c 128,-1,60
 423 231 423 231 457 203.5 c 128,-1,61
 491 176 491 176 535.5 161 c 128,-1,62
 580 146 580 146 628 146 c 0,63,64
 723 146 723 146 799 182.5 c 128,-1,65
 875 219 875 219 942 281 c 1,66,-1
 942 538 l 1,46,-1
778 1536 m 1,67,-1
 1014 1556 l 1,68,-1
 768 1229 l 1,69,-1
 614 1229 l 1,70,-1
 778 1536 l 1,67,-1
EndSplineSet
EndChar

StartChar: acircumflex
Encoding: 226 226 165
Width: 1331
GlyphClass: 1
Flags: W
LayerCount: 2
Fore
SplineSet
1147 0 m 1,0,-1
 942 0 l 1,1,-1
 942 166 l 1,2,-1
 846 51 l 1,3,4
 829 38 829 38 801.5 25.5 c 128,-1,5
 774 13 774 13 743 3.5 c 128,-1,6
 712 -6 712 -6 680.5 -11.5 c 128,-1,7
 649 -17 649 -17 620 -17 c 0,8,9
 543 -17 543 -17 465.5 7 c 128,-1,10
 388 31 388 31 325.5 77.5 c 128,-1,11
 263 124 263 124 223.5 193 c 128,-1,12
 184 262 184 262 184 352 c 0,13,14
 184 447 184 447 224.5 516.5 c 128,-1,15
 265 586 265 586 330.5 631 c 128,-1,16
 396 676 396 676 480 697.5 c 128,-1,17
 564 719 564 719 650 719 c 0,18,19
 747 719 747 719 819 708 c 128,-1,20
 891 697 891 697 942 678 c 1,21,-1
 942 722 l 2,22,23
 942 782 942 782 927 830.5 c 128,-1,24
 912 879 912 879 880.5 912 c 128,-1,25
 849 945 849 945 799 962.5 c 128,-1,26
 749 980 749 980 681 980 c 0,27,28
 616 980 616 980 569.5 972.5 c 128,-1,29
 523 965 523 965 483 955 c 0,30,31
 459 950 459 950 438 944 c 128,-1,32
 417 938 417 938 396 932 c 1,33,-1
 322 1069 l 1,34,35
 365 1088 365 1088 425 1106 c 0,36,37
 474 1120 474 1120 537 1132 c 128,-1,38
 600 1144 600 1144 691 1144 c 0,39,40
 809 1144 809 1144 892 1112 c 128,-1,41
 975 1080 975 1080 1027 1023 c 128,-1,42
 1079 966 1079 966 1102.5 885.5 c 128,-1,43
 1126 805 1126 805 1126 707 c 2,44,-1
 1126 184 l 1,45,-1
 1147 0 l 1,0,-1
942 538 m 1,46,-1
 880 546 l 2,47,48
 866 547 866 547 842.5 549 c 128,-1,49
 819 551 819 551 791 552 c 2,50,-1
 737 554 l 2,51,52
 710 555 710 555 691 555 c 0,53,54
 634 555 634 555 578.5 545 c 128,-1,55
 523 535 523 535 479.5 511 c 128,-1,56
 436 487 436 487 409 449 c 128,-1,57
 382 411 382 411 382 353 c 0,58,59
 382 307 382 307 402.5 269 c 128,-1,60
 423 231 423 231 457 203.5 c 128,-1,61
 491 176 491 176 535.5 161 c 128,-1,62
 580 146 580 146 628 146 c 0,63,64
 723 146 723 146 799 182.5 c 128,-1,65
 875 219 875 219 942 281 c 1,66,-1
 942 538 l 1,46,-1
1014 1249 m 1,67,-1
 860 1249 l 1,68,-1
 758 1405 l 1,69,-1
 727 1495 l 1,70,-1
 696 1406 l 1,71,-1
 593 1249 l 1,72,-1
 439 1249 l 1,73,-1
 619 1536 l 1,74,-1
 824 1556 l 1,75,-1
 1014 1249 l 1,67,-1
EndSplineSet
EndChar

StartChar: atilde
Encoding: 227 227 166
Width: 1331
GlyphClass: 1
Flags: W
LayerCount: 2
Fore
SplineSet
1147 0 m 1,0,-1
 942 0 l 1,1,-1
 942 166 l 1,2,-1
 846 51 l 1,3,4
 829 38 829 38 801.5 25.5 c 128,-1,5
 774 13 774 13 743 3.5 c 128,-1,6
 712 -6 712 -6 680.5 -11.5 c 128,-1,7
 649 -17 649 -17 620 -17 c 0,8,9
 543 -17 543 -17 465.5 7 c 128,-1,10
 388 31 388 31 325.5 77.5 c 128,-1,11
 263 124 263 124 223.5 193 c 128,-1,12
 184 262 184 262 184 352 c 0,13,14
 184 447 184 447 224.5 516.5 c 128,-1,15
 265 586 265 586 330.5 631 c 128,-1,16
 396 676 396 676 480 697.5 c 128,-1,17
 564 719 564 719 650 719 c 0,18,19
 747 719 747 719 819 708 c 128,-1,20
 891 697 891 697 942 678 c 1,21,-1
 942 722 l 2,22,23
 942 782 942 782 927 830.5 c 128,-1,24
 912 879 912 879 880.5 912 c 128,-1,25
 849 945 849 945 799 962.5 c 128,-1,26
 749 980 749 980 681 980 c 0,27,28
 616 980 616 980 569.5 972.5 c 128,-1,29
 523 965 523 965 483 955 c 0,30,31
 459 950 459 950 438 944 c 128,-1,32
 417 938 417 938 396 932 c 1,33,-1
 322 1069 l 1,34,35
 365 1088 365 1088 425 1106 c 0,36,37
 474 1120 474 1120 537 1132 c 128,-1,38
 600 1144 600 1144 691 1144 c 0,39,40
 809 1144 809 1144 892 1112 c 128,-1,41
 975 1080 975 1080 1027 1023 c 128,-1,42
 1079 966 1079 966 1102.5 885.5 c 128,-1,43
 1126 805 1126 805 1126 707 c 2,44,-1
 1126 184 l 1,45,-1
 1147 0 l 1,0,-1
942 538 m 1,46,-1
 880 546 l 2,47,48
 866 547 866 547 842.5 549 c 128,-1,49
 819 551 819 551 791 552 c 2,50,-1
 737 554 l 2,51,52
 710 555 710 555 691 555 c 0,53,54
 634 555 634 555 578.5 545 c 128,-1,55
 523 535 523 535 479.5 511 c 128,-1,56
 436 487 436 487 409 449 c 128,-1,57
 382 411 382 411 382 353 c 0,58,59
 382 307 382 307 402.5 269 c 128,-1,60
 423 231 423 231 457 203.5 c 128,-1,61
 491 176 491 176 535.5 161 c 128,-1,62
 580 146 580 146 628 146 c 0,63,64
 723 146 723 146 799 182.5 c 128,-1,65
 875 219 875 219 942 281 c 1,66,-1
 942 538 l 1,46,-1
406 1306 m 1,67,68
 410 1347 410 1347 426 1385.5 c 128,-1,69
 442 1424 442 1424 467 1454 c 128,-1,70
 492 1484 492 1484 524 1502 c 128,-1,71
 556 1520 556 1520 593 1520 c 0,72,73
 633 1520 633 1520 667.5 1505.5 c 128,-1,74
 702 1491 702 1491 734 1473.5 c 128,-1,75
 766 1456 766 1456 796.5 1441.5 c 128,-1,76
 827 1427 827 1427 859 1427 c 0,77,78
 881 1427 881 1427 897 1438 c 128,-1,79
 913 1449 913 1449 924.5 1465 c 128,-1,80
 936 1481 936 1481 943 1500.5 c 128,-1,81
 950 1520 950 1520 953 1538 c 1,82,-1
 1051 1534 l 1,83,84
 1048 1489 1048 1489 1031.5 1447 c 128,-1,85
 1015 1405 1015 1405 988.5 1372.5 c 128,-1,86
 962 1340 962 1340 927 1321 c 128,-1,87
 892 1302 892 1302 852 1302 c 0,88,89
 819 1302 819 1302 787 1316 c 128,-1,90
 755 1330 755 1330 722.5 1347 c 128,-1,91
 690 1364 690 1364 656 1378.5 c 128,-1,92
 622 1393 622 1393 587 1393 c 0,93,94
 569 1393 569 1393 553.5 1384.5 c 128,-1,95
 538 1376 538 1376 526.5 1363 c 128,-1,96
 515 1350 515 1350 506.5 1334 c 128,-1,97
 498 1318 498 1318 494 1303 c 1,98,-1
 406 1306 l 1,67,68
EndSplineSet
EndChar

StartChar: adieresis
Encoding: 228 228 167
Width: 1331
GlyphClass: 1
Flags: W
LayerCount: 2
Fore
SplineSet
1147 0 m 1,0,-1
 942 0 l 1,1,-1
 942 166 l 1,2,-1
 846 51 l 1,3,4
 829 38 829 38 801.5 25.5 c 128,-1,5
 774 13 774 13 743 3.5 c 128,-1,6
 712 -6 712 -6 680.5 -11.5 c 128,-1,7
 649 -17 649 -17 620 -17 c 0,8,9
 543 -17 543 -17 465.5 7 c 128,-1,10
 388 31 388 31 325.5 77.5 c 128,-1,11
 263 124 263 124 223.5 193 c 128,-1,12
 184 262 184 262 184 352 c 0,13,14
 184 447 184 447 224.5 516.5 c 128,-1,15
 265 586 265 586 330.5 631 c 128,-1,16
 396 676 396 676 480 697.5 c 128,-1,17
 564 719 564 719 650 719 c 0,18,19
 747 719 747 719 819 708 c 128,-1,20
 891 697 891 697 942 678 c 1,21,-1
 942 722 l 2,22,23
 942 782 942 782 927 830.5 c 128,-1,24
 912 879 912 879 880.5 912 c 128,-1,25
 849 945 849 945 799 962.5 c 128,-1,26
 749 980 749 980 681 980 c 0,27,28
 616 980 616 980 569.5 972.5 c 128,-1,29
 523 965 523 965 483 955 c 0,30,31
 459 950 459 950 438 944 c 128,-1,32
 417 938 417 938 396 932 c 1,33,-1
 322 1069 l 1,34,35
 365 1088 365 1088 425 1106 c 0,36,37
 474 1120 474 1120 537 1132 c 128,-1,38
 600 1144 600 1144 691 1144 c 0,39,40
 809 1144 809 1144 892 1112 c 128,-1,41
 975 1080 975 1080 1027 1023 c 128,-1,42
 1079 966 1079 966 1102.5 885.5 c 128,-1,43
 1126 805 1126 805 1126 707 c 2,44,-1
 1126 184 l 1,45,-1
 1147 0 l 1,0,-1
942 538 m 1,46,-1
 880 546 l 2,47,48
 866 547 866 547 842.5 549 c 128,-1,49
 819 551 819 551 791 552 c 2,50,-1
 737 554 l 2,51,52
 710 555 710 555 691 555 c 0,53,54
 634 555 634 555 578.5 545 c 128,-1,55
 523 535 523 535 479.5 511 c 128,-1,56
 436 487 436 487 409 449 c 128,-1,57
 382 411 382 411 382 353 c 0,58,59
 382 307 382 307 402.5 269 c 128,-1,60
 423 231 423 231 457 203.5 c 128,-1,61
 491 176 491 176 535.5 161 c 128,-1,62
 580 146 580 146 628 146 c 0,63,64
 723 146 723 146 799 182.5 c 128,-1,65
 875 219 875 219 942 281 c 1,66,-1
 942 538 l 1,46,-1
420 1536 m 1,67,-1
 624 1536 l 1,68,-1
 624 1331 l 1,69,-1
 420 1331 l 1,70,-1
 420 1536 l 1,67,-1
829 1536 m 1,71,-1
 1034 1536 l 1,72,-1
 1034 1331 l 1,73,-1
 829 1331 l 1,74,-1
 829 1536 l 1,71,-1
EndSplineSet
EndChar

